<?xml version="1.0" encoding="UTF-8" standalone="no"?> <!-- Created with Vectornator for iOS (http://vectornator.io/) --><!DOCTYPE svg PUBLIC "-//W3C//DTD SVG 1.1//EN" "http://www.w3.org/Graphics/SVG/1.1/DTD/svg11.dtd">
<svg style="fill-rule:evenodd;clip-rule:evenodd;stroke-linecap:round;stroke-linejoin:round;" xmlns:vectornator="http://vectornator.io" xmlns:xlink="http://www.w3.org/1999/xlink" xmlns="http://www.w3.org/2000/svg" xml:space="preserve" version="1.1" viewBox="0 0 1000 765">
<metadata>
<vectornator:setting key="DimensionsVisible" value="1"/>
<vectornator:setting key="SnapToGrid" value="0"/>
<vectornator:setting key="SnapToPoints" value="0"/>
<vectornator:setting key="GuidesVisible" value="1"/>
<vectornator:setting key="RulersVisible" value="1"/>
<vectornator:setting key="CMYKEnabledKey" value="0"/>
<vectornator:setting key="SnapToEdges" value="0"/>
<vectornator:setting key="DisplayWhiteBackground" value="0"/>
<vectornator:setting key="SnapToGuides" value="1"/>
<vectornator:setting key="GridSpacing" value="200"/>
<vectornator:setting key="Units" value="Pixels"/>
<vectornator:setting key="DynamicGuides" value="0"/>
<vectornator:setting key="New" value="1"/>
</metadata>
<defs/>
<g id="Layer 1" vectornator:layerName="Layer 1">
<path d="M75+0L925+0C966.421+0+1000+33.5786+1000+75L1000+690.257C1000+731.678+966.421+765.257+925+765.257L75+765.257C33.5786+765.257+0+731.678+0+690.257L0+75C0+33.5786+33.5786+0+75+0Z" opacity="1" fill="#121212"/>
<g opacity="1">
<path d="M424.619+105.634C436.498+105.634+446.157+95.9762+446.157+84.097C446.157+72.2178+436.498+62.5596+424.619+62.5596C412.74+62.5596+403.082+72.2178+403.082+84.097C403.082+95.9762+412.74+105.634+424.619+105.634ZM575.381+105.634C587.26+105.634+596.918+95.9762+596.918+84.097C596.918+72.2178+587.26+62.5596+575.381+62.5596C563.502+62.5596+553.843+72.2178+553.843+84.097C553.843+95.9762+563.502+105.634+575.381+105.634ZM586.15+116.403L564.612+116.403C558.689+116.403+553.339+118.792+549.435+122.662C562.997+130.1+572.621+143.527+574.708+159.478L596.918+159.478C602.875+159.478+607.687+154.666+607.687+148.709L607.687+137.94C607.687+126.061+598.029+116.403+586.15+116.403ZM500+116.403C520.831+116.403+537.69+99.5433+537.69+78.7127C537.69+57.882+520.831+41.0222+500+41.0222C479.169+41.0222+462.31+57.882+462.31+78.7127C462.31+99.5433+479.169+116.403+500+116.403ZM525.845+127.172L523.052+127.172C516.052+130.537+508.278+132.556+500+132.556C491.722+132.556+483.982+130.537+476.948+127.172L474.155+127.172C452.752+127.172+435.388+144.536+435.388+165.939L435.388+175.631C435.388+184.549+442.623+191.784+451.541+191.784L548.459+191.784C557.377+191.784+564.612+184.549+564.612+175.631L564.612+165.939C564.612+144.536+547.248+127.172+525.845+127.172ZM450.565+122.662C446.661+118.792+441.311+116.403+435.388+116.403L413.85+116.403C401.971+116.403+392.313+126.061+392.313+137.94L392.313+148.709C392.313+154.666+397.125+159.478+403.082+159.478L425.259+159.478C427.379+143.527+437.003+130.1+450.565+122.662Z" opacity="1" fill="#ffffff"/>
<g opacity="1">
<path d="M256.338+248.156C256.338+255.207+254.331+260.607+250.317+264.357C246.304+268.107+240.508+269.982+232.93+269.982L220.801+269.982L220.801+227.15L234.248+227.15C241.24+227.15+246.67+228.996+250.537+232.687C254.404+236.379+256.338+241.535+256.338+248.156ZM246.904+248.39C246.904+239.191+242.842+234.591+234.717+234.591L229.883+234.591L229.883+262.482L233.779+262.482C242.529+262.482+246.904+257.785+246.904+248.39Z" opacity="1" fill="#ffffff"/>
<path d="M285.312+269.982L283.584+265.529L283.35+265.529C281.846+267.423+280.298+268.737+278.706+269.469C277.114+270.202+275.039+270.568+272.48+270.568C269.336+270.568+266.86+269.67+265.054+267.873C263.247+266.076+262.344+263.517+262.344+260.197C262.344+256.72+263.56+254.157+265.991+252.506C268.423+250.856+272.09+249.943+276.992+249.767L282.676+249.591L282.676+248.156C282.676+244.836+280.977+243.175+277.578+243.175C274.961+243.175+271.885+243.966+268.35+245.548L265.391+239.513C269.16+237.541+273.34+236.554+277.93+236.554C282.324+236.554+285.693+237.511+288.037+239.425C290.381+241.339+291.553+244.25+291.553+248.156L291.553+269.982L285.312+269.982ZM282.676+254.806L279.219+254.923C276.621+255.002+274.688+255.47+273.418+256.33C272.148+257.189+271.514+258.498+271.514+260.255C271.514+262.775+272.959+264.035+275.85+264.035C277.92+264.035+279.575+263.439+280.815+262.248C282.056+261.056+282.676+259.474+282.676+257.502L282.676+254.806Z" opacity="1" fill="#ffffff"/>
<path d="M314.551+263.449C316.113+263.449+317.988+263.107+320.176+262.423L320.176+269.074C317.949+270.07+315.215+270.568+311.973+270.568C308.398+270.568+305.796+269.665+304.165+267.858C302.534+266.051+301.719+263.341+301.719+259.728L301.719+243.937L297.441+243.937L297.441+240.158L302.363+237.17L304.941+230.255L310.654+230.255L310.654+237.228L319.824+237.228L319.824+243.937L310.654+243.937L310.654+259.728C310.654+260.998+311.011+261.935+311.724+262.541C312.437+263.146+313.379+263.449+314.551+263.449Z" opacity="1" fill="#ffffff"/>
<path d="M347.598+269.982L345.869+265.529L345.635+265.529C344.131+267.423+342.583+268.737+340.991+269.469C339.399+270.202+337.324+270.568+334.766+270.568C331.621+270.568+329.146+269.67+327.339+267.873C325.532+266.076+324.629+263.517+324.629+260.197C324.629+256.72+325.845+254.157+328.276+252.506C330.708+250.856+334.375+249.943+339.277+249.767L344.961+249.591L344.961+248.156C344.961+244.836+343.262+243.175+339.863+243.175C337.246+243.175+334.17+243.966+330.635+245.548L327.676+239.513C331.445+237.541+335.625+236.554+340.215+236.554C344.609+236.554+347.979+237.511+350.322+239.425C352.666+241.339+353.838+244.25+353.838+248.156L353.838+269.982L347.598+269.982ZM344.961+254.806L341.504+254.923C338.906+255.002+336.973+255.47+335.703+256.33C334.434+257.189+333.799+258.498+333.799+260.255C333.799+262.775+335.244+264.035+338.135+264.035C340.205+264.035+341.86+263.439+343.101+262.248C344.341+261.056+344.961+259.474+344.961+257.502L344.961+254.806Z" opacity="1" fill="#ffffff"/>
<path d="M379.326+269.982L379.326+227.15L388.408+227.15L388.408+262.482L405.781+262.482L405.781+269.982L379.326+269.982Z" opacity="1" fill="#ffffff"/>
<path d="M412.139+228.761C412.139+225.851+413.76+224.396+417.002+224.396C420.244+224.396+421.865+225.851+421.865+228.761C421.865+230.148+421.46+231.227+420.649+231.999C419.839+232.77+418.623+233.156+417.002+233.156C413.76+233.156+412.139+231.691+412.139+228.761ZM421.455+269.982L412.52+269.982L412.52+237.228L421.455+237.228L421.455+269.982Z" opacity="1" fill="#ffffff"/>
<path d="M461.064+269.982L452.129+269.982L452.129+250.851C452.129+248.488+451.709+246.715+450.869+245.534C450.029+244.352+448.691+243.761+446.855+243.761C444.355+243.761+442.549+244.596+441.436+246.266C440.322+247.936+439.766+250.705+439.766+254.572L439.766+269.982L430.83+269.982L430.83+237.228L437.656+237.228L438.857+241.418L439.355+241.418C440.352+239.836+441.724+238.639+443.472+237.829C445.22+237.018+447.207+236.613+449.434+236.613C453.242+236.613+456.133+237.643+458.105+239.704C460.078+241.764+461.064+244.738+461.064+248.625L461.064+269.982Z" opacity="1" fill="#ffffff"/>
<path d="M478.848+252.17L482.744+247.189L491.914+237.228L501.992+237.228L488.984+251.437L502.783+269.982L492.471+269.982L483.037+256.711L479.199+259.787L479.199+269.982L470.264+269.982L470.264+224.396L479.199+224.396L479.199+244.728L478.73+252.17L478.848+252.17Z" opacity="1" fill="#ffffff"/>
<path d="M521.035+242.97C519.141+242.97+517.656+243.571+516.582+244.772C515.508+245.973+514.893+247.677+514.736+249.884L527.275+249.884C527.236+247.677+526.66+245.973+525.547+244.772C524.434+243.571+522.93+242.97+521.035+242.97ZM522.295+270.568C517.021+270.568+512.9+269.113+509.932+266.203C506.963+263.293+505.479+259.171+505.479+253.839C505.479+248.351+506.851+244.108+509.595+241.11C512.339+238.112+516.133+236.613+520.977+236.613C525.605+236.613+529.209+237.931+531.787+240.568C534.365+243.205+535.654+246.847+535.654+251.496L535.654+255.832L514.531+255.832C514.629+258.371+515.381+260.353+516.787+261.779C518.193+263.205+520.166+263.918+522.705+263.918C524.678+263.918+526.543+263.712+528.301+263.302C530.059+262.892+531.895+262.238+533.809+261.339L533.809+268.254C532.246+269.035+530.576+269.616+528.799+269.997C527.021+270.378+524.854+270.568+522.295+270.568Z" opacity="1" fill="#ffffff"/>
<path d="M553.291+270.568C549.443+270.568+546.421+269.074+544.224+266.086C542.026+263.097+540.928+258.957+540.928+253.664C540.928+248.293+542.046+244.108+544.282+241.11C546.519+238.112+549.6+236.613+553.525+236.613C557.646+236.613+560.791+238.214+562.959+241.418L563.252+241.418C562.803+238.976+562.578+236.798+562.578+234.884L562.578+224.396L571.543+224.396L571.543+269.982L564.688+269.982L562.959+265.734L562.578+265.734C560.547+268.957+557.451+270.568+553.291+270.568ZM556.426+263.449C558.711+263.449+560.386+262.785+561.45+261.457C562.515+260.129+563.096+257.873+563.193+254.689L563.193+253.722C563.193+250.207+562.651+247.687+561.567+246.164C560.483+244.64+558.721+243.879+556.279+243.879C554.287+243.879+552.739+244.723+551.636+246.413C550.532+248.102+549.98+250.558+549.98+253.781C549.98+257.004+550.537+259.42+551.65+261.032C552.764+262.643+554.355+263.449+556.426+263.449Z" opacity="1" fill="#ffffff"/>
<path d="M610.273+263.449C611.836+263.449+613.711+263.107+615.898+262.423L615.898+269.074C613.672+270.07+610.938+270.568+607.695+270.568C604.121+270.568+601.519+269.665+599.888+267.858C598.257+266.051+597.441+263.341+597.441+259.728L597.441+243.937L593.164+243.937L593.164+240.158L598.086+237.17L600.664+230.255L606.377+230.255L606.377+237.228L615.547+237.228L615.547+243.937L606.377+243.937L606.377+259.728C606.377+260.998+606.733+261.935+607.446+262.541C608.159+263.146+609.102+263.449+610.273+263.449Z" opacity="1" fill="#ffffff"/>
<path d="M629.639+253.546C629.639+256.789+630.171+259.24+631.235+260.9C632.3+262.56+634.033+263.39+636.436+263.39C638.818+263.39+640.532+262.565+641.577+260.915C642.622+259.264+643.145+256.808+643.145+253.546C643.145+250.304+642.617+247.873+641.562+246.252C640.508+244.63+638.779+243.82+636.377+243.82C633.994+243.82+632.275+244.626+631.221+246.237C630.166+247.848+629.639+250.285+629.639+253.546ZM652.285+253.546C652.285+258.879+650.879+263.048+648.066+266.056C645.254+269.064+641.338+270.568+636.318+270.568C633.174+270.568+630.4+269.879+627.998+268.503C625.596+267.126+623.75+265.148+622.461+262.57C621.172+259.992+620.527+256.984+620.527+253.546C620.527+248.195+621.924+244.035+624.717+241.066C627.51+238.097+631.436+236.613+636.494+236.613C639.639+236.613+642.412+237.296+644.814+238.664C647.217+240.031+649.062+241.994+650.352+244.552C651.641+247.111+652.285+250.109+652.285+253.546Z" opacity="1" fill="#ffffff"/>
<path d="M689.287+244.787L698.223+227.15L708.008+227.15L693.799+253.312L693.799+269.982L684.775+269.982L684.775+253.605L670.566+227.15L680.41+227.15L689.287+244.787Z" opacity="1" fill="#ffffff"/>
<path d="M719.814+253.546C719.814+256.789+720.347+259.24+721.411+260.9C722.476+262.56+724.209+263.39+726.611+263.39C728.994+263.39+730.708+262.565+731.753+260.915C732.798+259.264+733.32+256.808+733.32+253.546C733.32+250.304+732.793+247.873+731.738+246.252C730.684+244.63+728.955+243.82+726.553+243.82C724.17+243.82+722.451+244.626+721.396+246.237C720.342+247.848+719.814+250.285+719.814+253.546ZM742.461+253.546C742.461+258.879+741.055+263.048+738.242+266.056C735.43+269.064+731.514+270.568+726.494+270.568C723.35+270.568+720.576+269.879+718.174+268.503C715.771+267.126+713.926+265.148+712.637+262.57C711.348+259.992+710.703+256.984+710.703+253.546C710.703+248.195+712.1+244.035+714.893+241.066C717.686+238.097+721.611+236.613+726.67+236.613C729.814+236.613+732.588+237.296+734.99+238.664C737.393+240.031+739.238+241.994+740.527+244.552C741.816+247.111+742.461+250.109+742.461+253.546Z" opacity="1" fill="#ffffff"/>
<path d="M773.047+269.982L771.846+265.793L771.377+265.793C770.42+267.316+769.063+268.493+767.305+269.323C765.547+270.153+763.545+270.568+761.299+270.568C757.451+270.568+754.551+269.538+752.598+267.477C750.645+265.417+749.668+262.453+749.668+258.586L749.668+237.228L758.604+237.228L758.604+256.359C758.604+258.722+759.023+260.495+759.863+261.676C760.703+262.858+762.041+263.449+763.877+263.449C766.377+263.449+768.184+262.614+769.297+260.944C770.41+259.274+770.967+256.505+770.967+252.638L770.967+237.228L779.902+237.228L779.902+269.982L773.047+269.982Z" opacity="1" fill="#ffffff"/>
</g>
</g>
<g opacity="1">
<path d="M169.053+382.084L120.032+404.709C114.376+407.349+116.261+415.645+122.294+415.645L143.034+415.645L143.034+436.385C143.034+442.418+151.33+444.304+153.97+438.647L176.595+389.626C178.481+385.099+173.578+380.197+169.053+382.084Z" opacity="1" fill="#ffffff"/>
<g opacity="1">
<path d="M209.589+402.965C206.855+402.965+204.738+403.993+203.238+406.047C201.738+408.102+200.988+410.965+200.988+414.637C200.988+422.278+203.855+426.098+209.589+426.098C211.996+426.098+214.91+425.497+218.332+424.294L218.332+430.387C215.519+431.559+212.379+432.145+208.91+432.145C203.925+432.145+200.113+430.633+197.472+427.61C194.832+424.586+193.511+420.247+193.511+414.59C193.511+411.028+194.16+407.907+195.457+405.227C196.754+402.547+198.617+400.493+201.047+399.063C203.476+397.633+206.324+396.919+209.589+396.919C212.918+396.919+216.261+397.723+219.621+399.333L217.277+405.239C215.996+404.629+214.707+404.098+213.41+403.645C212.113+403.192+210.839+402.965+209.589+402.965Z" opacity="1" fill="#ffffff"/>
<path d="M230.754+418.528C230.754+421.122+231.179+423.083+232.031+424.411C232.882+425.739+234.269+426.403+236.191+426.403C238.097+426.403+239.468+425.743+240.304+424.422C241.14+423.102+241.558+421.137+241.558+418.528C241.558+415.934+241.136+413.989+240.293+412.692C239.449+411.395+238.066+410.747+236.144+410.747C234.238+410.747+232.863+411.391+232.019+412.68C231.175+413.969+230.754+415.919+230.754+418.528ZM248.871+418.528C248.871+422.794+247.746+426.129+245.496+428.536C243.246+430.942+240.113+432.145+236.097+432.145C233.582+432.145+231.363+431.594+229.441+430.493C227.519+429.391+226.043+427.809+225.011+425.747C223.98+423.684+223.464+421.278+223.464+418.528C223.464+414.247+224.582+410.919+226.816+408.544C229.05+406.169+232.191+404.981+236.238+404.981C238.754+404.981+240.972+405.528+242.894+406.622C244.816+407.715+246.293+409.286+247.324+411.333C248.355+413.379+248.871+415.778+248.871+418.528Z" opacity="1" fill="#ffffff"/>
<path d="M271.418+431.676L270.035+428.114L269.847+428.114C268.644+429.629+267.406+430.68+266.132+431.266C264.859+431.852+263.199+432.145+261.152+432.145C258.636+432.145+256.656+431.426+255.211+429.989C253.765+428.551+253.043+426.504+253.043+423.848C253.043+421.067+254.015+419.016+255.961+417.696C257.906+416.376+260.839+415.645+264.761+415.504L269.308+415.364L269.308+414.215C269.308+411.559+267.949+410.231+265.23+410.231C263.136+410.231+260.675+410.864+257.847+412.129L255.48+407.301C258.496+405.723+261.839+404.934+265.511+404.934C269.027+404.934+271.722+405.7+273.597+407.231C275.472+408.762+276.41+411.09+276.41+414.215L276.41+431.676L271.418+431.676ZM269.308+419.536L266.543+419.629C264.464+419.692+262.918+420.067+261.902+420.754C260.886+421.442+260.379+422.489+260.379+423.895C260.379+425.911+261.535+426.919+263.847+426.919C265.504+426.919+266.828+426.442+267.82+425.489C268.812+424.536+269.308+423.27+269.308+421.692L269.308+419.536Z" opacity="1" fill="#ffffff"/>
<path d="M298.394+404.981C299.363+404.981+300.168+405.051+300.808+405.192L300.269+411.895C299.691+411.739+298.988+411.661+298.16+411.661C295.879+411.661+294.101+412.247+292.828+413.419C291.554+414.59+290.918+416.231+290.918+418.34L290.918+431.676L283.769+431.676L283.769+405.473L289.183+405.473L290.238+409.879L290.589+409.879C291.402+408.411+292.5+407.227+293.882+406.329C295.265+405.43+296.769+404.981+298.394+404.981Z" opacity="1" fill="#ffffff"/>
<path d="M323.847+423.895C323.847+426.583+322.914+428.629+321.047+430.036C319.179+431.442+316.386+432.145+312.668+432.145C310.761+432.145+309.136+432.016+307.793+431.758C306.449+431.501+305.191+431.122+304.019+430.622L304.019+424.715C305.347+425.34+306.843+425.864+308.507+426.286C310.172+426.708+311.636+426.919+312.902+426.919C315.496+426.919+316.793+426.169+316.793+424.669C316.793+424.106+316.621+423.649+316.277+423.297C315.933+422.946+315.339+422.547+314.496+422.102C313.652+421.657+312.527+421.137+311.121+420.544C309.105+419.7+307.625+418.919+306.679+418.2C305.734+417.481+305.047+416.657+304.617+415.727C304.187+414.797+303.972+413.653+303.972+412.294C303.972+409.965+304.875+408.165+306.679+406.891C308.484+405.618+311.043+404.981+314.355+404.981C317.511+404.981+320.582+405.669+323.566+407.044L321.41+412.2C320.097+411.637+318.871+411.176+317.73+410.817C316.589+410.458+315.425+410.278+314.238+410.278C312.129+410.278+311.074+410.848+311.074+411.989C311.074+412.629+311.414+413.184+312.093+413.653C312.773+414.122+314.261+414.817+316.558+415.739C318.605+416.567+320.105+417.34+321.058+418.059C322.011+418.778+322.714+419.606+323.168+420.544C323.621+421.481+323.847+422.598+323.847+423.895Z" opacity="1" fill="#ffffff"/>
<path d="M340.277+410.067C338.761+410.067+337.574+410.547+336.714+411.508C335.855+412.469+335.363+413.833+335.238+415.598L345.269+415.598C345.238+413.833+344.777+412.469+343.886+411.508C342.996+410.547+341.793+410.067+340.277+410.067ZM341.285+432.145C337.066+432.145+333.769+430.981+331.394+428.653C329.019+426.325+327.832+423.028+327.832+418.762C327.832+414.372+328.929+410.977+331.125+408.579C333.32+406.18+336.355+404.981+340.23+404.981C343.933+404.981+346.816+406.036+348.879+408.145C350.941+410.254+351.972+413.169+351.972+416.887L351.972+420.356L335.074+420.356C335.152+422.387+335.754+423.973+336.879+425.114C338.004+426.254+339.582+426.825+341.613+426.825C343.191+426.825+344.683+426.661+346.089+426.333C347.496+426.004+348.964+425.481+350.496+424.762L350.496+430.294C349.246+430.919+347.91+431.383+346.488+431.688C345.066+431.993+343.332+432.145+341.285+432.145Z" opacity="1" fill="#ffffff"/>
<path d="M370.816+431.676L370.816+397.411L378.082+397.411L378.082+425.676L391.98+425.676L391.98+431.676L370.816+431.676Z" opacity="1" fill="#ffffff"/>
<path d="M403.066+418.528C403.066+421.122+403.492+423.083+404.343+424.411C405.195+425.739+406.582+426.403+408.504+426.403C410.41+426.403+411.781+425.743+412.617+424.422C413.453+423.102+413.871+421.137+413.871+418.528C413.871+415.934+413.449+413.989+412.605+412.692C411.761+411.395+410.379+410.747+408.457+410.747C406.55+410.747+405.175+411.391+404.332+412.68C403.488+413.969+403.066+415.919+403.066+418.528ZM421.183+418.528C421.183+422.794+420.058+426.129+417.808+428.536C415.558+430.942+412.425+432.145+408.41+432.145C405.894+432.145+403.675+431.594+401.754+430.493C399.832+429.391+398.355+427.809+397.324+425.747C396.293+423.684+395.777+421.278+395.777+418.528C395.777+414.247+396.894+410.919+399.129+408.544C401.363+406.169+404.504+404.981+408.55+404.981C411.066+404.981+413.285+405.528+415.207+406.622C417.129+407.715+418.605+409.286+419.636+411.333C420.668+413.379+421.183+415.778+421.183+418.528Z" opacity="1" fill="#ffffff"/>
<path d="M437.73+432.145C429.574+432.145+425.496+427.669+425.496+418.715C425.496+414.262+426.605+410.86+428.824+408.508C431.043+406.157+434.222+404.981+438.363+404.981C441.394+404.981+444.113+405.575+446.519+406.762L444.41+412.294C443.285+411.84+442.238+411.469+441.269+411.18C440.3+410.891+439.332+410.747+438.363+410.747C434.644+410.747+432.785+413.387+432.785+418.669C432.785+423.794+434.644+426.356+438.363+426.356C439.738+426.356+441.011+426.172+442.183+425.805C443.355+425.438+444.527+424.864+445.699+424.083L445.699+430.2C444.543+430.934+443.375+431.442+442.195+431.723C441.015+432.004+439.527+432.145+437.73+432.145Z" opacity="1" fill="#ffffff"/>
<path d="M468.41+431.676L467.027+428.114L466.839+428.114C465.636+429.629+464.398+430.68+463.125+431.266C461.851+431.852+460.191+432.145+458.144+432.145C455.629+432.145+453.648+431.426+452.203+429.989C450.757+428.551+450.035+426.504+450.035+423.848C450.035+421.067+451.007+419.016+452.953+417.696C454.898+416.376+457.832+415.645+461.754+415.504L466.3+415.364L466.3+414.215C466.3+411.559+464.941+410.231+462.222+410.231C460.129+410.231+457.668+410.864+454.839+412.129L452.472+407.301C455.488+405.723+458.832+404.934+462.504+404.934C466.019+404.934+468.714+405.7+470.589+407.231C472.464+408.762+473.402+411.09+473.402+414.215L473.402+431.676L468.41+431.676ZM466.3+419.536L463.535+419.629C461.457+419.692+459.91+420.067+458.894+420.754C457.879+421.442+457.371+422.489+457.371+423.895C457.371+425.911+458.527+426.919+460.839+426.919C462.496+426.919+463.82+426.442+464.812+425.489C465.804+424.536+466.3+423.27+466.3+421.692L466.3+419.536Z" opacity="1" fill="#ffffff"/>
<path d="M491.8+426.45C493.05+426.45+494.55+426.176+496.3+425.629L496.3+430.95C494.519+431.747+492.332+432.145+489.738+432.145C486.879+432.145+484.797+431.422+483.492+429.977C482.187+428.532+481.535+426.364+481.535+423.473L481.535+410.84L478.113+410.84L478.113+407.817L482.05+405.426L484.113+399.895L488.683+399.895L488.683+405.473L496.019+405.473L496.019+410.84L488.683+410.84L488.683+423.473C488.683+424.489+488.968+425.239+489.539+425.723C490.109+426.208+490.863+426.45+491.8+426.45Z" opacity="1" fill="#ffffff"/>
<path d="M501.293+398.7C501.293+396.372+502.589+395.208+505.183+395.208C507.777+395.208+509.074+396.372+509.074+398.7C509.074+399.809+508.75+400.672+508.101+401.29C507.453+401.907+506.48+402.215+505.183+402.215C502.589+402.215+501.293+401.044+501.293+398.7ZM508.746+431.676L501.597+431.676L501.597+405.473L508.746+405.473L508.746+431.676Z" opacity="1" fill="#ffffff"/>
<path d="M521.941+418.528C521.941+421.122+522.367+423.083+523.218+424.411C524.07+425.739+525.457+426.403+527.379+426.403C529.285+426.403+530.656+425.743+531.492+424.422C532.328+423.102+532.746+421.137+532.746+418.528C532.746+415.934+532.324+413.989+531.48+412.692C530.636+411.395+529.254+410.747+527.332+410.747C525.425+410.747+524.05+411.391+523.207+412.68C522.363+413.969+521.941+415.919+521.941+418.528ZM540.058+418.528C540.058+422.794+538.933+426.129+536.683+428.536C534.433+430.942+531.3+432.145+527.285+432.145C524.769+432.145+522.55+431.594+520.629+430.493C518.707+429.391+517.23+427.809+516.199+425.747C515.168+423.684+514.652+421.278+514.652+418.528C514.652+414.247+515.769+410.919+518.004+408.544C520.238+406.169+523.379+404.981+527.425+404.981C529.941+404.981+532.16+405.528+534.082+406.622C536.004+407.715+537.48+409.286+538.511+411.333C539.543+413.379+540.058+415.778+540.058+418.528Z" opacity="1" fill="#ffffff"/>
<path d="M570.152+431.676L563.004+431.676L563.004+416.372C563.004+414.481+562.668+413.063+561.996+412.118C561.324+411.172+560.254+410.7+558.785+410.7C556.785+410.7+555.339+411.368+554.449+412.704C553.558+414.04+553.113+416.254+553.113+419.348L553.113+431.676L545.964+431.676L545.964+405.473L551.425+405.473L552.386+408.825L552.785+408.825C553.582+407.559+554.679+406.602+556.078+405.954C557.476+405.305+559.066+404.981+560.847+404.981C563.894+404.981+566.207+405.805+567.785+407.454C569.363+409.102+570.152+411.481+570.152+414.59L570.152+431.676Z" opacity="1" fill="#ffffff"/>
</g>
<g opacity="1">
<path d="M222.925+494.43L222.925+516.602C222.925+519.133+222.359+521.352+221.226+523.258C220.093+525.165+218.457+526.625+216.316+527.641C214.175+528.657+211.644+529.165+208.722+529.165C204.316+529.165+200.894+528.036+198.457+525.778C196.019+523.52+194.8+520.43+194.8+516.508L194.8+494.43L202.043+494.43L202.043+515.407C202.043+518.047+202.574+519.985+203.636+521.219C204.699+522.454+206.457+523.071+208.91+523.071C211.285+523.071+213.007+522.45+214.078+521.208C215.148+519.965+215.683+518.016+215.683+515.36L215.683+494.43L222.925+494.43Z" opacity="1" fill="#ffffff"/>
<path d="M249.035+520.915C249.035+523.602+248.101+525.649+246.234+527.055C244.367+528.461+241.574+529.165+237.855+529.165C235.949+529.165+234.324+529.036+232.98+528.778C231.636+528.52+230.379+528.141+229.207+527.641L229.207+521.735C230.535+522.36+232.031+522.883+233.695+523.305C235.359+523.727+236.824+523.938+238.089+523.938C240.683+523.938+241.98+523.188+241.98+521.688C241.98+521.125+241.808+520.668+241.464+520.317C241.121+519.965+240.527+519.567+239.683+519.122C238.839+518.676+237.714+518.157+236.308+517.563C234.293+516.719+232.812+515.938+231.867+515.219C230.922+514.5+230.234+513.676+229.804+512.747C229.375+511.817+229.16+510.672+229.16+509.313C229.16+506.985+230.062+505.184+231.867+503.911C233.672+502.637+236.23+502+239.543+502C242.699+502+245.769+502.688+248.754+504.063L246.597+509.219C245.285+508.657+244.058+508.196+242.918+507.836C241.777+507.477+240.613+507.297+239.425+507.297C237.316+507.297+236.261+507.868+236.261+509.008C236.261+509.649+236.601+510.204+237.281+510.672C237.961+511.141+239.449+511.836+241.746+512.758C243.793+513.586+245.293+514.36+246.246+515.079C247.199+515.797+247.902+516.625+248.355+517.563C248.808+518.5+249.035+519.618+249.035+520.915Z" opacity="1" fill="#ffffff"/>
<path d="M271.254+528.696L269.871+525.133L269.683+525.133C268.48+526.649+267.242+527.7+265.968+528.286C264.695+528.872+263.035+529.165+260.988+529.165C258.472+529.165+256.492+528.446+255.047+527.008C253.601+525.571+252.879+523.524+252.879+520.868C252.879+518.086+253.851+516.036+255.797+514.715C257.742+513.395+260.675+512.665+264.597+512.524L269.144+512.383L269.144+511.235C269.144+508.579+267.785+507.25+265.066+507.25C262.972+507.25+260.511+507.883+257.683+509.149L255.316+504.321C258.332+502.743+261.675+501.954+265.347+501.954C268.863+501.954+271.558+502.719+273.433+504.25C275.308+505.782+276.246+508.11+276.246+511.235L276.246+528.696L271.254+528.696ZM269.144+516.555L266.379+516.649C264.3+516.711+262.754+517.086+261.738+517.774C260.722+518.461+260.214+519.508+260.214+520.915C260.214+522.93+261.371+523.938+263.683+523.938C265.339+523.938+266.664+523.461+267.656+522.508C268.648+521.555+269.144+520.29+269.144+518.711L269.144+516.555Z" opacity="1" fill="#ffffff"/>
<path d="M306.41+502.493L306.41+506.125L302.308+507.18C303.058+508.352+303.433+509.665+303.433+511.118C303.433+513.93+302.453+516.122+300.492+517.692C298.531+519.262+295.808+520.047+292.324+520.047L291.035+519.977L289.98+519.86C289.246+520.422+288.879+521.047+288.879+521.735C288.879+522.766+290.191+523.282+292.816+523.282L297.269+523.282C300.144+523.282+302.336+523.899+303.843+525.133C305.351+526.368+306.105+528.18+306.105+530.571C306.105+533.633+304.828+536.008+302.273+537.696C299.718+539.383+296.05+540.227+291.269+540.227C287.613+540.227+284.82+539.59+282.89+538.317C280.961+537.043+279.996+535.258+279.996+532.961C279.996+531.383+280.488+530.063+281.472+529C282.457+527.938+283.902+527.18+285.808+526.727C285.074+526.415+284.433+525.903+283.886+525.192C283.339+524.481+283.066+523.727+283.066+522.93C283.066+521.93+283.355+521.098+283.933+520.434C284.511+519.77+285.347+519.118+286.441+518.477C285.066+517.883+283.976+516.93+283.172+515.618C282.367+514.305+281.964+512.758+281.964+510.977C281.964+508.118+282.894+505.907+284.754+504.344C286.613+502.782+289.269+502+292.722+502C293.457+502+294.328+502.067+295.336+502.2C296.343+502.333+296.988+502.43+297.269+502.493L306.41+502.493ZM286.183+532.399C286.183+533.383+286.656+534.157+287.601+534.719C288.547+535.282+289.871+535.563+291.574+535.563C294.136+535.563+296.144+535.211+297.597+534.508C299.05+533.805+299.777+532.844+299.777+531.625C299.777+530.641+299.347+529.961+298.488+529.586C297.629+529.211+296.3+529.024+294.504+529.024L290.8+529.024C289.488+529.024+288.39+529.333+287.507+529.95C286.625+530.567+286.183+531.383+286.183+532.399ZM288.785+511.071C288.785+512.493+289.109+513.618+289.757+514.446C290.406+515.274+291.394+515.688+292.722+515.688C294.066+515.688+295.05+515.274+295.675+514.446C296.3+513.618+296.613+512.493+296.613+511.071C296.613+507.915+295.316+506.336+292.722+506.336C290.097+506.336+288.785+507.915+288.785+511.071Z" opacity="1" fill="#ffffff"/>
<path d="M321.574+507.086C320.058+507.086+318.871+507.567+318.011+508.528C317.152+509.489+316.66+510.852+316.535+512.618L326.566+512.618C326.535+510.852+326.074+509.489+325.183+508.528C324.293+507.567+323.089+507.086+321.574+507.086ZM322.582+529.165C318.363+529.165+315.066+528+312.691+525.672C310.316+523.344+309.129+520.047+309.129+515.782C309.129+511.391+310.226+507.997+312.422+505.598C314.617+503.2+317.652+502+321.527+502C325.23+502+328.113+503.055+330.175+505.165C332.238+507.274+333.269+510.188+333.269+513.907L333.269+517.375L316.371+517.375C316.449+519.407+317.05+520.993+318.175+522.133C319.3+523.274+320.879+523.844+322.91+523.844C324.488+523.844+325.98+523.68+327.386+523.352C328.793+523.024+330.261+522.5+331.793+521.782L331.793+527.313C330.543+527.938+329.207+528.403+327.785+528.708C326.363+529.012+324.629+529.165+322.582+529.165Z" opacity="1" fill="#ffffff"/>
<path d="M380.543+511.235C380.543+516.875+378.937+521.196+375.726+524.196C372.515+527.196+367.879+528.696+361.816+528.696L352.113+528.696L352.113+494.43L362.871+494.43C368.464+494.43+372.808+495.907+375.902+498.86C378.996+501.813+380.543+505.938+380.543+511.235ZM372.996+511.422C372.996+504.063+369.746+500.383+363.246+500.383L359.379+500.383L359.379+522.696L362.496+522.696C369.496+522.696+372.996+518.938+372.996+511.422Z" opacity="1" fill="#ffffff"/>
<path d="M403.722+528.696L402.339+525.133L402.152+525.133C400.949+526.649+399.711+527.7+398.437+528.286C397.164+528.872+395.504+529.165+393.457+529.165C390.941+529.165+388.961+528.446+387.515+527.008C386.07+525.571+385.347+523.524+385.347+520.868C385.347+518.086+386.32+516.036+388.265+514.715C390.211+513.395+393.144+512.665+397.066+512.524L401.613+512.383L401.613+511.235C401.613+508.579+400.254+507.25+397.535+507.25C395.441+507.25+392.98+507.883+390.152+509.149L387.785+504.321C390.8+502.743+394.144+501.954+397.816+501.954C401.332+501.954+404.027+502.719+405.902+504.25C407.777+505.782+408.714+508.11+408.714+511.235L408.714+528.696L403.722+528.696ZM401.613+516.555L398.847+516.649C396.769+516.711+395.222+517.086+394.207+517.774C393.191+518.461+392.683+519.508+392.683+520.915C392.683+522.93+393.839+523.938+396.152+523.938C397.808+523.938+399.132+523.461+400.125+522.508C401.117+521.555+401.613+520.29+401.613+518.711L401.613+516.555Z" opacity="1" fill="#ffffff"/>
<path d="M427.113+523.469C428.363+523.469+429.863+523.196+431.613+522.649L431.613+527.969C429.832+528.766+427.644+529.165+425.05+529.165C422.191+529.165+420.109+528.442+418.804+526.997C417.5+525.551+416.847+523.383+416.847+520.493L416.847+507.86L413.425+507.86L413.425+504.836L417.363+502.446L419.425+496.915L423.996+496.915L423.996+502.493L431.332+502.493L431.332+507.86L423.996+507.86L423.996+520.493C423.996+521.508+424.281+522.258+424.851+522.743C425.422+523.227+426.175+523.469+427.113+523.469Z" opacity="1" fill="#ffffff"/>
<path d="M453.55+528.696L452.168+525.133L451.98+525.133C450.777+526.649+449.539+527.7+448.265+528.286C446.992+528.872+445.332+529.165+443.285+529.165C440.769+529.165+438.789+528.446+437.343+527.008C435.898+525.571+435.175+523.524+435.175+520.868C435.175+518.086+436.148+516.036+438.093+514.715C440.039+513.395+442.972+512.665+446.894+512.524L451.441+512.383L451.441+511.235C451.441+508.579+450.082+507.25+447.363+507.25C445.269+507.25+442.808+507.883+439.98+509.149L437.613+504.321C440.629+502.743+443.972+501.954+447.644+501.954C451.16+501.954+453.855+502.719+455.73+504.25C457.605+505.782+458.543+508.11+458.543+511.235L458.543+528.696L453.55+528.696ZM451.441+516.555L448.675+516.649C446.597+516.711+445.05+517.086+444.035+517.774C443.019+518.461+442.511+519.508+442.511+520.915C442.511+522.93+443.668+523.938+445.98+523.938C447.636+523.938+448.961+523.461+449.953+522.508C450.945+521.555+451.441+520.29+451.441+518.711L451.441+516.555Z" opacity="1" fill="#ffffff"/>
</g>
<path d="M136.219+512.648L131.325+512.648C130.423+512.648+129.693+513.492+129.693+514.535L129.693+537.173C129.693+538.216+130.423+539.06+131.325+539.06L136.219+539.06C137.121+539.06+137.851+538.216+137.851+537.173L137.851+514.535C137.851+513.492+137.121+512.648+136.219+512.648ZM123.166+523.967L118.272+523.967C117.37+523.967+116.64+524.812+116.64+525.854L116.64+537.173C116.64+538.216+117.37+539.06+118.272+539.06L123.166+539.06C124.068+539.06+124.798+538.216+124.798+537.173L124.798+525.854C124.798+524.812+124.068+523.967+123.166+523.967ZM149.272+501.329L144.378+501.329C143.476+501.329+142.746+502.173+142.746+503.215L142.746+537.173C142.746+538.216+143.476+539.06+144.378+539.06L149.272+539.06C150.174+539.06+150.904+538.216+150.904+537.173L150.904+503.215C150.904+502.173+150.174+501.329+149.272+501.329ZM162.325+490.009L157.431+490.009C156.529+490.009+155.799+490.854+155.799+491.896L155.799+537.173C155.799+538.216+156.529+539.06+157.431+539.06L162.325+539.06C163.227+539.06+163.957+538.216+163.957+537.173L163.957+491.896C163.957+490.854+163.227+490.009+162.325+490.009ZM175.378+478.69L170.484+478.69C169.582+478.69+168.852+479.534+168.852+480.577L168.852+537.173C168.852+538.216+169.582+539.06+170.484+539.06L175.378+539.06C176.28+539.06+177.01+538.216+177.01+537.173L177.01+480.577C177.01+479.534+176.28+478.69+175.378+478.69Z" opacity="1" fill="#ffffff"/>
<g opacity="1">
<path d="M195.035+630.305L195.035+596.04L202.3+596.04L202.3+630.305L195.035+630.305Z" opacity="1" fill="#ffffff"/>
<path d="M218.66+630.774C215.582+630.774+213.164+629.579+211.406+627.188C209.648+624.798+208.769+621.485+208.769+617.251C208.769+612.954+209.664+609.606+211.453+607.208C213.242+604.809+215.707+603.61+218.847+603.61C222.144+603.61+224.66+604.891+226.394+607.454L226.629+607.454C226.269+605.501+226.089+603.758+226.089+602.227L226.089+593.837L233.261+593.837L233.261+630.305L227.777+630.305L226.394+626.907L226.089+626.907C224.464+629.485+221.988+630.774+218.66+630.774ZM221.168+625.079C222.996+625.079+224.336+624.548+225.187+623.485C226.039+622.423+226.504+620.618+226.582+618.071L226.582+617.298C226.582+614.485+226.148+612.469+225.281+611.251C224.414+610.032+223.004+609.423+221.05+609.423C219.457+609.423+218.218+610.098+217.336+611.45C216.453+612.801+216.011+614.766+216.011+617.344C216.011+619.923+216.457+621.856+217.347+623.145C218.238+624.434+219.511+625.079+221.168+625.079Z" opacity="1" fill="#ffffff"/>
<path d="M251.589+608.696C250.074+608.696+248.886+609.176+248.027+610.137C247.168+611.098+246.675+612.462+246.55+614.227L256.582+614.227C256.55+612.462+256.089+611.098+255.199+610.137C254.308+609.176+253.105+608.696+251.589+608.696ZM252.597+630.774C248.379+630.774+245.082+629.61+242.707+627.282C240.332+624.954+239.144+621.657+239.144+617.391C239.144+613.001+240.242+609.606+242.437+607.208C244.632+604.809+247.668+603.61+251.543+603.61C255.246+603.61+258.129+604.665+260.191+606.774C262.254+608.883+263.285+611.798+263.285+615.516L263.285+618.985L246.386+618.985C246.464+621.016+247.066+622.602+248.191+623.743C249.316+624.883+250.894+625.454+252.925+625.454C254.504+625.454+255.996+625.29+257.402+624.962C258.808+624.633+260.277+624.11+261.808+623.391L261.808+628.923C260.558+629.548+259.222+630.012+257.8+630.317C256.379+630.622+254.644+630.774+252.597+630.774Z" opacity="1" fill="#ffffff"/>
<path d="M293.285+630.305L286.136+630.305L286.136+615.001C286.136+613.11+285.8+611.692+285.129+610.747C284.457+609.801+283.386+609.329+281.918+609.329C279.918+609.329+278.472+609.997+277.582+611.333C276.691+612.669+276.246+614.883+276.246+617.977L276.246+630.305L269.097+630.305L269.097+604.102L274.558+604.102L275.519+607.454L275.918+607.454C276.714+606.188+277.812+605.231+279.211+604.583C280.609+603.934+282.199+603.61+283.98+603.61C287.027+603.61+289.339+604.434+290.918+606.083C292.496+607.731+293.285+610.11+293.285+613.219L293.285+630.305Z" opacity="1" fill="#ffffff"/>
<path d="M311.683+625.079C312.933+625.079+314.433+624.805+316.183+624.258L316.183+629.579C314.402+630.376+312.214+630.774+309.621+630.774C306.761+630.774+304.679+630.051+303.375+628.606C302.07+627.161+301.418+624.993+301.418+622.102L301.418+609.469L297.996+609.469L297.996+606.446L301.933+604.055L303.996+598.524L308.566+598.524L308.566+604.102L315.902+604.102L315.902+609.469L308.566+609.469L308.566+622.102C308.566+623.118+308.851+623.868+309.422+624.352C309.992+624.837+310.746+625.079+311.683+625.079Z" opacity="1" fill="#ffffff"/>
<path d="M321.175+597.329C321.175+595.001+322.472+593.837+325.066+593.837C327.66+593.837+328.957+595.001+328.957+597.329C328.957+598.438+328.632+599.301+327.984+599.919C327.336+600.536+326.363+600.844+325.066+600.844C322.472+600.844+321.175+599.673+321.175+597.329ZM328.629+630.305L321.48+630.305L321.48+604.102L328.629+604.102L328.629+630.305Z" opacity="1" fill="#ffffff"/>
<path d="M350.613+609.469L344.425+609.469L344.425+630.305L337.277+630.305L337.277+609.469L333.339+609.469L333.339+606.024L337.277+604.102L337.277+602.18C337.277+599.196+338.011+597.016+339.48+595.641C340.949+594.266+343.3+593.579+346.535+593.579C349.004+593.579+351.199+593.946+353.121+594.68L351.293+599.93C349.855+599.477+348.527+599.251+347.308+599.251C346.293+599.251+345.558+599.551+345.105+600.153C344.652+600.755+344.425+601.524+344.425+602.462L344.425+604.102L350.613+604.102L350.613+609.469ZM354.41+597.329C354.41+595.001+355.707+593.837+358.3+593.837C360.894+593.837+362.191+595.001+362.191+597.329C362.191+598.438+361.867+599.301+361.218+599.919C360.57+600.536+359.597+600.844+358.3+600.844C355.707+600.844+354.41+599.673+354.41+597.329ZM361.863+630.305L354.714+630.305L354.714+604.102L361.863+604.102L361.863+630.305Z" opacity="1" fill="#ffffff"/>
<path d="M380.191+608.696C378.675+608.696+377.488+609.176+376.629+610.137C375.769+611.098+375.277+612.462+375.152+614.227L385.183+614.227C385.152+612.462+384.691+611.098+383.8+610.137C382.91+609.176+381.707+608.696+380.191+608.696ZM381.199+630.774C376.98+630.774+373.683+629.61+371.308+627.282C368.933+624.954+367.746+621.657+367.746+617.391C367.746+613.001+368.843+609.606+371.039+607.208C373.234+604.809+376.269+603.61+380.144+603.61C383.847+603.61+386.73+604.665+388.793+606.774C390.855+608.883+391.886+611.798+391.886+615.516L391.886+618.985L374.988+618.985C375.066+621.016+375.668+622.602+376.793+623.743C377.918+624.883+379.496+625.454+381.527+625.454C383.105+625.454+384.597+625.29+386.004+624.962C387.41+624.633+388.879+624.11+390.41+623.391L390.41+628.923C389.16+629.548+387.824+630.012+386.402+630.317C384.98+630.622+383.246+630.774+381.199+630.774Z" opacity="1" fill="#ffffff"/>
<path d="M412.324+603.61C413.293+603.61+414.097+603.68+414.738+603.821L414.199+610.524C413.621+610.368+412.918+610.29+412.089+610.29C409.808+610.29+408.031+610.876+406.757+612.048C405.484+613.219+404.847+614.86+404.847+616.969L404.847+630.305L397.699+630.305L397.699+604.102L403.113+604.102L404.168+608.508L404.519+608.508C405.332+607.04+406.429+605.856+407.812+604.958C409.195+604.059+410.699+603.61+412.324+603.61Z" opacity="1" fill="#ffffff"/>
<path d="M437.777+622.524C437.777+625.212+436.843+627.258+434.976+628.665C433.109+630.071+430.316+630.774+426.597+630.774C424.691+630.774+423.066+630.645+421.722+630.387C420.379+630.13+419.121+629.751+417.949+629.251L417.949+623.344C419.277+623.969+420.773+624.493+422.437+624.915C424.101+625.337+425.566+625.548+426.832+625.548C429.425+625.548+430.722+624.798+430.722+623.298C430.722+622.735+430.55+622.278+430.207+621.926C429.863+621.575+429.269+621.176+428.425+620.731C427.582+620.286+426.457+619.766+425.05+619.173C423.035+618.329+421.554+617.548+420.609+616.829C419.664+616.11+418.976+615.286+418.547+614.356C418.117+613.426+417.902+612.282+417.902+610.923C417.902+608.594+418.804+606.794+420.609+605.52C422.414+604.247+424.972+603.61+428.285+603.61C431.441+603.61+434.511+604.298+437.496+605.673L435.339+610.829C434.027+610.266+432.8+609.805+431.66+609.446C430.519+609.087+429.355+608.907+428.168+608.907C426.058+608.907+425.004+609.477+425.004+610.618C425.004+611.258+425.343+611.813+426.023+612.282C426.703+612.751+428.191+613.446+430.488+614.368C432.535+615.196+434.035+615.969+434.988+616.688C435.941+617.407+436.644+618.235+437.097+619.173C437.55+620.11+437.777+621.227+437.777+622.524Z" opacity="1" fill="#ffffff"/>
</g>
<path d="M174.049+589.046L123.741+589.046C120.963+589.046+118.71+591.299+118.71+594.076L118.71+595.753L179.08+595.753L179.08+594.076C179.08+591.299+176.827+589.046+174.049+589.046ZM118.71+630.969C118.71+633.747+120.963+636+123.741+636L174.049+636C176.827+636+179.08+633.747+179.08+630.969L179.08+599.107L118.71+599.107L118.71+630.969ZM155.603+606.654C155.603+606.192+155.98+605.815+156.441+605.815L171.534+605.815C171.995+605.815+172.372+606.192+172.372+606.654L172.372+608.33C172.372+608.792+171.995+609.169+171.534+609.169L156.441+609.169C155.98+609.169+155.603+608.792+155.603+608.33L155.603+606.654ZM155.603+613.361C155.603+612.9+155.98+612.523+156.441+612.523L171.534+612.523C171.995+612.523+172.372+612.9+172.372+613.361L172.372+615.038C172.372+615.499+171.995+615.877+171.534+615.877L156.441+615.877C155.98+615.877+155.603+615.499+155.603+615.038L155.603+613.361ZM155.603+620.069C155.603+619.608+155.98+619.231+156.441+619.231L171.534+619.231C171.995+619.231+172.372+619.608+172.372+620.069L172.372+621.746C172.372+622.207+171.995+622.585+171.534+622.585L156.441+622.585C155.98+622.585+155.603+622.207+155.603+621.746L155.603+620.069ZM137.156+605.815C140.856+605.815+143.864+608.823+143.864+612.523C143.864+616.223+140.856+619.231+137.156+619.231C133.457+619.231+130.449+616.223+130.449+612.523C130.449+608.823+133.457+605.815+137.156+605.815ZM125.743+627.217C126.623+624.523+129.149+622.585+132.126+622.585L132.985+622.585C134.274+623.119+135.679+623.423+137.156+623.423C138.634+623.423+140.049+623.119+141.328+622.585L142.187+622.585C145.164+622.585+147.69+624.523+148.57+627.217C148.905+628.255+148.025+629.292+146.935+629.292L127.378+629.292C126.288+629.292+125.407+628.244+125.743+627.217Z" opacity="1" fill="#ffffff"/>
</g>
</g>
</svg>
