<?xml version="1.0" encoding="UTF-8" standalone="no"?> <!-- Created with Vectornator for iOS (http://vectornator.io/) --><!DOCTYPE svg PUBLIC "-//W3C//DTD SVG 1.1//EN" "http://www.w3.org/Graphics/SVG/1.1/DTD/svg11.dtd">
<svg style="fill-rule:evenodd;clip-rule:evenodd;stroke-linecap:round;stroke-linejoin:round;" xmlns:vectornator="http://vectornator.io" xmlns:xlink="http://www.w3.org/1999/xlink" xmlns="http://www.w3.org/2000/svg" xml:space="preserve" version="1.1" viewBox="0 0 1000 765">
<metadata>
<vectornator:setting key="DimensionsVisible" value="1"/>
<vectornator:setting key="SnapToGrid" value="0"/>
<vectornator:setting key="SnapToPoints" value="0"/>
<vectornator:setting key="GuidesVisible" value="1"/>
<vectornator:setting key="RulersVisible" value="1"/>
<vectornator:setting key="CMYKEnabledKey" value="0"/>
<vectornator:setting key="SnapToEdges" value="0"/>
<vectornator:setting key="DisplayWhiteBackground" value="0"/>
<vectornator:setting key="SnapToGuides" value="1"/>
<vectornator:setting key="GridSpacing" value="200"/>
<vectornator:setting key="Units" value="Pixels"/>
<vectornator:setting key="DynamicGuides" value="0"/>
<vectornator:setting key="New" value="1"/>
</metadata>
<defs/>
<g id="Layer 1" vectornator:layerName="Layer 1">
<path d="M75+0L925+0C966.421+0+1000+33.5786+1000+75L1000+690.257C1000+731.678+966.421+765.257+925+765.257L75+765.257C33.5786+765.257+0+731.678+0+690.257L0+75C0+33.5786+33.5786+0+75+0Z" opacity="1" fill="#121212"/>
<g opacity="1">
<path d="M169.053+382.082L120.032+404.707C114.376+407.347+116.261+415.643+122.294+415.643L143.034+415.643L143.034+436.383C143.034+442.416+151.33+444.303+153.97+438.646L176.595+389.624C178.481+385.098+173.578+380.195+169.053+382.082Z" opacity="1" fill="#ffffff"/>
<g opacity="1">
<path d="M209.589+402.964C206.855+402.964+204.738+403.991+203.238+406.046C201.738+408.1+200.988+410.964+200.988+414.636C200.988+422.276+203.855+426.097+209.589+426.097C211.996+426.097+214.91+425.495+218.332+424.292L218.332+430.386C215.519+431.558+212.379+432.143+208.91+432.143C203.925+432.143+200.113+430.632+197.472+427.608C194.832+424.585+193.511+420.245+193.511+414.589C193.511+411.026+194.16+407.905+195.457+405.225C196.754+402.546+198.617+400.491+201.047+399.061C203.476+397.632+206.324+396.917+209.589+396.917C212.918+396.917+216.261+397.722+219.621+399.331L217.277+405.237C215.996+404.628+214.707+404.097+213.41+403.643C212.113+403.19+210.839+402.964+209.589+402.964Z" opacity="1" fill="#ffffff"/>
<path d="M230.754+418.526C230.754+421.12+231.179+423.081+232.031+424.409C232.882+425.737+234.269+426.401+236.191+426.401C238.097+426.401+239.468+425.741+240.304+424.421C241.14+423.1+241.558+421.136+241.558+418.526C241.558+415.932+241.136+413.987+240.293+412.69C239.449+411.393+238.066+410.745+236.144+410.745C234.238+410.745+232.863+411.39+232.019+412.679C231.175+413.968+230.754+415.917+230.754+418.526ZM248.871+418.526C248.871+422.792+247.746+426.128+245.496+428.534C243.246+430.94+240.113+432.143+236.097+432.143C233.582+432.143+231.363+431.593+229.441+430.491C227.519+429.39+226.043+427.808+225.011+425.745C223.98+423.682+223.464+421.276+223.464+418.526C223.464+414.245+224.582+410.917+226.816+408.542C229.05+406.167+232.191+404.979+236.238+404.979C238.754+404.979+240.972+405.526+242.894+406.62C244.816+407.714+246.293+409.284+247.324+411.331C248.355+413.378+248.871+415.776+248.871+418.526Z" opacity="1" fill="#ffffff"/>
<path d="M271.418+431.675L270.035+428.112L269.847+428.112C268.644+429.628+267.406+430.679+266.132+431.265C264.859+431.85+263.199+432.143+261.152+432.143C258.636+432.143+256.656+431.425+255.211+429.987C253.765+428.55+253.043+426.503+253.043+423.847C253.043+421.065+254.015+419.015+255.961+417.694C257.906+416.374+260.839+415.643+264.761+415.503L269.308+415.362L269.308+414.214C269.308+411.557+267.949+410.229+265.23+410.229C263.136+410.229+260.675+410.862+257.847+412.128L255.48+407.3C258.496+405.722+261.839+404.933+265.511+404.933C269.027+404.933+271.722+405.698+273.597+407.229C275.472+408.761+276.41+411.089+276.41+414.214L276.41+431.675L271.418+431.675ZM269.308+419.534L266.543+419.628C264.464+419.69+262.918+420.065+261.902+420.753C260.886+421.44+260.379+422.487+260.379+423.893C260.379+425.909+261.535+426.917+263.847+426.917C265.504+426.917+266.828+426.44+267.82+425.487C268.812+424.534+269.308+423.268+269.308+421.69L269.308+419.534Z" opacity="1" fill="#ffffff"/>
<path d="M298.394+404.979C299.363+404.979+300.168+405.05+300.808+405.19L300.269+411.893C299.691+411.737+298.988+411.659+298.16+411.659C295.879+411.659+294.101+412.245+292.828+413.417C291.554+414.589+290.918+416.229+290.918+418.339L290.918+431.675L283.769+431.675L283.769+405.472L289.183+405.472L290.238+409.878L290.589+409.878C291.402+408.409+292.5+407.225+293.882+406.327C295.265+405.429+296.769+404.979+298.394+404.979Z" opacity="1" fill="#ffffff"/>
<path d="M323.847+423.893C323.847+426.581+322.914+428.628+321.047+430.034C319.179+431.44+316.386+432.143+312.668+432.143C310.761+432.143+309.136+432.015+307.793+431.757C306.449+431.499+305.191+431.12+304.019+430.62L304.019+424.714C305.347+425.339+306.843+425.862+308.507+426.284C310.172+426.706+311.636+426.917+312.902+426.917C315.496+426.917+316.793+426.167+316.793+424.667C316.793+424.104+316.621+423.647+316.277+423.296C315.933+422.944+315.339+422.546+314.496+422.1C313.652+421.655+312.527+421.136+311.121+420.542C309.105+419.698+307.625+418.917+306.679+418.198C305.734+417.479+305.047+416.655+304.617+415.725C304.187+414.796+303.972+413.651+303.972+412.292C303.972+409.964+304.875+408.163+306.679+406.89C308.484+405.616+311.043+404.979+314.355+404.979C317.511+404.979+320.582+405.667+323.566+407.042L321.41+412.198C320.097+411.636+318.871+411.175+317.73+410.815C316.589+410.456+315.425+410.276+314.238+410.276C312.129+410.276+311.074+410.847+311.074+411.987C311.074+412.628+311.414+413.182+312.093+413.651C312.773+414.12+314.261+414.815+316.558+415.737C318.605+416.565+320.105+417.339+321.058+418.058C322.011+418.776+322.714+419.604+323.168+420.542C323.621+421.479+323.847+422.597+323.847+423.893Z" opacity="1" fill="#ffffff"/>
<path d="M340.277+410.065C338.761+410.065+337.574+410.546+336.714+411.507C335.855+412.468+335.363+413.831+335.238+415.597L345.269+415.597C345.238+413.831+344.777+412.468+343.886+411.507C342.996+410.546+341.793+410.065+340.277+410.065ZM341.285+432.143C337.066+432.143+333.769+430.979+331.394+428.651C329.019+426.323+327.832+423.026+327.832+418.761C327.832+414.37+328.929+410.975+331.125+408.577C333.32+406.179+336.355+404.979+340.23+404.979C343.933+404.979+346.816+406.034+348.879+408.143C350.941+410.253+351.972+413.167+351.972+416.886L351.972+420.354L335.074+420.354C335.152+422.386+335.754+423.972+336.879+425.112C338.004+426.253+339.582+426.823+341.613+426.823C343.191+426.823+344.683+426.659+346.089+426.331C347.496+426.003+348.964+425.479+350.496+424.761L350.496+430.292C349.246+430.917+347.91+431.382+346.488+431.686C345.066+431.991+343.332+432.143+341.285+432.143Z" opacity="1" fill="#ffffff"/>
<path d="M370.816+431.675L370.816+397.409L378.082+397.409L378.082+425.675L391.98+425.675L391.98+431.675L370.816+431.675Z" opacity="1" fill="#ffffff"/>
<path d="M403.066+418.526C403.066+421.12+403.492+423.081+404.343+424.409C405.195+425.737+406.582+426.401+408.504+426.401C410.41+426.401+411.781+425.741+412.617+424.421C413.453+423.1+413.871+421.136+413.871+418.526C413.871+415.932+413.449+413.987+412.605+412.69C411.761+411.393+410.379+410.745+408.457+410.745C406.55+410.745+405.175+411.39+404.332+412.679C403.488+413.968+403.066+415.917+403.066+418.526ZM421.183+418.526C421.183+422.792+420.058+426.128+417.808+428.534C415.558+430.94+412.425+432.143+408.41+432.143C405.894+432.143+403.675+431.593+401.754+430.491C399.832+429.39+398.355+427.808+397.324+425.745C396.293+423.682+395.777+421.276+395.777+418.526C395.777+414.245+396.894+410.917+399.129+408.542C401.363+406.167+404.504+404.979+408.55+404.979C411.066+404.979+413.285+405.526+415.207+406.62C417.129+407.714+418.605+409.284+419.636+411.331C420.668+413.378+421.183+415.776+421.183+418.526Z" opacity="1" fill="#ffffff"/>
<path d="M437.73+432.143C429.574+432.143+425.496+427.667+425.496+418.714C425.496+414.261+426.605+410.858+428.824+408.507C431.043+406.155+434.222+404.979+438.363+404.979C441.394+404.979+444.113+405.573+446.519+406.761L444.41+412.292C443.285+411.839+442.238+411.468+441.269+411.179C440.3+410.89+439.332+410.745+438.363+410.745C434.644+410.745+432.785+413.386+432.785+418.667C432.785+423.792+434.644+426.354+438.363+426.354C439.738+426.354+441.011+426.171+442.183+425.804C443.355+425.436+444.527+424.862+445.699+424.081L445.699+430.198C444.543+430.933+443.375+431.44+442.195+431.722C441.015+432.003+439.527+432.143+437.73+432.143Z" opacity="1" fill="#ffffff"/>
<path d="M468.41+431.675L467.027+428.112L466.839+428.112C465.636+429.628+464.398+430.679+463.125+431.265C461.851+431.85+460.191+432.143+458.144+432.143C455.629+432.143+453.648+431.425+452.203+429.987C450.757+428.55+450.035+426.503+450.035+423.847C450.035+421.065+451.007+419.015+452.953+417.694C454.898+416.374+457.832+415.643+461.754+415.503L466.3+415.362L466.3+414.214C466.3+411.557+464.941+410.229+462.222+410.229C460.129+410.229+457.668+410.862+454.839+412.128L452.472+407.3C455.488+405.722+458.832+404.933+462.504+404.933C466.019+404.933+468.714+405.698+470.589+407.229C472.464+408.761+473.402+411.089+473.402+414.214L473.402+431.675L468.41+431.675ZM466.3+419.534L463.535+419.628C461.457+419.69+459.91+420.065+458.894+420.753C457.879+421.44+457.371+422.487+457.371+423.893C457.371+425.909+458.527+426.917+460.839+426.917C462.496+426.917+463.82+426.44+464.812+425.487C465.804+424.534+466.3+423.268+466.3+421.69L466.3+419.534Z" opacity="1" fill="#ffffff"/>
<path d="M491.8+426.448C493.05+426.448+494.55+426.175+496.3+425.628L496.3+430.948C494.519+431.745+492.332+432.143+489.738+432.143C486.879+432.143+484.797+431.421+483.492+429.975C482.187+428.53+481.535+426.362+481.535+423.472L481.535+410.839L478.113+410.839L478.113+407.815L482.05+405.425L484.113+399.893L488.683+399.893L488.683+405.472L496.019+405.472L496.019+410.839L488.683+410.839L488.683+423.472C488.683+424.487+488.968+425.237+489.539+425.722C490.109+426.206+490.863+426.448+491.8+426.448Z" opacity="1" fill="#ffffff"/>
<path d="M501.293+398.698C501.293+396.37+502.589+395.206+505.183+395.206C507.777+395.206+509.074+396.37+509.074+398.698C509.074+399.808+508.75+400.671+508.101+401.288C507.453+401.905+506.48+402.214+505.183+402.214C502.589+402.214+501.293+401.042+501.293+398.698ZM508.746+431.675L501.597+431.675L501.597+405.472L508.746+405.472L508.746+431.675Z" opacity="1" fill="#ffffff"/>
<path d="M521.941+418.526C521.941+421.12+522.367+423.081+523.218+424.409C524.07+425.737+525.457+426.401+527.379+426.401C529.285+426.401+530.656+425.741+531.492+424.421C532.328+423.1+532.746+421.136+532.746+418.526C532.746+415.932+532.324+413.987+531.48+412.69C530.636+411.393+529.254+410.745+527.332+410.745C525.425+410.745+524.05+411.39+523.207+412.679C522.363+413.968+521.941+415.917+521.941+418.526ZM540.058+418.526C540.058+422.792+538.933+426.128+536.683+428.534C534.433+430.94+531.3+432.143+527.285+432.143C524.769+432.143+522.55+431.593+520.629+430.491C518.707+429.39+517.23+427.808+516.199+425.745C515.168+423.682+514.652+421.276+514.652+418.526C514.652+414.245+515.769+410.917+518.004+408.542C520.238+406.167+523.379+404.979+527.425+404.979C529.941+404.979+532.16+405.526+534.082+406.62C536.004+407.714+537.48+409.284+538.511+411.331C539.543+413.378+540.058+415.776+540.058+418.526Z" opacity="1" fill="#ffffff"/>
<path d="M570.152+431.675L563.004+431.675L563.004+416.37C563.004+414.479+562.668+413.061+561.996+412.116C561.324+411.171+560.254+410.698+558.785+410.698C556.785+410.698+555.339+411.366+554.449+412.702C553.558+414.038+553.113+416.253+553.113+419.347L553.113+431.675L545.964+431.675L545.964+405.472L551.425+405.472L552.386+408.823L552.785+408.823C553.582+407.557+554.679+406.6+556.078+405.952C557.476+405.304+559.066+404.979+560.847+404.979C563.894+404.979+566.207+405.804+567.785+407.452C569.363+409.1+570.152+411.479+570.152+414.589L570.152+431.675Z" opacity="1" fill="#ffffff"/>
</g>
<g opacity="1">
<path d="M222.925+494.429L222.925+516.6C222.925+519.132+222.359+521.35+221.226+523.257C220.093+525.163+218.457+526.624+216.316+527.639C214.175+528.655+211.644+529.163+208.722+529.163C204.316+529.163+200.894+528.034+198.457+525.776C196.019+523.518+194.8+520.429+194.8+516.507L194.8+494.429L202.043+494.429L202.043+515.405C202.043+518.046+202.574+519.983+203.636+521.218C204.699+522.452+206.457+523.069+208.91+523.069C211.285+523.069+213.007+522.448+214.078+521.206C215.148+519.964+215.683+518.014+215.683+515.358L215.683+494.429L222.925+494.429Z" opacity="1" fill="#ffffff"/>
<path d="M249.035+520.913C249.035+523.6+248.101+525.647+246.234+527.054C244.367+528.46+241.574+529.163+237.855+529.163C235.949+529.163+234.324+529.034+232.98+528.776C231.636+528.518+230.379+528.139+229.207+527.639L229.207+521.733C230.535+522.358+232.031+522.882+233.695+523.304C235.359+523.725+236.824+523.936+238.089+523.936C240.683+523.936+241.98+523.186+241.98+521.686C241.98+521.124+241.808+520.667+241.464+520.315C241.121+519.964+240.527+519.565+239.683+519.12C238.839+518.675+237.714+518.155+236.308+517.561C234.293+516.718+232.812+515.936+231.867+515.218C230.922+514.499+230.234+513.675+229.804+512.745C229.375+511.815+229.16+510.671+229.16+509.311C229.16+506.983+230.062+505.182+231.867+503.909C233.672+502.636+236.23+501.999+239.543+501.999C242.699+501.999+245.769+502.686+248.754+504.061L246.597+509.218C245.285+508.655+244.058+508.194+242.918+507.835C241.777+507.475+240.613+507.296+239.425+507.296C237.316+507.296+236.261+507.866+236.261+509.007C236.261+509.647+236.601+510.202+237.281+510.671C237.961+511.139+239.449+511.835+241.746+512.757C243.793+513.585+245.293+514.358+246.246+515.077C247.199+515.796+247.902+516.624+248.355+517.561C248.808+518.499+249.035+519.616+249.035+520.913Z" opacity="1" fill="#ffffff"/>
<path d="M271.254+528.694L269.871+525.132L269.683+525.132C268.48+526.647+267.242+527.698+265.968+528.284C264.695+528.87+263.035+529.163+260.988+529.163C258.472+529.163+256.492+528.444+255.047+527.007C253.601+525.569+252.879+523.522+252.879+520.866C252.879+518.085+253.851+516.034+255.797+514.714C257.742+513.393+260.675+512.663+264.597+512.522L269.144+512.382L269.144+511.233C269.144+508.577+267.785+507.249+265.066+507.249C262.972+507.249+260.511+507.882+257.683+509.147L255.316+504.319C258.332+502.741+261.675+501.952+265.347+501.952C268.863+501.952+271.558+502.718+273.433+504.249C275.308+505.78+276.246+508.108+276.246+511.233L276.246+528.694L271.254+528.694ZM269.144+516.554L266.379+516.647C264.3+516.71+262.754+517.085+261.738+517.772C260.722+518.46+260.214+519.507+260.214+520.913C260.214+522.929+261.371+523.936+263.683+523.936C265.339+523.936+266.664+523.46+267.656+522.507C268.648+521.554+269.144+520.288+269.144+518.71L269.144+516.554Z" opacity="1" fill="#ffffff"/>
<path d="M306.41+502.491L306.41+506.124L302.308+507.179C303.058+508.35+303.433+509.663+303.433+511.116C303.433+513.929+302.453+516.12+300.492+517.69C298.531+519.261+295.808+520.046+292.324+520.046L291.035+519.975L289.98+519.858C289.246+520.421+288.879+521.046+288.879+521.733C288.879+522.764+290.191+523.28+292.816+523.28L297.269+523.28C300.144+523.28+302.336+523.897+303.843+525.132C305.351+526.366+306.105+528.179+306.105+530.569C306.105+533.632+304.828+536.007+302.273+537.694C299.718+539.382+296.05+540.225+291.269+540.225C287.613+540.225+284.82+539.589+282.89+538.315C280.961+537.042+279.996+535.257+279.996+532.96C279.996+531.382+280.488+530.061+281.472+528.999C282.457+527.936+283.902+527.179+285.808+526.725C285.074+526.413+284.433+525.901+283.886+525.19C283.339+524.479+283.066+523.725+283.066+522.929C283.066+521.929+283.355+521.096+283.933+520.432C284.511+519.768+285.347+519.116+286.441+518.475C285.066+517.882+283.976+516.929+283.172+515.616C282.367+514.304+281.964+512.757+281.964+510.975C281.964+508.116+282.894+505.905+284.754+504.343C286.613+502.78+289.269+501.999+292.722+501.999C293.457+501.999+294.328+502.065+295.336+502.198C296.343+502.331+296.988+502.429+297.269+502.491L306.41+502.491ZM286.183+532.397C286.183+533.382+286.656+534.155+287.601+534.718C288.547+535.28+289.871+535.561+291.574+535.561C294.136+535.561+296.144+535.21+297.597+534.507C299.05+533.804+299.777+532.843+299.777+531.624C299.777+530.639+299.347+529.96+298.488+529.585C297.629+529.21+296.3+529.022+294.504+529.022L290.8+529.022C289.488+529.022+288.39+529.331+287.507+529.948C286.625+530.565+286.183+531.382+286.183+532.397ZM288.785+511.069C288.785+512.491+289.109+513.616+289.757+514.444C290.406+515.272+291.394+515.686+292.722+515.686C294.066+515.686+295.05+515.272+295.675+514.444C296.3+513.616+296.613+512.491+296.613+511.069C296.613+507.913+295.316+506.335+292.722+506.335C290.097+506.335+288.785+507.913+288.785+511.069Z" opacity="1" fill="#ffffff"/>
<path d="M321.574+507.085C320.058+507.085+318.871+507.565+318.011+508.526C317.152+509.487+316.66+510.85+316.535+512.616L326.566+512.616C326.535+510.85+326.074+509.487+325.183+508.526C324.293+507.565+323.089+507.085+321.574+507.085ZM322.582+529.163C318.363+529.163+315.066+527.999+312.691+525.671C310.316+523.343+309.129+520.046+309.129+515.78C309.129+511.389+310.226+507.995+312.422+505.596C314.617+503.198+317.652+501.999+321.527+501.999C325.23+501.999+328.113+503.054+330.175+505.163C332.238+507.272+333.269+510.186+333.269+513.905L333.269+517.374L316.371+517.374C316.449+519.405+317.05+520.991+318.175+522.132C319.3+523.272+320.879+523.843+322.91+523.843C324.488+523.843+325.98+523.679+327.386+523.35C328.793+523.022+330.261+522.499+331.793+521.78L331.793+527.311C330.543+527.936+329.207+528.401+327.785+528.706C326.363+529.011+324.629+529.163+322.582+529.163Z" opacity="1" fill="#ffffff"/>
<path d="M380.543+511.233C380.543+516.874+378.937+521.194+375.726+524.194C372.515+527.194+367.879+528.694+361.816+528.694L352.113+528.694L352.113+494.429L362.871+494.429C368.464+494.429+372.808+495.905+375.902+498.858C378.996+501.811+380.543+505.936+380.543+511.233ZM372.996+511.421C372.996+504.061+369.746+500.382+363.246+500.382L359.379+500.382L359.379+522.694L362.496+522.694C369.496+522.694+372.996+518.936+372.996+511.421Z" opacity="1" fill="#ffffff"/>
<path d="M403.722+528.694L402.339+525.132L402.152+525.132C400.949+526.647+399.711+527.698+398.437+528.284C397.164+528.87+395.504+529.163+393.457+529.163C390.941+529.163+388.961+528.444+387.515+527.007C386.07+525.569+385.347+523.522+385.347+520.866C385.347+518.085+386.32+516.034+388.265+514.714C390.211+513.393+393.144+512.663+397.066+512.522L401.613+512.382L401.613+511.233C401.613+508.577+400.254+507.249+397.535+507.249C395.441+507.249+392.98+507.882+390.152+509.147L387.785+504.319C390.8+502.741+394.144+501.952+397.816+501.952C401.332+501.952+404.027+502.718+405.902+504.249C407.777+505.78+408.714+508.108+408.714+511.233L408.714+528.694L403.722+528.694ZM401.613+516.554L398.847+516.647C396.769+516.71+395.222+517.085+394.207+517.772C393.191+518.46+392.683+519.507+392.683+520.913C392.683+522.929+393.839+523.936+396.152+523.936C397.808+523.936+399.132+523.46+400.125+522.507C401.117+521.554+401.613+520.288+401.613+518.71L401.613+516.554Z" opacity="1" fill="#ffffff"/>
<path d="M427.113+523.468C428.363+523.468+429.863+523.194+431.613+522.647L431.613+527.968C429.832+528.764+427.644+529.163+425.05+529.163C422.191+529.163+420.109+528.44+418.804+526.995C417.5+525.55+416.847+523.382+416.847+520.491L416.847+507.858L413.425+507.858L413.425+504.835L417.363+502.444L419.425+496.913L423.996+496.913L423.996+502.491L431.332+502.491L431.332+507.858L423.996+507.858L423.996+520.491C423.996+521.507+424.281+522.257+424.851+522.741C425.422+523.225+426.175+523.468+427.113+523.468Z" opacity="1" fill="#ffffff"/>
<path d="M453.55+528.694L452.168+525.132L451.98+525.132C450.777+526.647+449.539+527.698+448.265+528.284C446.992+528.87+445.332+529.163+443.285+529.163C440.769+529.163+438.789+528.444+437.343+527.007C435.898+525.569+435.175+523.522+435.175+520.866C435.175+518.085+436.148+516.034+438.093+514.714C440.039+513.393+442.972+512.663+446.894+512.522L451.441+512.382L451.441+511.233C451.441+508.577+450.082+507.249+447.363+507.249C445.269+507.249+442.808+507.882+439.98+509.147L437.613+504.319C440.629+502.741+443.972+501.952+447.644+501.952C451.16+501.952+453.855+502.718+455.73+504.249C457.605+505.78+458.543+508.108+458.543+511.233L458.543+528.694L453.55+528.694ZM451.441+516.554L448.675+516.647C446.597+516.71+445.05+517.085+444.035+517.772C443.019+518.46+442.511+519.507+442.511+520.913C442.511+522.929+443.668+523.936+445.98+523.936C447.636+523.936+448.961+523.46+449.953+522.507C450.945+521.554+451.441+520.288+451.441+518.71L451.441+516.554Z" opacity="1" fill="#ffffff"/>
</g>
<path d="M136.219+512.646L131.325+512.646C130.423+512.646+129.693+513.491+129.693+514.533L129.693+537.172C129.693+538.214+130.423+539.058+131.325+539.058L136.219+539.058C137.121+539.058+137.851+538.214+137.851+537.172L137.851+514.533C137.851+513.491+137.121+512.646+136.219+512.646ZM123.166+523.966L118.272+523.966C117.37+523.966+116.64+524.81+116.64+525.852L116.64+537.172C116.64+538.214+117.37+539.058+118.272+539.058L123.166+539.058C124.068+539.058+124.798+538.214+124.798+537.172L124.798+525.852C124.798+524.81+124.068+523.966+123.166+523.966ZM149.272+501.327L144.378+501.327C143.476+501.327+142.746+502.171+142.746+503.214L142.746+537.172C142.746+538.214+143.476+539.058+144.378+539.058L149.272+539.058C150.174+539.058+150.904+538.214+150.904+537.172L150.904+503.214C150.904+502.171+150.174+501.327+149.272+501.327ZM162.325+490.008L157.431+490.008C156.529+490.008+155.799+490.852+155.799+491.894L155.799+537.172C155.799+538.214+156.529+539.058+157.431+539.058L162.325+539.058C163.227+539.058+163.957+538.214+163.957+537.172L163.957+491.894C163.957+490.852+163.227+490.008+162.325+490.008ZM175.378+478.688L170.484+478.688C169.582+478.688+168.852+479.533+168.852+480.575L168.852+537.172C168.852+538.214+169.582+539.058+170.484+539.058L175.378+539.058C176.28+539.058+177.01+538.214+177.01+537.172L177.01+480.575C177.01+479.533+176.28+478.688+175.378+478.688Z" opacity="1" fill="#ffffff"/>
<g opacity="1">
<path d="M195.035+630.304L195.035+596.038L202.3+596.038L202.3+630.304L195.035+630.304Z" opacity="1" fill="#ffffff"/>
<path d="M218.66+630.772C215.582+630.772+213.164+629.577+211.406+627.186C209.648+624.796+208.769+621.483+208.769+617.249C208.769+612.952+209.664+609.604+211.453+607.206C213.242+604.808+215.707+603.608+218.847+603.608C222.144+603.608+224.66+604.89+226.394+607.452L226.629+607.452C226.269+605.499+226.089+603.757+226.089+602.226L226.089+593.835L233.261+593.835L233.261+630.304L227.777+630.304L226.394+626.905L226.089+626.905C224.464+629.483+221.988+630.772+218.66+630.772ZM221.168+625.077C222.996+625.077+224.336+624.546+225.187+623.483C226.039+622.421+226.504+620.616+226.582+618.069L226.582+617.296C226.582+614.483+226.148+612.468+225.281+611.249C224.414+610.03+223.004+609.421+221.05+609.421C219.457+609.421+218.218+610.097+217.336+611.448C216.453+612.8+216.011+614.765+216.011+617.343C216.011+619.921+216.457+621.854+217.347+623.144C218.238+624.433+219.511+625.077+221.168+625.077Z" opacity="1" fill="#ffffff"/>
<path d="M251.589+608.694C250.074+608.694+248.886+609.175+248.027+610.136C247.168+611.097+246.675+612.46+246.55+614.226L256.582+614.226C256.55+612.46+256.089+611.097+255.199+610.136C254.308+609.175+253.105+608.694+251.589+608.694ZM252.597+630.772C248.379+630.772+245.082+629.608+242.707+627.28C240.332+624.952+239.144+621.655+239.144+617.39C239.144+612.999+240.242+609.604+242.437+607.206C244.632+604.808+247.668+603.608+251.543+603.608C255.246+603.608+258.129+604.663+260.191+606.772C262.254+608.882+263.285+611.796+263.285+615.515L263.285+618.983L246.386+618.983C246.464+621.015+247.066+622.601+248.191+623.741C249.316+624.882+250.894+625.452+252.925+625.452C254.504+625.452+255.996+625.288+257.402+624.96C258.808+624.632+260.277+624.108+261.808+623.39L261.808+628.921C260.558+629.546+259.222+630.011+257.8+630.315C256.379+630.62+254.644+630.772+252.597+630.772Z" opacity="1" fill="#ffffff"/>
<path d="M293.285+630.304L286.136+630.304L286.136+614.999C286.136+613.108+285.8+611.69+285.129+610.745C284.457+609.8+283.386+609.327+281.918+609.327C279.918+609.327+278.472+609.995+277.582+611.331C276.691+612.667+276.246+614.882+276.246+617.976L276.246+630.304L269.097+630.304L269.097+604.101L274.558+604.101L275.519+607.452L275.918+607.452C276.714+606.186+277.812+605.229+279.211+604.581C280.609+603.933+282.199+603.608+283.98+603.608C287.027+603.608+289.339+604.433+290.918+606.081C292.496+607.729+293.285+610.108+293.285+613.218L293.285+630.304Z" opacity="1" fill="#ffffff"/>
<path d="M311.683+625.077C312.933+625.077+314.433+624.804+316.183+624.257L316.183+629.577C314.402+630.374+312.214+630.772+309.621+630.772C306.761+630.772+304.679+630.05+303.375+628.604C302.07+627.159+301.418+624.991+301.418+622.101L301.418+609.468L297.996+609.468L297.996+606.444L301.933+604.054L303.996+598.522L308.566+598.522L308.566+604.101L315.902+604.101L315.902+609.468L308.566+609.468L308.566+622.101C308.566+623.116+308.851+623.866+309.422+624.351C309.992+624.835+310.746+625.077+311.683+625.077Z" opacity="1" fill="#ffffff"/>
<path d="M321.175+597.327C321.175+594.999+322.472+593.835+325.066+593.835C327.66+593.835+328.957+594.999+328.957+597.327C328.957+598.436+328.632+599.3+327.984+599.917C327.336+600.534+326.363+600.843+325.066+600.843C322.472+600.843+321.175+599.671+321.175+597.327ZM328.629+630.304L321.48+630.304L321.48+604.101L328.629+604.101L328.629+630.304Z" opacity="1" fill="#ffffff"/>
<path d="M350.613+609.468L344.425+609.468L344.425+630.304L337.277+630.304L337.277+609.468L333.339+609.468L333.339+606.022L337.277+604.101L337.277+602.179C337.277+599.194+338.011+597.015+339.48+595.64C340.949+594.265+343.3+593.577+346.535+593.577C349.004+593.577+351.199+593.944+353.121+594.679L351.293+599.929C349.855+599.476+348.527+599.249+347.308+599.249C346.293+599.249+345.558+599.55+345.105+600.151C344.652+600.753+344.425+601.522+344.425+602.46L344.425+604.101L350.613+604.101L350.613+609.468ZM354.41+597.327C354.41+594.999+355.707+593.835+358.3+593.835C360.894+593.835+362.191+594.999+362.191+597.327C362.191+598.436+361.867+599.3+361.218+599.917C360.57+600.534+359.597+600.843+358.3+600.843C355.707+600.843+354.41+599.671+354.41+597.327ZM361.863+630.304L354.714+630.304L354.714+604.101L361.863+604.101L361.863+630.304Z" opacity="1" fill="#ffffff"/>
<path d="M380.191+608.694C378.675+608.694+377.488+609.175+376.629+610.136C375.769+611.097+375.277+612.46+375.152+614.226L385.183+614.226C385.152+612.46+384.691+611.097+383.8+610.136C382.91+609.175+381.707+608.694+380.191+608.694ZM381.199+630.772C376.98+630.772+373.683+629.608+371.308+627.28C368.933+624.952+367.746+621.655+367.746+617.39C367.746+612.999+368.843+609.604+371.039+607.206C373.234+604.808+376.269+603.608+380.144+603.608C383.847+603.608+386.73+604.663+388.793+606.772C390.855+608.882+391.886+611.796+391.886+615.515L391.886+618.983L374.988+618.983C375.066+621.015+375.668+622.601+376.793+623.741C377.918+624.882+379.496+625.452+381.527+625.452C383.105+625.452+384.597+625.288+386.004+624.96C387.41+624.632+388.879+624.108+390.41+623.39L390.41+628.921C389.16+629.546+387.824+630.011+386.402+630.315C384.98+630.62+383.246+630.772+381.199+630.772Z" opacity="1" fill="#ffffff"/>
<path d="M412.324+603.608C413.293+603.608+414.097+603.679+414.738+603.819L414.199+610.522C413.621+610.366+412.918+610.288+412.089+610.288C409.808+610.288+408.031+610.874+406.757+612.046C405.484+613.218+404.847+614.858+404.847+616.968L404.847+630.304L397.699+630.304L397.699+604.101L403.113+604.101L404.168+608.507L404.519+608.507C405.332+607.038+406.429+605.854+407.812+604.956C409.195+604.058+410.699+603.608+412.324+603.608Z" opacity="1" fill="#ffffff"/>
<path d="M437.777+622.522C437.777+625.21+436.843+627.257+434.976+628.663C433.109+630.069+430.316+630.772+426.597+630.772C424.691+630.772+423.066+630.644+421.722+630.386C420.379+630.128+419.121+629.749+417.949+629.249L417.949+623.343C419.277+623.968+420.773+624.491+422.437+624.913C424.101+625.335+425.566+625.546+426.832+625.546C429.425+625.546+430.722+624.796+430.722+623.296C430.722+622.733+430.55+622.276+430.207+621.925C429.863+621.573+429.269+621.175+428.425+620.729C427.582+620.284+426.457+619.765+425.05+619.171C423.035+618.327+421.554+617.546+420.609+616.827C419.664+616.108+418.976+615.284+418.547+614.354C418.117+613.425+417.902+612.28+417.902+610.921C417.902+608.593+418.804+606.792+420.609+605.519C422.414+604.245+424.972+603.608+428.285+603.608C431.441+603.608+434.511+604.296+437.496+605.671L435.339+610.827C434.027+610.265+432.8+609.804+431.66+609.444C430.519+609.085+429.355+608.905+428.168+608.905C426.058+608.905+425.004+609.476+425.004+610.616C425.004+611.257+425.343+611.811+426.023+612.28C426.703+612.749+428.191+613.444+430.488+614.366C432.535+615.194+434.035+615.968+434.988+616.686C435.941+617.405+436.644+618.233+437.097+619.171C437.55+620.108+437.777+621.226+437.777+622.522Z" opacity="1" fill="#ffffff"/>
</g>
<path d="M174.049+589.044L123.741+589.044C120.963+589.044+118.71+591.297+118.71+594.075L118.71+595.752L179.08+595.752L179.08+594.075C179.08+591.297+176.827+589.044+174.049+589.044ZM118.71+630.968C118.71+633.745+120.963+635.998+123.741+635.998L174.049+635.998C176.827+635.998+179.08+633.745+179.08+630.968L179.08+599.106L118.71+599.106L118.71+630.968ZM155.603+606.652C155.603+606.191+155.98+605.813+156.441+605.813L171.534+605.813C171.995+605.813+172.372+606.191+172.372+606.652L172.372+608.329C172.372+608.79+171.995+609.167+171.534+609.167L156.441+609.167C155.98+609.167+155.603+608.79+155.603+608.329L155.603+606.652ZM155.603+613.36C155.603+612.899+155.98+612.521+156.441+612.521L171.534+612.521C171.995+612.521+172.372+612.899+172.372+613.36L172.372+615.037C172.372+615.498+171.995+615.875+171.534+615.875L156.441+615.875C155.98+615.875+155.603+615.498+155.603+615.037L155.603+613.36ZM155.603+620.067C155.603+619.606+155.98+619.229+156.441+619.229L171.534+619.229C171.995+619.229+172.372+619.606+172.372+620.067L172.372+621.744C172.372+622.206+171.995+622.583+171.534+622.583L156.441+622.583C155.98+622.583+155.603+622.206+155.603+621.744L155.603+620.067ZM137.156+605.813C140.856+605.813+143.864+608.821+143.864+612.521C143.864+616.221+140.856+619.229+137.156+619.229C133.457+619.229+130.449+616.221+130.449+612.521C130.449+608.821+133.457+605.813+137.156+605.813ZM125.743+627.215C126.623+624.522+129.149+622.583+132.126+622.583L132.985+622.583C134.274+623.117+135.679+623.421+137.156+623.421C138.634+623.421+140.049+623.117+141.328+622.583L142.187+622.583C145.164+622.583+147.69+624.522+148.57+627.215C148.905+628.253+148.025+629.291+146.935+629.291L127.378+629.291C126.288+629.291+125.407+628.243+125.743+627.215Z" opacity="1" fill="#ffffff"/>
</g>
<g opacity="1">
<g opacity="1">
<path d="M392.051+114.656C403.931+114.656+413.589+104.998+413.589+93.1188C413.589+81.2395+403.931+71.5814+392.051+71.5814C380.172+71.5814+370.514+81.2395+370.514+93.1188C370.514+104.998+380.172+114.656+392.051+114.656ZM542.813+114.656C554.692+114.656+564.351+104.998+564.351+93.1188C564.351+81.2395+554.692+71.5814+542.813+71.5814C530.934+71.5814+521.276+81.2395+521.276+93.1188C521.276+104.998+530.934+114.656+542.813+114.656ZM553.582+125.425L532.044+125.425C526.122+125.425+520.771+127.814+516.867+131.684C530.429+139.121+540.054+152.548+542.14+168.5L564.351+168.5C570.307+168.5+575.119+163.687+575.119+157.731L575.119+146.962C575.119+135.083+565.461+125.425+553.582+125.425ZM467.432+125.425C488.263+125.425+505.123+108.565+505.123+87.7344C505.123+66.9037+488.263+50.044+467.432+50.044C446.602+50.044+429.742+66.9037+429.742+87.7344C429.742+108.565+446.602+125.425+467.432+125.425ZM493.277+136.194L490.484+136.194C483.484+139.559+475.711+141.578+467.432+141.578C459.154+141.578+451.414+139.559+444.381+136.194L441.587+136.194C420.185+136.194+402.82+153.558+402.82+174.961L402.82+184.653C402.82+193.57+410.055+200.806+418.973+200.806L515.891+200.806C524.809+200.806+532.044+193.57+532.044+184.653L532.044+174.961C532.044+153.558+514.68+136.194+493.277+136.194ZM417.997+131.684C414.094+127.814+408.743+125.425+402.82+125.425L381.283+125.425C369.404+125.425+359.745+135.083+359.745+146.962L359.745+157.731C359.745+163.687+364.558+168.5+370.514+168.5L392.691+168.5C394.811+152.548+404.435+139.121+417.997+131.684Z" opacity="1" fill="#ffffff"/>
<path d="M650.043+36.6025L650.043+79.6387C650.043+83.5986+646.83+86.8114+642.87+86.8114L580.707+86.8114C576.747+86.8114+573.534+83.5986+573.534+79.6387L573.534+36.6025C573.534+32.6426+576.747+29.4298+580.707+29.4298L593.857+29.4298L595.695+24.5135C596.741+21.7192+599.416+19.8662+602.404+19.8662L621.158+19.8662C624.147+19.8662+626.821+21.7192+627.867+24.5135L629.72+29.4298L642.87+29.4298C646.83+29.4298+650.043+32.6426+650.043+36.6025ZM629.72+58.1206C629.72+48.2283+621.681+40.1889+611.789+40.1889C601.896+40.1889+593.857+48.2283+593.857+58.1206C593.857+68.0129+601.896+76.0523+611.789+76.0523C621.681+76.0523+629.72+68.0129+629.72+58.1206ZM624.939+58.1206C624.939+65.368+619.036+71.2705+611.789+71.2705C604.541+71.2705+598.639+65.368+598.639+58.1206C598.639+50.8732+604.541+44.9707+611.789+44.9707C619.036+44.9707+624.939+50.8732+624.939+58.1206Z" opacity="1" fill="#ffffff"/>
</g>
<g opacity="1">
<path d="M192.236+247.156C192.236+254.207+190.229+259.607+186.216+263.357C182.202+267.107+176.406+268.982+168.828+268.982L156.699+268.982L156.699+226.15L170.146+226.15C177.139+226.15+182.568+227.996+186.436+231.687C190.303+235.379+192.236+240.535+192.236+247.156ZM182.803+247.39C182.803+238.191+178.74+233.591+170.615+233.591L165.781+233.591L165.781+261.482L169.678+261.482C178.428+261.482+182.803+256.785+182.803+247.39Z" opacity="1" fill="#ffffff"/>
<path d="M221.211+268.982L219.482+264.529L219.248+264.529C217.744+266.423+216.196+267.737+214.604+268.469C213.013+269.202+210.938+269.568+208.379+269.568C205.234+269.568+202.759+268.67+200.952+266.873C199.146+265.076+198.242+262.517+198.242+259.197C198.242+255.72+199.458+253.157+201.89+251.506C204.321+249.856+207.988+248.943+212.891+248.767L218.574+248.591L218.574+247.156C218.574+243.836+216.875+242.175+213.477+242.175C210.859+242.175+207.783+242.966+204.248+244.548L201.289+238.513C205.059+236.541+209.238+235.554+213.828+235.554C218.223+235.554+221.592+236.511+223.936+238.425C226.279+240.339+227.451+243.25+227.451+247.156L227.451+268.982L221.211+268.982ZM218.574+253.806L215.117+253.923C212.52+254.002+210.586+254.47+209.316+255.33C208.047+256.189+207.412+257.498+207.412+259.255C207.412+261.775+208.857+263.035+211.748+263.035C213.818+263.035+215.474+262.439+216.714+261.248C217.954+260.056+218.574+258.474+218.574+256.502L218.574+253.806Z" opacity="1" fill="#ffffff"/>
<path d="M250.449+262.449C252.012+262.449+253.887+262.107+256.074+261.423L256.074+268.074C253.848+269.07+251.113+269.568+247.871+269.568C244.297+269.568+241.694+268.665+240.063+266.858C238.433+265.051+237.617+262.341+237.617+258.728L237.617+242.937L233.34+242.937L233.34+239.158L238.262+236.17L240.84+229.255L246.553+229.255L246.553+236.228L255.723+236.228L255.723+242.937L246.553+242.937L246.553+258.728C246.553+259.998+246.909+260.935+247.622+261.541C248.335+262.146+249.277+262.449+250.449+262.449Z" opacity="1" fill="#ffffff"/>
<path d="M283.496+268.982L281.768+264.529L281.533+264.529C280.029+266.423+278.481+267.737+276.89+268.469C275.298+269.202+273.223+269.568+270.664+269.568C267.52+269.568+265.044+268.67+263.237+266.873C261.431+265.076+260.527+262.517+260.527+259.197C260.527+255.72+261.743+253.157+264.175+251.506C266.606+249.856+270.273+248.943+275.176+248.767L280.859+248.591L280.859+247.156C280.859+243.836+279.16+242.175+275.762+242.175C273.145+242.175+270.068+242.966+266.533+244.548L263.574+238.513C267.344+236.541+271.523+235.554+276.113+235.554C280.508+235.554+283.877+236.511+286.221+238.425C288.564+240.339+289.736+243.25+289.736+247.156L289.736+268.982L283.496+268.982ZM280.859+253.806L277.402+253.923C274.805+254.002+272.871+254.47+271.602+255.33C270.332+256.189+269.697+257.498+269.697+259.255C269.697+261.775+271.143+263.035+274.033+263.035C276.104+263.035+277.759+262.439+278.999+261.248C280.239+260.056+280.859+258.474+280.859+256.502L280.859+253.806Z" opacity="1" fill="#ffffff"/>
<path d="M350.088+226.15L350.088+253.865C350.088+257.029+349.38+259.802+347.964+262.185C346.548+264.568+344.502+266.394+341.826+267.664C339.15+268.933+335.986+269.568+332.334+269.568C326.826+269.568+322.549+268.157+319.502+265.335C316.455+262.512+314.932+258.65+314.932+253.748L314.932+226.15L323.984+226.15L323.984+252.371C323.984+255.671+324.648+258.093+325.977+259.636C327.305+261.179+329.502+261.951+332.568+261.951C335.537+261.951+337.69+261.174+339.028+259.622C340.366+258.069+341.035+255.632+341.035+252.312L341.035+226.15L350.088+226.15Z" opacity="1" fill="#ffffff"/>
<path d="M382.725+259.255C382.725+262.615+381.558+265.173+379.224+266.931C376.89+268.689+373.398+269.568+368.75+269.568C366.367+269.568+364.336+269.407+362.656+269.085C360.977+268.762+359.404+268.289+357.939+267.664L357.939+260.281C359.6+261.062+361.47+261.716+363.55+262.244C365.63+262.771+367.461+263.035+369.043+263.035C372.285+263.035+373.906+262.097+373.906+260.222C373.906+259.519+373.691+258.948+373.262+258.508C372.832+258.069+372.09+257.571+371.035+257.014C369.98+256.458+368.574+255.808+366.816+255.066C364.297+254.011+362.446+253.035+361.265+252.136C360.083+251.238+359.224+250.208+358.687+249.045C358.149+247.883+357.881+246.453+357.881+244.754C357.881+241.843+359.009+239.592+361.265+238.001C363.521+236.409+366.719+235.613+370.859+235.613C374.805+235.613+378.643+236.472+382.373+238.191L379.678+244.636C378.037+243.933+376.504+243.357+375.078+242.908C373.652+242.459+372.197+242.234+370.713+242.234C368.076+242.234+366.758+242.947+366.758+244.373C366.758+245.173+367.183+245.867+368.032+246.453C368.882+247.039+370.742+247.908+373.613+249.06C376.172+250.095+378.047+251.062+379.238+251.961C380.43+252.859+381.309+253.894+381.875+255.066C382.441+256.238+382.725+257.634+382.725+259.255Z" opacity="1" fill="#ffffff"/>
<path d="M403.262+241.97C401.367+241.97+399.883+242.571+398.809+243.772C397.734+244.973+397.119+246.677+396.963+248.884L409.502+248.884C409.463+246.677+408.887+244.973+407.773+243.772C406.66+242.571+405.156+241.97+403.262+241.97ZM404.521+269.568C399.248+269.568+395.127+268.113+392.158+265.203C389.189+262.293+387.705+258.171+387.705+252.839C387.705+247.351+389.077+243.108+391.821+240.11C394.565+237.112+398.359+235.613+403.203+235.613C407.832+235.613+411.436+236.931+414.014+239.568C416.592+242.205+417.881+245.847+417.881+250.496L417.881+254.832L396.758+254.832C396.855+257.371+397.607+259.353+399.014+260.779C400.42+262.205+402.393+262.918+404.932+262.918C406.904+262.918+408.77+262.712+410.527+262.302C412.285+261.892+414.121+261.238+416.035+260.339L416.035+267.254C414.473+268.035+412.803+268.616+411.025+268.997C409.248+269.378+407.08+269.568+404.521+269.568Z" opacity="1" fill="#ffffff"/>
<path d="M435.518+269.568C431.67+269.568+428.647+268.074+426.45+265.086C424.253+262.097+423.154+257.957+423.154+252.664C423.154+247.293+424.272+243.108+426.509+240.11C428.745+237.112+431.826+235.613+435.752+235.613C439.873+235.613+443.018+237.214+445.186+240.418L445.479+240.418C445.029+237.976+444.805+235.798+444.805+233.884L444.805+223.396L453.77+223.396L453.77+268.982L446.914+268.982L445.186+264.734L444.805+264.734C442.773+267.957+439.678+269.568+435.518+269.568ZM438.652+262.449C440.938+262.449+442.612+261.785+443.677+260.457C444.741+259.129+445.322+256.873+445.42+253.689L445.42+252.722C445.42+249.207+444.878+246.687+443.794+245.164C442.71+243.64+440.947+242.879+438.506+242.879C436.514+242.879+434.966+243.723+433.862+245.413C432.759+247.102+432.207+249.558+432.207+252.781C432.207+256.004+432.764+258.42+433.877+260.032C434.99+261.643+436.582+262.449+438.652+262.449Z" opacity="1" fill="#ffffff"/>
<path d="M492.5+262.449C494.063+262.449+495.937+262.107+498.125+261.423L498.125+268.074C495.898+269.07+493.164+269.568+489.922+269.568C486.348+269.568+483.745+268.665+482.114+266.858C480.483+265.051+479.668+262.341+479.668+258.728L479.668+242.937L475.391+242.937L475.391+239.158L480.312+236.17L482.891+229.255L488.604+229.255L488.604+236.228L497.773+236.228L497.773+242.937L488.604+242.937L488.604+258.728C488.604+259.998+488.96+260.935+489.673+261.541C490.386+262.146+491.328+262.449+492.5+262.449Z" opacity="1" fill="#ffffff"/>
<path d="M511.865+252.546C511.865+255.789+512.397+258.24+513.462+259.9C514.526+261.56+516.26+262.39+518.662+262.39C521.045+262.39+522.759+261.565+523.804+259.915C524.849+258.264+525.371+255.808+525.371+252.546C525.371+249.304+524.844+246.873+523.789+245.252C522.734+243.63+521.006+242.82+518.604+242.82C516.221+242.82+514.502+243.626+513.447+245.237C512.393+246.848+511.865+249.285+511.865+252.546ZM534.512+252.546C534.512+257.879+533.105+262.048+530.293+265.056C527.48+268.064+523.564+269.568+518.545+269.568C515.4+269.568+512.627+268.879+510.225+267.503C507.822+266.126+505.977+264.148+504.688+261.57C503.398+258.992+502.754+255.984+502.754+252.546C502.754+247.195+504.15+243.035+506.943+240.066C509.736+237.097+513.662+235.613+518.721+235.613C521.865+235.613+524.639+236.296+527.041+237.664C529.443+239.031+531.289+240.994+532.578+243.552C533.867+246.111+534.512+249.109+534.512+252.546Z" opacity="1" fill="#ffffff"/>
<path d="M574.707+268.982L565.625+268.982L565.625+233.709L553.994+233.709L553.994+226.15L586.338+226.15L586.338+233.709L574.707+233.709L574.707+268.982Z" opacity="1" fill="#ffffff"/>
<path d="M610.508+235.613C611.719+235.613+612.725+235.701+613.525+235.877L612.852+244.255C612.129+244.06+611.25+243.962+610.215+243.962C607.363+243.962+605.142+244.695+603.55+246.16C601.958+247.625+601.162+249.675+601.162+252.312L601.162+268.982L592.227+268.982L592.227+236.228L598.994+236.228L600.312+241.736L600.752+241.736C601.768+239.9+603.14+238.42+604.868+237.297C606.597+236.174+608.477+235.613+610.508+235.613Z" opacity="1" fill="#ffffff"/>
<path d="M640.273+268.982L638.545+264.529L638.311+264.529C636.807+266.423+635.259+267.737+633.667+268.469C632.075+269.202+630+269.568+627.441+269.568C624.297+269.568+621.821+268.67+620.015+266.873C618.208+265.076+617.305+262.517+617.305+259.197C617.305+255.72+618.521+253.157+620.952+251.506C623.384+249.856+627.051+248.943+631.953+248.767L637.637+248.591L637.637+247.156C637.637+243.836+635.938+242.175+632.539+242.175C629.922+242.175+626.846+242.966+623.311+244.548L620.352+238.513C624.121+236.541+628.301+235.554+632.891+235.554C637.285+235.554+640.654+236.511+642.998+238.425C645.342+240.339+646.514+243.25+646.514+247.156L646.514+268.982L640.273+268.982ZM637.637+253.806L634.18+253.923C631.582+254.002+629.648+254.47+628.379+255.33C627.109+256.189+626.475+257.498+626.475+259.255C626.475+261.775+627.92+263.035+630.811+263.035C632.881+263.035+634.536+262.439+635.776+261.248C637.017+260.056+637.637+258.474+637.637+256.502L637.637+253.806Z" opacity="1" fill="#ffffff"/>
<path d="M669.014+269.568C658.818+269.568+653.721+263.972+653.721+252.781C653.721+247.214+655.107+242.962+657.881+240.022C660.654+237.083+664.629+235.613+669.805+235.613C673.594+235.613+676.992+236.355+680+237.839L677.363+244.754C675.957+244.187+674.648+243.723+673.438+243.362C672.227+243.001+671.016+242.82+669.805+242.82C665.156+242.82+662.832+246.121+662.832+252.722C662.832+259.129+665.156+262.332+669.805+262.332C671.523+262.332+673.115+262.102+674.58+261.643C676.045+261.184+677.51+260.466+678.975+259.49L678.975+267.136C677.529+268.054+676.069+268.689+674.595+269.041C673.12+269.392+671.26+269.568+669.014+269.568Z" opacity="1" fill="#ffffff"/>
<path d="M695.146+251.17L699.043+246.189L708.213+236.228L718.291+236.228L705.283+250.437L719.082+268.982L708.77+268.982L699.336+255.711L695.498+258.787L695.498+268.982L686.562+268.982L686.562+223.396L695.498+223.396L695.498+243.728L695.029+251.17L695.146+251.17Z" opacity="1" fill="#ffffff"/>
<path d="M753.389+243.787L762.324+226.15L772.109+226.15L757.9+252.312L757.9+268.982L748.877+268.982L748.877+252.605L734.668+226.15L744.512+226.15L753.389+243.787Z" opacity="1" fill="#ffffff"/>
<path d="M783.916+252.546C783.916+255.789+784.448+258.24+785.513+259.9C786.577+261.56+788.311+262.39+790.713+262.39C793.096+262.39+794.81+261.565+795.854+259.915C796.899+258.264+797.422+255.808+797.422+252.546C797.422+249.304+796.895+246.873+795.84+245.252C794.785+243.63+793.057+242.82+790.654+242.82C788.271+242.82+786.553+243.626+785.498+245.237C784.443+246.848+783.916+249.285+783.916+252.546ZM806.562+252.546C806.562+257.879+805.156+262.048+802.344+265.056C799.531+268.064+795.615+269.568+790.596+269.568C787.451+269.568+784.678+268.879+782.275+267.503C779.873+266.126+778.027+264.148+776.738+261.57C775.449+258.992+774.805+255.984+774.805+252.546C774.805+247.195+776.201+243.035+778.994+240.066C781.787+237.097+785.713+235.613+790.771+235.613C793.916+235.613+796.689+236.296+799.092+237.664C801.494+239.031+803.34+240.994+804.629+243.552C805.918+246.111+806.562+249.109+806.562+252.546Z" opacity="1" fill="#ffffff"/>
<path d="M837.148+268.982L835.947+264.793L835.479+264.793C834.521+266.316+833.164+267.493+831.406+268.323C829.648+269.153+827.646+269.568+825.4+269.568C821.553+269.568+818.652+268.538+816.699+266.477C814.746+264.417+813.77+261.453+813.77+257.586L813.77+236.228L822.705+236.228L822.705+255.359C822.705+257.722+823.125+259.495+823.965+260.676C824.805+261.858+826.143+262.449+827.979+262.449C830.479+262.449+832.285+261.614+833.398+259.944C834.512+258.274+835.068+255.505+835.068+251.638L835.068+236.228L844.004+236.228L844.004+268.982L837.148+268.982Z" opacity="1" fill="#ffffff"/>
</g>
</g>
</g>
</svg>
