<?xml version="1.0" encoding="UTF-8" standalone="no"?> <!-- Created with Vectornator for iOS (http://vectornator.io/) --><!DOCTYPE svg PUBLIC "-//W3C//DTD SVG 1.1//EN" "http://www.w3.org/Graphics/SVG/1.1/DTD/svg11.dtd">
<svg style="fill-rule:evenodd;clip-rule:evenodd;stroke-linecap:round;stroke-linejoin:round;" xmlns:vectornator="http://vectornator.io" xmlns:xlink="http://www.w3.org/1999/xlink" xmlns="http://www.w3.org/2000/svg" xml:space="preserve" version="1.1" viewBox="0 0 4000 2000">
<metadata>
<vectornator:setting key="DisplayWhiteBackground" value="0"/>
<vectornator:setting key="RulersVisible" value="1"/>
<vectornator:setting key="SnapToEdges" value="0"/>
<vectornator:setting key="Units" value="Pixels"/>
<vectornator:setting key="DynamicGuides" value="0"/>
<vectornator:setting key="SnapToPoints" value="0"/>
<vectornator:setting key="CMYKEnabledKey" value="0"/>
<vectornator:setting key="SnapToGrid" value="0"/>
<vectornator:setting key="SnapToGuides" value="1"/>
<vectornator:setting key="ShowGrid" value="1"/>
<vectornator:setting key="GridSpacing" value="60"/>
</metadata>
<defs/>
<g id="Layer 1" vectornator:layerName="Layer 1">
<path d="M0+0L4000+0L4000+2000L0+2000L0+0Z" opacity="1" fill="#ff8100"/>
<g opacity="1">
<path d="M1572.98+387.289L1591.56+387.289C1603.3+387.289+1610.57+381.234+1610.57+371.56C1610.57+364.285+1605.09+358.839+1597.62+358.268L1597.62+357.963C1603.45+357.087+1607.94+352.06+1607.94+346.042C1607.94+337.625+1601.47+332.331+1591.15+332.331L1572.98+332.331C1569.36+332.331+1567.23+334.54+1567.23+338.311L1567.23+381.272C1567.23+385.08+1569.36+387.289+1572.98+387.289ZM1578.73+355.183L1578.73+340.901L1588.18+340.901C1593.55+340.901+1596.63+343.414+1596.63+347.832C1596.63+352.479+1593.13+355.183+1586.99+355.183L1578.73+355.183ZM1578.73+378.72L1578.73+362.762L1588.37+362.762C1595.14+362.762+1598.84+365.504+1598.84+370.646C1598.84+375.902+1595.26+378.72+1588.63+378.72L1578.73+378.72Z" opacity="1" fill="#ffdfb1"/>
<path d="M1623.1+402.409C1632.05+402.409+1636.77+398.525+1640.58+387.975L1653.11+353.926C1653.49+352.86+1653.72+351.565+1653.72+350.651C1653.72+347.718+1651.51+345.623+1648.31+345.623C1645.46+345.623+1643.86+346.956+1642.94+350.041L1634.07+378.377L1633.88+378.377L1625+350.117C1624.09+346.88+1622.57+345.623+1619.63+345.623C1616.36+345.623+1613.88+347.794+1613.88+350.803C1613.88+351.717+1614.11+352.936+1614.53+354.078L1627.56+388.432L1626.98+389.879C1625.65+392.735+1623.56+393.573+1621.61+393.573C1620.85+393.573+1620.43+393.535+1619.67+393.535C1617.16+393.535+1615.6+394.944+1615.6+397.192C1615.6+400.543+1618.22+402.409+1623.1+402.409Z" opacity="1" fill="#ffdfb1"/>
<path d="M1695.01+388.203C1708.72+388.203+1717.13+381.424+1717.13+370.684C1717.13+362.343+1712.11+357.658+1700.45+355.335L1694.66+354.154C1688.15+352.86+1685.52+350.765+1685.52+347.375C1685.52+343.338+1689.29+340.672+1694.97+340.672C1699.69+340.672+1703.23+342.386+1705.06+346.537C1706.36+348.899+1707.96+349.927+1710.55+349.927C1713.48+349.927+1715.46+348.061+1715.46+345.319C1715.46+344.328+1715.31+343.528+1715.04+342.767C1712.6+335.607+1705.02+331.379+1694.97+331.379C1682.74+331.379+1673.98+338.044+1673.98+348.099C1673.98+356.287+1679.35+361.543+1690.32+363.714L1696.15+364.857C1703.04+366.266+1705.63+368.322+1705.63+371.941C1705.63+375.978+1701.44+378.948+1695.27+378.948C1690.02+378.948+1685.71+377.044+1683.92+372.855C1682.55+370.417+1680.99+369.503+1678.63+369.503C1675.66+369.503+1673.56+371.522+1673.56+374.569C1673.56+375.597+1673.79+376.663+1674.17+377.653C1676.38+383.671+1683.66+388.203+1695.01+388.203Z" opacity="1" fill="#ffdfb1"/>
<path d="M1729.02+388.089C1732.29+388.089+1734.58+386.109+1734.58+382.3L1734.58+374.035L1738.12+370.76L1748.59+384.623C1750.35+387.251+1751.68+388.089+1754.04+388.089C1757.16+388.089+1759.33+386.032+1759.33+383.062C1759.33+381.614+1758.99+380.624+1757.77+378.986L1746.38+364.476L1756.78+354.65C1758.38+353.164+1758.88+352.136+1758.88+350.46C1758.88+347.718+1756.78+345.623+1753.93+345.623C1752.25+345.623+1750.99+346.271+1749.51+347.832L1734.73+362.648L1734.58+362.648L1734.58+337.32C1734.58+333.512+1732.29+331.493+1729.02+331.493C1725.78+331.493+1723.46+333.512+1723.46+337.32L1723.46+382.3C1723.46+386.109+1725.78+388.089+1729.02+388.089Z" opacity="1" fill="#ffdfb1"/>
<path d="M1772.09+402.409C1781.04+402.409+1785.77+398.525+1789.57+387.975L1802.1+353.926C1802.48+352.86+1802.71+351.565+1802.71+350.651C1802.71+347.718+1800.5+345.623+1797.31+345.623C1794.45+345.623+1792.85+346.956+1791.93+350.041L1783.06+378.377L1782.87+378.377L1774+350.117C1773.08+346.88+1771.56+345.623+1768.63+345.623C1765.35+345.623+1762.88+347.794+1762.88+350.803C1762.88+351.717+1763.1+352.936+1763.52+354.078L1776.55+388.432L1775.98+389.879C1774.64+392.735+1772.55+393.573+1770.61+393.573C1769.85+393.573+1769.43+393.535+1768.66+393.535C1766.15+393.535+1764.59+394.944+1764.59+397.192C1764.59+400.543+1767.22+402.409+1772.09+402.409Z" opacity="1" fill="#ffdfb1"/>
<path d="M1813.34+388.089C1816.61+388.089+1818.9+386.109+1818.9+382.3L1818.9+337.32C1818.9+333.512+1816.61+331.493+1813.34+331.493C1810.1+331.493+1807.78+333.512+1807.78+337.32L1807.78+382.3C1807.78+386.109+1810.1+388.089+1813.34+388.089Z" opacity="1" fill="#ffdfb1"/>
<path d="M1838.48+387.937C1843.58+387.937+1848.68+385.385+1850.97+381.043L1851.2+381.043L1851.2+383.138C1851.43+386.413+1853.52+388.089+1856.53+388.089C1859.69+388.089+1861.94+386.185+1861.94+382.49L1861.94+359.22C1861.94+350.993+1855.12+345.585+1844.65+345.585C1836.19+345.585+1829.64+348.594+1827.74+353.469C1827.35+354.307+1827.16+355.107+1827.16+355.983C1827.16+358.496+1829.11+360.248+1831.81+360.248C1833.6+360.248+1835.01+359.563+1836.23+358.192C1838.7+354.992+1840.76+353.888+1844.15+353.888C1848.34+353.888+1851.01+356.097+1851.01+359.905L1851.01+362.61L1840.72+363.219C1830.52+363.828+1824.8+368.132+1824.8+375.559C1824.8+382.909+1830.71+387.937+1838.48+387.937ZM1842.13+379.901C1838.4+379.901+1835.89+377.996+1835.89+374.949C1835.89+372.055+1838.25+370.189+1842.4+369.884L1851.01+369.351L1851.01+372.321C1851.01+376.739+1847.01+379.901+1842.13+379.901Z" opacity="1" fill="#ffdfb1"/>
<path d="M1874.66+388.089C1878.05+388.089+1880.22+385.994+1880.22+382.3L1880.22+364.171C1880.22+359.334+1882.01+356.478+1887.07+356.402C1889.24+356.363+1890.84+355.868+1891.91+354.954C1892.98+354.04+1893.51+352.707+1893.51+350.955C1893.51+349.051+1892.98+347.68+1891.91+346.842C1891.11+346.156+1889.93+345.814+1888.44+345.814C1884.37+345.814+1881.02+348.822+1879.95+353.888L1879.72+353.888L1879.72+351.222C1879.72+347.68+1877.59+345.623+1874.47+345.623C1871.27+345.623+1869.1+347.68+1869.1+351.222L1869.1+382.3C1869.1+385.994+1871.31+388.089+1874.66+388.089Z" opacity="1" fill="#ffdfb1"/>
<path d="M1918.99+388.013C1922.23+388.013+1924.09+386.032+1924.09+382.643L1924.09+350.194L1924.4+350.194L1937.99+383.481C1938.95+385.842+1940.55+386.946+1942.98+386.946C1945.38+386.946+1946.91+385.88+1947.9+383.443L1961.49+350.194L1961.8+350.194L1961.8+382.643C1961.8+386.032+1963.66+388.013+1966.9+388.013C1970.14+388.013+1972.04+386.032+1972.04+382.643L1972.04+338.996C1972.04+334.312+1969.3+331.569+1964.65+331.569C1960.62+331.569+1958.37+333.283+1956.69+337.511L1943.1+371.293L1942.79+371.293L1929.16+337.511C1927.48+333.245+1925.27+331.569+1921.27+331.569C1916.59+331.569+1913.85+334.35+1913.85+338.996L1913.85+382.643C1913.85+386.032+1915.75+388.013+1918.99+388.013Z" opacity="1" fill="#ffdfb1"/>
<path d="M1998.86+388.165C2006.66+388.165+2013.63+384.28+2016.07+378.72C2016.57+377.615+2016.79+376.701+2016.79+375.825C2016.79+373.083+2014.7+371.369+2012.11+371.369C2009.75+371.369+2008.53+372.321+2007.04+374.645C2005.33+377.539+2002.93+379.444+1999.05+379.444C1993.49+379.444+1990.02+374.873+1990.02+366.837C1990.02+358.953+1993.49+354.307+1999.12+354.307C2002.66+354.307+2005.14+355.944+2007.16+359.525C2008.3+361.543+2009.63+362.419+2011.84+362.419C2014.47+362.419+2016.6+360.819+2016.6+358.077C2016.6+357.277+2016.38+356.287+2015.99+355.335C2013.79+349.546+2006.97+345.585+1998.78+345.585C1986.52+345.585+1978.75+353.812+1978.75+366.875C1978.75+380.091+1986.55+388.165+1998.86+388.165Z" opacity="1" fill="#ffdfb1"/>
<path d="M2048.18+388.203C2058.57+388.203+2066.76+383.519+2070.19+375.902C2070.76+374.569+2071.07+373.35+2071.07+372.055C2071.07+369.008+2068.93+366.951+2065.7+366.951C2063.26+366.951+2061.81+367.98+2060.63+370.569C2058.16+376.092+2053.81+378.72+2048.02+378.72C2039.23+378.72+2033.7+371.484+2033.7+359.753C2033.7+348.175+2039.3+340.901+2047.99+340.901C2053.47+340.901+2057.97+343.719+2060.48+349.318C2061.74+351.984+2063.37+353.126+2065.96+353.126C2069.01+353.126+2071.03+351.184+2071.03+348.175C2071.03+346.804+2070.65+345.319+2069.89+343.871C2066.12+335.949+2058.16+331.379+2047.87+331.379C2032.07+331.379+2021.97+342.081+2021.97+359.791C2021.97+377.539+2031.88+388.203+2048.18+388.203Z" opacity="1" fill="#ffdfb1"/>
<path d="M2090.19+387.937C2095.29+387.937+2100.39+385.385+2102.68+381.043L2102.91+381.043L2102.91+383.138C2103.14+386.413+2105.23+388.089+2108.24+388.089C2111.4+388.089+2113.65+386.185+2113.65+382.49L2113.65+359.22C2113.65+350.993+2106.83+345.585+2096.36+345.585C2087.9+345.585+2081.35+348.594+2079.45+353.469C2079.06+354.307+2078.87+355.107+2078.87+355.983C2078.87+358.496+2080.82+360.248+2083.52+360.248C2085.31+360.248+2086.72+359.563+2087.94+358.192C2090.41+354.992+2092.47+353.888+2095.86+353.888C2100.05+353.888+2102.72+356.097+2102.72+359.905L2102.72+362.61L2092.43+363.219C2082.23+363.828+2076.51+368.132+2076.51+375.559C2076.51+382.909+2082.42+387.937+2090.19+387.937ZM2093.84+379.901C2090.11+379.901+2087.6+377.996+2087.6+374.949C2087.6+372.055+2089.96+370.189+2094.11+369.884L2102.72+369.351L2102.72+372.321C2102.72+376.739+2098.72+379.901+2093.84+379.901Z" opacity="1" fill="#ffdfb1"/>
<path d="M2135.32+388.051C2141.49+388.051+2145.52+385.08+2147.54+379.939L2147.77+379.939L2147.77+382.452C2147.77+386.147+2149.94+388.089+2153.14+388.089C2156.34+388.089+2158.51+386.147+2158.51+382.452L2158.51+351.45C2158.51+347.642+2156.23+345.623+2152.95+345.623C2149.71+345.623+2147.39+347.642+2147.39+351.45L2147.39+369.846C2147.39+375.254+2144.31+378.796+2139.35+378.796C2134.44+378.796+2131.74+375.902+2131.74+370.455L2131.74+351.45C2131.74+347.642+2129.45+345.623+2126.18+345.623C2122.94+345.623+2120.62+347.642+2120.62+351.45L2120.62+372.778C2120.62+382.3+2126.48+388.051+2135.32+388.051Z" opacity="1" fill="#ffdfb1"/>
<path d="M2171.58+388.089C2174.85+388.089+2177.14+386.109+2177.14+382.3L2177.14+337.32C2177.14+333.512+2174.85+331.493+2171.58+331.493C2168.34+331.493+2166.02+333.512+2166.02+337.32L2166.02+382.3C2166.02+386.109+2168.34+388.089+2171.58+388.089Z" opacity="1" fill="#ffdfb1"/>
<path d="M2203.42+388.165C2211.3+388.165+2217.62+385.194+2220.33+380.167C2220.82+379.253+2221.09+378.339+2221.09+377.463C2221.09+374.911+2219.14+373.388+2216.75+373.388C2215.3+373.388+2214.31+373.807+2213.13+375.026C2210.12+378.568+2207.45+379.939+2203.38+379.939C2197.74+379.939+2194.08+375.978+2194.08+369.922L2194.08+369.427L2217.39+369.427C2220.48+369.427+2222.23+367.675+2222.23+364.59C2222.23+353.507+2214.46+345.585+2202.88+345.585C2190.81+345.585+2183.15+353.926+2183.15+367.066C2183.15+380.281+2190.66+388.165+2203.42+388.165ZM2194.2+362.61C2194.58+357.392+2198.12+353.812+2203+353.812C2207.87+353.812+2211.3+357.277+2211.53+362.61L2194.2+362.61Z" opacity="1" fill="#ffdfb1"/>
<path d="M2234.3+402.409C2243.25+402.409+2247.98+398.525+2251.78+387.975L2264.31+353.926C2264.7+352.86+2264.92+351.565+2264.92+350.651C2264.92+347.718+2262.72+345.623+2259.52+345.623C2256.66+345.623+2255.06+346.956+2254.15+350.041L2245.27+378.377L2245.08+378.377L2236.21+350.117C2235.29+346.88+2233.77+345.623+2230.84+345.623C2227.56+345.623+2225.09+347.794+2225.09+350.803C2225.09+351.717+2225.31+352.936+2225.73+354.078L2238.76+388.432L2238.19+389.879C2236.85+392.735+2234.76+393.573+2232.82+393.573C2232.06+393.573+2231.64+393.535+2230.88+393.535C2228.36+393.535+2226.8+394.944+2226.8+397.192C2226.8+400.543+2229.43+402.409+2234.3+402.409Z" opacity="1" fill="#ffdfb1"/>
</g>
<g opacity="1">
<path d="M1642.8+313.709C1695.54+313.709+1727.91+287.635+1727.91+246.326C1727.91+214.246+1708.58+196.228+1663.75+187.293L1641.49+182.752C1616.44+177.771+1606.33+169.715+1606.33+156.678C1606.33+141.15+1620.83+130.896+1642.66+130.896C1660.82+130.896+1674.44+137.488+1681.48+153.455C1686.46+162.537+1692.61+166.492+1702.57+166.492C1713.85+166.492+1721.47+159.314+1721.47+148.767C1721.47+144.959+1720.88+141.883+1719.85+138.953C1710.48+111.414+1681.33+95.1542+1642.66+95.1542C1595.64+95.1542+1561.94+120.789+1561.94+159.461C1561.94+190.955+1582.6+211.17+1624.79+219.519L1647.2+223.914C1673.71+229.334+1683.67+237.244+1683.67+251.16C1683.67+266.687+1667.56+278.113+1643.83+278.113C1623.61+278.113+1607.06+270.789+1600.18+254.676C1594.9+245.301+1588.9+241.785+1579.82+241.785C1568.39+241.785+1560.33+249.549+1560.33+261.267C1560.33+265.223+1561.21+269.324+1562.68+273.133C1571.17+296.277+1599.15+313.709+1642.8+313.709Z" opacity="1" fill="#ffdfb1"/>
<path d="M1807.01+313.123C1830.74+313.123+1846.27+301.697+1854.03+281.922L1854.91+281.922L1854.91+291.59C1854.91+305.799+1863.26+313.269+1875.57+313.269C1887.87+313.269+1896.22+305.799+1896.22+291.59L1896.22+172.351C1896.22+157.703+1887.43+149.939+1874.84+149.939C1862.38+149.939+1853.45+157.703+1853.45+172.351L1853.45+243.103C1853.45+263.904+1841.58+277.527+1822.54+277.527C1803.64+277.527+1793.24+266.394+1793.24+245.447L1793.24+172.351C1793.24+157.703+1784.45+149.939+1771.86+149.939C1759.41+149.939+1750.47+157.703+1750.47+172.351L1750.47+254.383C1750.47+291.004+1773.03+313.123+1807.01+313.123Z" opacity="1" fill="#ffdfb1"/>
<path d="M1945.44+313.269C1958.04+313.269+1966.83+305.652+1966.83+291.004L1966.83+220.105C1966.83+199.744+1978.99+185.682+1998.18+185.682C2017.36+185.682+2027.03+197.4+2027.03+217.908L2027.03+291.004C2027.03+305.652+2035.82+313.269+2048.42+313.269C2060.87+313.269+2069.81+305.652+2069.81+291.004L2069.81+208.973C2069.81+172.205+2050.18+150.232+2015.31+150.232C1991.14+150.232+1975.32+160.926+1966.97+180.408L1966.09+180.408L1966.09+171.619C1966.09+158.142+1957.6+149.939+1944.71+149.939C1931.82+149.939+1924.05+158.142+1924.05+171.473L1924.05+291.004C1924.05+305.652+1932.99+313.269+1945.44+313.269Z" opacity="1" fill="#ffdfb1"/>
<path d="M2160.92+313.562C2202.37+313.562+2230.35+293.348+2230.35+262.146C2230.35+238.709+2216.58+226.404+2183.18+219.373L2157.26+213.807C2141.58+210.437+2135.43+205.017+2135.43+196.814C2135.43+186.707+2145.54+179.822+2160.04+179.822C2175.42+179.822+2183.92+187.146+2191.39+196.668C2195.2+201.209+2201.35+203.26+2206.92+203.26C2217.9+203.26+2223.32+197.254+2223.32+188.611C2223.32+186.56+2222.88+184.51+2222.3+182.312C2217.17+164.588+2193.29+149.793+2160.77+149.793C2120.05+149.793+2094.12+169.129+2094.12+199.158C2094.12+222.449+2109.65+238.123+2140.41+244.715L2166.78+250.281C2182.16+253.65+2187.58+258.191+2187.58+266.687C2187.58+277.088+2177.47+283.533+2161.94+283.533C2145.68+283.533+2136.02+278.553+2127.67+267.566C2121.81+260.975+2115.95+257.898+2109.06+257.898C2099.1+257.898+2091.78+264.49+2091.78+274.305C2091.78+276.648+2092.36+279.432+2093.39+282.215C2100.86+300.672+2124.88+313.562+2160.92+313.562Z" opacity="1" fill="#ffdfb1"/>
<path d="M2323.66+313.562C2353.99+313.562+2378.3+302.137+2388.7+282.801C2390.61+279.285+2391.63+275.769+2391.63+272.4C2391.63+262.586+2384.16+256.726+2374.93+256.726C2369.37+256.726+2365.56+258.338+2361.02+263.025C2349.44+276.648+2339.19+281.922+2323.52+281.922C2301.84+281.922+2287.77+266.687+2287.77+243.396L2287.77+241.492L2377.42+241.492C2389.29+241.492+2396.03+234.754+2396.03+222.889C2396.03+180.262+2366.14+149.793+2321.61+149.793C2275.18+149.793+2245.73+181.873+2245.73+232.41C2245.73+283.24+2274.59+313.562+2323.66+313.562ZM2288.21+215.271C2289.68+195.203+2303.3+181.433+2322.05+181.433C2340.8+181.433+2353.99+194.764+2354.86+215.271L2288.21+215.271Z" opacity="1" fill="#ffdfb1"/>
<path d="M2429.43+270.057C2429.43+297.742+2443.93+311.951+2472.49+311.951L2473.96+311.951C2491.97+311.951+2504.28+305.506+2504.28+292.908C2504.28+282.947+2498.57+278.553+2488.02+277.381L2485.24+277.088C2476.01+276.355+2472.2+271.668+2472.2+260.535L2472.2+185.389L2487.29+185.389C2497.39+185.389+2503.69+179.09+2503.69+169.275C2503.69+159.461+2497.39+153.162+2487.29+153.162L2472.2+153.162L2472.2+135.73C2472.2+121.961+2464.14+113.465+2450.81+113.465C2437.48+113.465+2429.43+121.961+2429.43+135.73L2429.43+153.162L2421.22+153.162C2411.11+153.162+2404.67+159.314+2404.67+169.275C2404.67+179.236+2411.11+185.389+2421.22+185.389L2429.43+185.389L2429.43+270.057Z" opacity="1" fill="#ffdfb1"/>
</g>
<path d="M2054.79+1338.73L2060.78+1338.73C2418.69+1338.73+2708.83+1628.73+2708.83+1986.46L2708.83+1992.46C2708.83+2350.19+2418.69+2640.2+2060.78+2640.2L2054.79+2640.2C1696.88+2640.2+1406.74+2350.19+1406.74+1992.46L1406.74+1986.46C1406.74+1628.73+1696.88+1338.73+2054.79+1338.73Z" opacity="1" fill="#ffdfb1"/>
<g opacity="1">
<g opacity="1">
<path d="M2053.56+1117.75L2053.56+1117.75C2083.34+1117.75+2107.49+1146.01+2107.49+1180.87L2107.49+1599.26C2107.49+1634.12+2083.34+1662.38+2053.56+1662.38L2053.56+1662.38C2023.78+1662.38+1999.63+1634.12+1999.63+1599.26L1999.63+1180.87C1999.63+1146.01+2023.78+1117.75+2053.56+1117.75Z" opacity="1" fill="#ffdfb1"/>
<path d="M2054.45+2343.12L2054.45+2343.12C2084.24+2343.12+2108.38+2371.38+2108.38+2406.24L2108.38+2824.63C2108.38+2859.49+2084.24+2887.75+2054.45+2887.75L2054.45+2887.75C2024.67+2887.75+2000.52+2859.49+2000.52+2824.63L2000.52+2406.24C2000.52+2371.38+2024.67+2343.12+2054.45+2343.12Z" opacity="1" fill="#ffdfb1"/>
<path d="M1709.01+1996.84L1709.01+1996.84C1709.01+2026.72+1680.84+2050.94+1646.09+2050.94L1229.04+2050.94C1194.29+2050.94+1166.12+2026.72+1166.12+1996.84L1166.12+1996.84C1166.12+1966.96+1194.29+1942.73+1229.04+1942.73L1646.09+1942.73C1680.84+1942.73+1709.01+1966.96+1709.01+1996.84Z" opacity="1" fill="#ffdfb1"/>
<path d="M2936.95+1998.26L2936.95+1998.26C2936.95+2028.14+2908.78+2052.36+2874.03+2052.36L2456.98+2052.36C2422.23+2052.36+2394.06+2028.14+2394.06+1998.26L2394.06+1998.26C2394.06+1968.38+2422.23+1944.16+2456.98+1944.16L2874.03+1944.16C2908.78+1944.16+2936.95+1968.38+2936.95+1998.26Z" opacity="1" fill="#ffdfb1"/>
</g>
<g opacity="1">
<path d="M2676.39+1400.62L2676.39+1400.62C2697.46+1421.75+2694.61+1458.86+2670.04+1483.51L2375.13+1779.36C2350.56+1804.01+2313.57+1806.86+2292.51+1785.73L2292.51+1785.73C2271.45+1764.61+2274.3+1727.5+2298.87+1702.85L2593.77+1407C2618.34+1382.35+2655.33+1379.5+2676.39+1400.62Z" opacity="1" fill="#ffdfb1"/>
<path d="M1813.32+2267.73L1813.32+2267.73C1834.38+2288.85+1831.53+2325.96+1806.96+2350.61L1512.06+2646.46C1487.49+2671.11+1450.5+2673.96+1429.43+2652.84L1429.43+2652.84C1408.37+2631.71+1411.22+2594.6+1435.79+2569.95L1730.69+2274.1C1755.27+2249.45+1792.26+2246.6+1813.32+2267.73Z" opacity="1" fill="#ffdfb1"/>
<path d="M1813.13+1777.82L1813.13+1777.82C1792.07+1798.95+1755.08+1796.1+1730.51+1771.45L1435.6+1475.6C1411.03+1450.95+1408.19+1413.84+1429.25+1392.71L1429.25+1392.71C1450.31+1371.58+1487.3+1374.44+1511.87+1399.09L1806.78+1694.94C1831.35+1719.59+1834.19+1756.7+1813.13+1777.82Z" opacity="1" fill="#ffdfb1"/>
<path d="M2680.41+2649.89L2680.41+2649.89C2659.35+2671.02+2622.36+2668.16+2597.79+2643.51L2302.89+2347.67C2278.31+2323.02+2275.47+2285.91+2296.53+2264.78L2296.53+2264.78C2317.59+2243.65+2354.58+2246.51+2379.15+2271.16L2674.06+2567C2698.63+2591.65+2701.47+2628.76+2680.41+2649.89Z" opacity="1" fill="#ffdfb1"/>
</g>
<g opacity="1">
<path d="M2867.86+1677.16L2867.86+1677.16C2879.23+1704.74+2862.39+1737.93+2830.25+1751.31L2444.53+1911.83C2412.39+1925.21+2377.12+1913.69+2365.75+1886.12L2365.75+1886.12C2354.38+1858.54+2371.22+1825.35+2403.36+1811.97L2789.08+1651.45C2821.22+1638.07+2856.49+1649.58+2867.86+1677.16Z" opacity="1" fill="#ffdfb1"/>
<path d="M1738.5+2148.13L1738.5+2148.13C1749.87+2175.7+1733.03+2208.9+1700.89+2222.28L1315.17+2382.8C1283.03+2396.18+1247.76+2384.66+1236.39+2357.09L1236.39+2357.09C1225.02+2329.51+1241.86+2296.31+1274+2282.94L1659.72+2122.41C1691.86+2109.04+1727.13+2120.55+1738.5+2148.13Z" opacity="1" fill="#ffdfb1"/>
<path d="M1925.89+1695.45L1925.89+1695.45C1898.35+1706.91+1865.26+1690.12+1852+1657.95L1692.81+1271.82C1679.55+1239.65+1691.13+1204.28+1718.68+1192.81L1718.68+1192.81C1746.22+1181.35+1779.31+1198.14+1792.57+1230.31L1951.76+1616.44C1965.02+1648.61+1953.44+1683.98+1925.89+1695.45Z" opacity="1" fill="#ffdfb1"/>
<path d="M2393.27+2832.87L2393.27+2832.87C2365.73+2844.33+2332.64+2827.55+2319.38+2795.37L2160.19+2409.25C2146.93+2377.07+2158.51+2341.7+2186.06+2330.24L2186.06+2330.24C2213.6+2318.77+2246.69+2335.56+2259.95+2367.73L2419.14+2753.86C2432.4+2786.03+2420.82+2821.4+2393.27+2832.87Z" opacity="1" fill="#ffdfb1"/>
</g>
<g opacity="1">
<path d="M2390.96+1209.01L2390.96+1209.01C2418.51+1220.47+2430.09+1255.84+2416.83+1288.02L2257.64+1674.14C2244.38+1706.32+2211.29+1723.1+2183.75+1711.64L2183.75+1711.64C2156.2+1700.17+2144.62+1664.8+2157.88+1632.63L2317.07+1246.5C2330.33+1214.33+2363.42+1197.54+2390.96+1209.01Z" opacity="1" fill="#ffdfb1"/>
<path d="M1925.57+2340.23L1925.57+2340.23C1953.11+2351.7+1964.69+2387.07+1951.43+2419.24L1792.24+2805.37C1778.98+2837.54+1745.9+2854.33+1718.35+2842.87L1718.35+2842.87C1690.8+2831.4+1679.22+2796.03+1692.49+2763.86L1851.67+2377.73C1864.94+2345.56+1898.02+2328.77+1925.57+2340.23Z" opacity="1" fill="#ffdfb1"/>
<path d="M1737.83+1887.69L1737.83+1887.69C1726.46+1915.27+1691.19+1926.78+1659.05+1913.41L1273.33+1752.88C1241.19+1739.51+1224.35+1706.31+1235.72+1678.73L1235.72+1678.73C1247.09+1651.16+1282.36+1639.65+1314.5+1653.02L1700.22+1813.55C1732.36+1826.92+1749.2+1860.12+1737.83+1887.69Z" opacity="1" fill="#ffdfb1"/>
<path d="M2872.98+2361.64L2872.98+2361.64C2861.61+2389.22+2826.34+2400.73+2794.2+2387.35L2408.47+2226.83C2376.34+2213.45+2359.5+2180.26+2370.87+2152.68L2370.87+2152.68C2382.24+2125.11+2417.51+2113.59+2449.64+2126.97L2835.37+2287.49C2867.51+2300.87+2884.34+2334.06+2872.98+2361.64Z" opacity="1" fill="#ffdfb1"/>
</g>
</g>
<g opacity="1">
<path d="M954.221+798.771C960.855+798.771+964.765+794.721+964.765+787.808L964.765+760.437L982.71+760.437L999.467+790.811C1002.89+796.955+1005.19+798.771+1010.22+798.771C1016.36+798.771+1020.83+794.721+1020.83+789.135C1020.83+786.691+1020.34+784.876+1018.6+781.873L1004.08+756.737C1015.18+751.989+1021.39+741.236+1021.39+728.667C1021.39+708.767+1008.13+696.548+984.944+696.548L954.221+696.548C947.588+696.548+943.678+700.598+943.678+707.511L943.678+787.808C943.678+794.721+947.658+798.771+954.221+798.771ZM964.765+745.146L964.765+713.027L982.71+713.027C993.183+713.027+999.747+719.311+999.747+729.086C999.747+739.071+993.532+745.146+982.919+745.146L964.765+745.146Z" opacity="1" fill="#ffdfb1"/>
<path d="M1067.2+798.911C1081.65+798.911+1093.24+793.464+1098.2+784.247C1099.11+782.572+1099.6+780.896+1099.6+779.29C1099.6+774.612+1096.03+771.819+1091.64+771.819C1088.98+771.819+1087.17+772.587+1085+774.821C1079.49+781.315+1074.6+783.829+1067.13+783.829C1056.79+783.829+1050.09+776.567+1050.09+765.465L1050.09+764.557L1092.82+764.557C1098.48+764.557+1101.69+761.345+1101.69+755.689C1101.69+735.371+1087.45+720.847+1066.22+720.847C1044.09+720.847+1030.05+736.139+1030.05+760.228C1030.05+784.457+1043.81+798.911+1067.2+798.911ZM1050.3+752.058C1051+742.493+1057.49+735.929+1066.43+735.929C1075.37+735.929+1081.65+742.283+1082.07+752.058L1050.3+752.058Z" opacity="1" fill="#ffdfb1"/>
<path d="M1122.36+798.771C1128.57+798.771+1132.55+794.931+1132.55+788.158L1132.55+754.921C1132.55+746.054+1135.83+740.817+1145.12+740.677C1149.1+740.607+1152.03+739.7+1153.99+738.024C1155.94+736.348+1156.92+733.904+1156.92+730.692C1156.92+727.201+1155.94+724.687+1153.99+723.151C1152.52+721.894+1150.36+721.266+1147.63+721.266C1140.16+721.266+1134.02+726.782+1132.06+736.069L1131.64+736.069L1131.64+731.181C1131.64+724.687+1127.73+720.917+1122.01+720.917C1116.14+720.917+1112.16+724.687+1112.16+731.181L1112.16+788.158C1112.16+794.931+1116.21+798.771+1122.36+798.771Z" opacity="1" fill="#ffdfb1"/>
<path d="M1174.73+713.166C1180.87+713.166+1185.62+708.488+1185.62+702.623C1185.62+696.688+1180.87+692.079+1174.73+692.079C1168.58+692.079+1163.83+696.688+1163.83+702.623C1163.83+708.488+1168.58+713.166+1174.73+713.166ZM1174.73+798.771C1181.01+798.771+1184.92+794.791+1184.92+788.158L1184.92+731.6C1184.92+724.967+1181.01+720.917+1174.73+720.917C1168.37+720.917+1164.53+724.967+1164.53+731.6L1164.53+788.158C1164.53+794.791+1168.37+798.771+1174.73+798.771Z" opacity="1" fill="#ffdfb1"/>
<path d="M1228.98+798.911C1248.74+798.911+1262.08+789.275+1262.08+774.402C1262.08+763.23+1255.51+757.365+1239.59+754.014L1227.23+751.36C1219.76+749.754+1216.83+747.171+1216.83+743.261C1216.83+738.443+1221.65+735.161+1228.56+735.161C1235.89+735.161+1239.94+738.652+1243.5+743.191C1245.32+745.355+1248.25+746.333+1250.9+746.333C1256.14+746.333+1258.72+743.47+1258.72+739.35C1258.72+738.373+1258.52+737.395+1258.24+736.348C1255.79+727.899+1244.41+720.847+1228.91+720.847C1209.5+720.847+1197.14+730.064+1197.14+744.378C1197.14+755.48+1204.54+762.951+1219.2+766.093L1231.77+768.746C1239.1+770.352+1241.69+772.517+1241.69+776.567C1241.69+781.524+1236.87+784.597+1229.47+784.597C1221.72+784.597+1217.11+782.223+1213.13+776.986C1210.34+773.844+1207.54+772.377+1204.26+772.377C1199.51+772.377+1196.02+775.519+1196.02+780.198C1196.02+781.315+1196.3+782.641+1196.79+783.968C1200.35+792.766+1211.8+798.911+1228.98+798.911Z" opacity="1" fill="#ffdfb1"/>
<path d="M1306.55+798.911C1321.01+798.911+1332.6+793.464+1337.56+784.247C1338.46+782.572+1338.95+780.896+1338.95+779.29C1338.95+774.612+1335.39+771.819+1330.99+771.819C1328.34+771.819+1326.52+772.587+1324.36+774.821C1318.84+781.315+1313.96+783.829+1306.48+783.829C1296.15+783.829+1289.45+776.567+1289.45+765.465L1289.45+764.557L1332.18+764.557C1337.84+764.557+1341.05+761.345+1341.05+755.689C1341.05+735.371+1326.8+720.847+1305.58+720.847C1283.44+720.847+1269.41+736.139+1269.41+760.228C1269.41+784.457+1283.16+798.911+1306.55+798.911ZM1289.66+752.058C1290.36+742.493+1296.85+735.929+1305.79+735.929C1314.72+735.929+1321.01+742.283+1321.43+752.058L1289.66+752.058Z" opacity="1" fill="#ffdfb1"/>
<path d="M1361.72+798.771C1367.72+798.771+1371.91+795.14+1371.91+788.158L1371.91+754.363C1371.91+744.657+1377.71+737.954+1386.85+737.954C1396+737.954+1400.61+743.54+1400.61+753.315L1400.61+788.158C1400.61+795.14+1404.8+798.771+1410.8+798.771C1416.74+798.771+1421+795.14+1421+788.158L1421+749.056C1421+731.53+1411.64+721.057+1395.02+721.057C1383.5+721.057+1375.96+726.154+1371.98+735.44L1371.56+735.44L1371.56+731.251C1371.56+724.827+1367.51+720.917+1361.37+720.917C1355.22+720.917+1351.52+724.827+1351.52+731.181L1351.52+788.158C1351.52+795.14+1355.78+798.771+1361.72+798.771Z" opacity="1" fill="#ffdfb1"/>
<path d="M1487.33+798.771C1494.59+798.771+1498.64+795.489+1500.39+788.088L1511.7+744.378L1512.12+744.378L1523.5+787.948C1525.24+795.559+1529.22+798.771+1536.7+798.771C1543.75+798.771+1547.66+795.419+1549.75+788.018L1564.83+735.789C1565.6+733.136+1565.95+731.46+1565.95+729.575C1565.95+724.478+1561.97+720.917+1556.32+720.917C1551.29+720.917+1548.01+723.989+1546.89+729.435L1535.72+777.963L1535.3+777.963L1523.64+730.273C1522.31+724.199+1518.33+720.917+1512.26+720.917C1506.04+720.917+1502.06+724.199+1500.74+730.273L1489.14+777.963L1488.73+777.963L1477.62+729.575C1476.44+723.989+1473.15+720.917+1468.06+720.917C1462.33+720.917+1458.21+724.548+1458.21+729.645C1458.21+731.6+1458.56+733.276+1459.33+735.929L1474.41+788.088C1476.58+795.489+1480.28+798.771+1487.33+798.771Z" opacity="1" fill="#ffdfb1"/>
<path d="M1585.71+713.166C1591.86+713.166+1596.6+708.488+1596.6+702.623C1596.6+696.688+1591.86+692.079+1585.71+692.079C1579.57+692.079+1574.82+696.688+1574.82+702.623C1574.82+708.488+1579.57+713.166+1585.71+713.166ZM1585.71+798.771C1592+798.771+1595.91+794.791+1595.91+788.158L1595.91+731.6C1595.91+724.967+1592+720.917+1585.71+720.917C1579.36+720.917+1575.52+724.967+1575.52+731.6L1575.52+788.158C1575.52+794.791+1579.36+798.771+1585.71+798.771Z" opacity="1" fill="#ffdfb1"/>
<path d="M1614.9+778.173C1614.9+791.37+1621.81+798.142+1635.43+798.142L1636.12+798.142C1644.71+798.142+1650.58+795.07+1650.58+789.065C1650.58+784.317+1647.86+782.223+1642.83+781.664L1641.5+781.524C1637.1+781.175+1635.29+778.941+1635.29+773.634L1635.29+737.814L1642.48+737.814C1647.3+737.814+1650.3+734.812+1650.3+730.134C1650.3+725.455+1647.3+722.453+1642.48+722.453L1635.29+722.453L1635.29+714.144C1635.29+707.58+1631.45+703.531+1625.09+703.531C1618.74+703.531+1614.9+707.58+1614.9+714.144L1614.9+722.453L1610.99+722.453C1606.17+722.453+1603.1+725.386+1603.1+730.134C1603.1+734.882+1606.17+737.814+1610.99+737.814L1614.9+737.814L1614.9+778.173Z" opacity="1" fill="#ffdfb1"/>
<path d="M1670.97+798.771C1676.97+798.771+1681.16+795.14+1681.16+788.158L1681.16+754.572C1681.16+744.727+1686.82+737.954+1696.45+737.954C1705.74+737.954+1710.49+743.819+1710.49+753.455L1710.49+788.158C1710.49+795.14+1714.75+798.771+1720.68+798.771C1726.69+798.771+1730.88+795.14+1730.88+788.158L1730.88+749.126C1730.88+731.809+1721.38+721.057+1704.76+721.057C1693.38+721.057+1685.21+726.363+1681.23+735.789L1680.81+735.789L1680.81+705.486C1680.81+698.922+1677.11+695.012+1670.83+695.012C1664.54+695.012+1660.77+698.922+1660.77+705.486L1660.77+788.158C1660.77+795.14+1665.03+798.771+1670.97+798.771Z" opacity="1" fill="#ffdfb1"/>
<path d="M1794.28+798.492C1803.63+798.492+1812.99+793.813+1817.18+785.853L1817.6+785.853L1817.6+789.694C1818.02+795.699+1821.86+798.771+1827.37+798.771C1833.17+798.771+1837.29+795.28+1837.29+788.507L1837.29+745.844C1837.29+730.762+1824.79+720.847+1805.59+720.847C1790.09+720.847+1778.08+726.363+1774.59+735.301C1773.89+736.837+1773.54+738.303+1773.54+739.909C1773.54+744.517+1777.1+747.729+1782.06+747.729C1785.34+747.729+1787.92+746.473+1790.16+743.959C1794.7+738.094+1798.47+736.069+1804.68+736.069C1812.36+736.069+1817.25+740.119+1817.25+747.101L1817.25+752.058L1798.4+753.176C1779.68+754.293+1769.21+762.183+1769.21+775.799C1769.21+789.275+1780.03+798.492+1794.28+798.492ZM1800.98+783.759C1794.14+783.759+1789.53+780.267+1789.53+774.682C1789.53+769.375+1793.86+765.954+1801.47+765.395L1817.25+764.417L1817.25+769.864C1817.25+777.963+1809.92+783.759+1800.98+783.759Z" opacity="1" fill="#ffdfb1"/>
<path d="M1860.61+798.771C1866.61+798.771+1870.8+795.14+1870.8+788.158L1870.8+754.363C1870.8+744.657+1876.6+737.954+1885.75+737.954C1894.89+737.954+1899.5+743.54+1899.5+753.315L1899.5+788.158C1899.5+795.14+1903.69+798.771+1909.7+798.771C1915.63+798.771+1919.89+795.14+1919.89+788.158L1919.89+749.056C1919.89+731.53+1910.53+721.057+1893.92+721.057C1882.39+721.057+1874.85+726.154+1870.87+735.44L1870.45+735.44L1870.45+731.251C1870.45+724.827+1866.4+720.917+1860.26+720.917C1854.12+720.917+1850.42+724.827+1850.42+731.181L1850.42+788.158C1850.42+795.14+1854.67+798.771+1860.61+798.771Z" opacity="1" fill="#ffdfb1"/>
<path d="M1983.22+798.492C1992.58+798.492+2001.93+793.813+2006.12+785.853L2006.54+785.853L2006.54+789.694C2006.96+795.699+2010.8+798.771+2016.32+798.771C2022.11+798.771+2026.23+795.28+2026.23+788.507L2026.23+745.844C2026.23+730.762+2013.73+720.847+1994.53+720.847C1979.03+720.847+1967.02+726.363+1963.53+735.301C1962.83+736.837+1962.48+738.303+1962.48+739.909C1962.48+744.517+1966.04+747.729+1971+747.729C1974.28+747.729+1976.87+746.473+1979.1+743.959C1983.64+738.094+1987.41+736.069+1993.62+736.069C2001.31+736.069+2006.19+740.119+2006.19+747.101L2006.19+752.058L1987.34+753.176C1968.63+754.293+1958.15+762.183+1958.15+775.799C1958.15+789.275+1968.98+798.492+1983.22+798.492ZM1989.92+783.759C1983.08+783.759+1978.47+780.267+1978.47+774.682C1978.47+769.375+1982.8+765.954+1990.41+765.395L2006.19+764.417L2006.19+769.864C2006.19+777.963+1998.86+783.759+1989.92+783.759Z" opacity="1" fill="#ffdfb1"/>
<path d="M2050.04+798.771C2056.05+798.771+2060.24+795.14+2060.24+788.158L2060.24+705.695C2060.24+698.713+2056.05+695.012+2050.04+695.012C2044.11+695.012+2039.85+698.713+2039.85+705.695L2039.85+788.158C2039.85+795.14+2044.11+798.771+2050.04+798.771Z" opacity="1" fill="#ffdfb1"/>
<path d="M2084.68+798.771C2090.68+798.771+2094.87+795.14+2094.87+788.158L2094.87+705.695C2094.87+698.713+2090.68+695.012+2084.68+695.012C2078.74+695.012+2074.48+698.713+2074.48+705.695L2074.48+788.158C2074.48+795.14+2078.74+798.771+2084.68+798.771Z" opacity="1" fill="#ffdfb1"/>
<path d="M2147.1+798.771C2153.1+798.771+2157.29+795.14+2157.29+788.158L2157.29+754.363C2157.29+744.657+2163.09+737.954+2172.24+737.954C2181.38+737.954+2185.99+743.54+2185.99+753.315L2185.99+788.158C2185.99+795.14+2190.18+798.771+2196.18+798.771C2202.12+798.771+2206.38+795.14+2206.38+788.158L2206.38+749.056C2206.38+731.53+2197.02+721.057+2180.4+721.057C2168.88+721.057+2161.34+726.154+2157.36+735.44L2156.94+735.44L2156.94+731.251C2156.94+724.827+2152.89+720.917+2146.75+720.917C2140.6+720.917+2136.9+724.827+2136.9+731.181L2136.9+788.158C2136.9+795.14+2141.16+798.771+2147.1+798.771Z" opacity="1" fill="#ffdfb1"/>
<path d="M2253.72+798.911C2268.17+798.911+2279.76+793.464+2284.72+784.247C2285.63+782.572+2286.12+780.896+2286.12+779.29C2286.12+774.612+2282.56+771.819+2278.16+771.819C2275.51+771.819+2273.69+772.587+2271.53+774.821C2266.01+781.315+2261.12+783.829+2253.65+783.829C2243.32+783.829+2236.61+776.567+2236.61+765.465L2236.61+764.557L2279.35+764.557C2285+764.557+2288.21+761.345+2288.21+755.689C2288.21+735.371+2273.97+720.847+2252.74+720.847C2230.61+720.847+2216.57+736.139+2216.57+760.228C2216.57+784.457+2230.33+798.911+2253.72+798.911ZM2236.82+752.058C2237.52+742.493+2244.01+735.929+2252.95+735.929C2261.89+735.929+2268.17+742.283+2268.59+752.058L2236.82+752.058Z" opacity="1" fill="#ffdfb1"/>
<path d="M2323.47+798.771C2330.74+798.771+2334.79+795.489+2336.53+788.088L2347.84+744.378L2348.26+744.378L2359.64+787.948C2361.39+795.559+2365.37+798.771+2372.84+798.771C2379.89+798.771+2383.8+795.419+2385.9+788.018L2400.98+735.789C2401.75+733.136+2402.1+731.46+2402.1+729.575C2402.1+724.478+2398.12+720.917+2392.46+720.917C2387.43+720.917+2384.15+723.989+2383.03+729.435L2371.86+777.963L2371.44+777.963L2359.78+730.273C2358.46+724.199+2354.48+720.917+2348.4+720.917C2342.19+720.917+2338.21+724.199+2336.88+730.273L2325.29+777.963L2324.87+777.963L2313.77+729.575C2312.58+723.989+2309.3+720.917+2304.2+720.917C2298.48+720.917+2294.36+724.548+2294.36+729.645C2294.36+731.6+2294.71+733.276+2295.47+735.929L2310.56+788.088C2312.72+795.489+2316.42+798.771+2323.47+798.771Z" opacity="1" fill="#ffdfb1"/>
<path d="M2455.23+798.771C2461.24+798.771+2465.43+795.21+2465.43+788.158L2465.43+737.814L2473.53+737.814C2477.79+737.814+2481+735.091+2481+730.273C2481+725.525+2477.79+722.802+2473.53+722.802L2464.94+722.802L2464.94+718.054C2464.94+712.538+2467.45+710.024+2473.74+709.815C2475.27+709.745+2476.53+709.536+2477.65+709.256C2480.37+708.418+2481.77+706.743+2481.77+703.88C2481.77+699.062+2477.23+695.641+2466.4+695.641C2452.3+695.78+2445.04+702.344+2445.04+717.146L2445.04+722.802L2441.13+722.802C2436.87+722.802+2433.66+725.525+2433.66+730.273C2433.66+735.091+2436.87+737.814+2441.13+737.814L2445.04+737.814L2445.04+788.158C2445.04+795.21+2449.16+798.771+2455.23+798.771Z" opacity="1" fill="#ffdfb1"/>
<path d="M2522.82+798.911C2537.28+798.911+2548.87+793.464+2553.82+784.247C2554.73+782.572+2555.22+780.896+2555.22+779.29C2555.22+774.612+2551.66+771.819+2547.26+771.819C2544.61+771.819+2542.79+772.587+2540.63+774.821C2535.11+781.315+2530.22+783.829+2522.75+783.829C2512.42+783.829+2505.72+776.567+2505.72+765.465L2505.72+764.557L2548.45+764.557C2554.1+764.557+2557.32+761.345+2557.32+755.689C2557.32+735.371+2543.07+720.847+2521.84+720.847C2499.71+720.847+2485.68+736.139+2485.68+760.228C2485.68+784.457+2499.43+798.911+2522.82+798.911ZM2505.92+752.058C2506.62+742.493+2513.12+735.929+2522.05+735.929C2530.99+735.929+2537.28+742.283+2537.7+752.058L2505.92+752.058Z" opacity="1" fill="#ffdfb1"/>
<path d="M2589.92+798.492C2599.28+798.492+2608.64+793.813+2612.83+785.853L2613.24+785.853L2613.24+789.694C2613.66+795.699+2617.5+798.771+2623.02+798.771C2628.82+798.771+2632.94+795.28+2632.94+788.507L2632.94+745.844C2632.94+730.762+2620.44+720.847+2601.24+720.847C2585.73+720.847+2573.72+726.363+2570.23+735.301C2569.53+736.837+2569.19+738.303+2569.19+739.909C2569.19+744.517+2572.75+747.729+2577.7+747.729C2580.99+747.729+2583.57+746.473+2585.8+743.959C2590.34+738.094+2594.11+736.069+2600.33+736.069C2608.01+736.069+2612.9+740.119+2612.9+747.101L2612.9+752.058L2594.04+753.176C2575.33+754.293+2564.86+762.183+2564.86+775.799C2564.86+789.275+2575.68+798.492+2589.92+798.492ZM2596.63+783.759C2589.78+783.759+2585.18+780.267+2585.18+774.682C2585.18+769.375+2589.5+765.954+2597.12+765.395L2612.9+764.417L2612.9+769.864C2612.9+777.963+2605.56+783.759+2596.63+783.759Z" opacity="1" fill="#ffdfb1"/>
<path d="M2651.51+778.173C2651.51+791.37+2658.42+798.142+2672.04+798.142L2672.74+798.142C2681.32+798.142+2687.19+795.07+2687.19+789.065C2687.19+784.317+2684.47+782.223+2679.44+781.664L2678.11+781.524C2673.71+781.175+2671.9+778.941+2671.9+773.634L2671.9+737.814L2679.09+737.814C2683.91+737.814+2686.91+734.812+2686.91+730.134C2686.91+725.455+2683.91+722.453+2679.09+722.453L2671.9+722.453L2671.9+714.144C2671.9+707.58+2668.06+703.531+2661.7+703.531C2655.35+703.531+2651.51+707.58+2651.51+714.144L2651.51+722.453L2647.6+722.453C2642.78+722.453+2639.71+725.386+2639.71+730.134C2639.71+734.882+2642.78+737.814+2647.6+737.814L2651.51+737.814L2651.51+778.173Z" opacity="1" fill="#ffdfb1"/>
<path d="M2723.5+798.701C2734.81+798.701+2742.21+793.255+2745.91+783.829L2746.33+783.829L2746.33+788.437C2746.33+795.21+2750.31+798.771+2756.17+798.771C2762.04+798.771+2766.02+795.21+2766.02+788.437L2766.02+731.6C2766.02+724.618+2761.83+720.917+2755.83+720.917C2749.89+720.917+2745.63+724.618+2745.63+731.6L2745.63+765.325C2745.63+775.24+2739.98+781.734+2730.9+781.734C2721.89+781.734+2716.93+776.427+2716.93+766.442L2716.93+731.6C2716.93+724.618+2712.74+720.917+2706.74+720.917C2700.8+720.917+2696.55+724.618+2696.55+731.6L2696.55+770.702C2696.55+788.158+2707.3+798.701+2723.5+798.701Z" opacity="1" fill="#ffdfb1"/>
<path d="M2789.48+798.771C2795.7+798.771+2799.68+794.931+2799.68+788.158L2799.68+754.921C2799.68+746.054+2802.96+740.817+2812.24+740.677C2816.22+740.607+2819.16+739.7+2821.11+738.024C2823.07+736.348+2824.04+733.904+2824.04+730.692C2824.04+727.201+2823.07+724.687+2821.11+723.151C2819.65+721.894+2817.48+721.266+2814.76+721.266C2807.29+721.266+2801.14+726.782+2799.19+736.069L2798.77+736.069L2798.77+731.181C2798.77+724.687+2794.86+720.917+2789.13+720.917C2783.27+720.917+2779.29+724.687+2779.29+731.181L2779.29+788.158C2779.29+794.931+2783.34+798.771+2789.48+798.771Z" opacity="1" fill="#ffdfb1"/>
<path d="M2863.29+798.911C2877.74+798.911+2889.33+793.464+2894.29+784.247C2895.2+782.572+2895.68+780.896+2895.68+779.29C2895.68+774.612+2892.12+771.819+2887.72+771.819C2885.07+771.819+2883.26+772.587+2881.09+774.821C2875.57+781.315+2870.69+783.829+2863.22+783.829C2852.88+783.829+2846.18+776.567+2846.18+765.465L2846.18+764.557L2888.91+764.557C2894.57+764.557+2897.78+761.345+2897.78+755.689C2897.78+735.371+2883.53+720.847+2862.31+720.847C2840.17+720.847+2826.14+736.139+2826.14+760.228C2826.14+784.457+2839.89+798.911+2863.29+798.911ZM2846.39+752.058C2847.09+742.493+2853.58+735.929+2862.52+735.929C2871.45+735.929+2877.74+742.283+2878.16+752.058L2846.39+752.058Z" opacity="1" fill="#ffdfb1"/>
<path d="M2918.66+765.255L2947.77+765.255C2953.29+765.255+2957.41+761.974+2957.41+756.318C2957.41+750.662+2953.29+747.45+2947.77+747.45L2918.66+747.45C2913.14+747.45+2909.02+750.662+2909.02+756.318C2909.02+761.974+2913.14+765.255+2918.66+765.255Z" opacity="1" fill="#ffdfb1"/>
<path d="M3001.96+798.911C3021.72+798.911+3035.05+789.275+3035.05+774.402C3035.05+763.23+3028.49+757.365+3012.57+754.014L3000.21+751.36C2992.74+749.754+2989.81+747.171+2989.81+743.261C2989.81+738.443+2994.62+735.161+3001.54+735.161C3008.87+735.161+3012.92+738.652+3016.48+743.191C3018.3+745.355+3021.23+746.333+3023.88+746.333C3029.12+746.333+3031.7+743.47+3031.7+739.35C3031.7+738.373+3031.49+737.395+3031.21+736.348C3028.77+727.899+3017.39+720.847+3001.89+720.847C2982.48+720.847+2970.12+730.064+2970.12+744.378C2970.12+755.48+2977.52+762.951+2992.18+766.093L3004.75+768.746C3012.08+770.352+3014.66+772.517+3014.66+776.567C3014.66+781.524+3009.85+784.597+3002.45+784.597C2994.69+784.597+2990.09+782.223+2986.11+776.986C2983.31+773.844+2980.52+772.377+2977.24+772.377C2972.49+772.377+2969+775.519+2969+780.198C2969+781.315+2969.28+782.641+2969.77+783.968C2973.33+792.766+2984.78+798.911+3001.96+798.911Z" opacity="1" fill="#ffdfb1"/>
<path d="M3079.53+798.911C3093.98+798.911+3105.58+793.464+3110.53+784.247C3111.44+782.572+3111.93+780.896+3111.93+779.29C3111.93+774.612+3108.37+771.819+3103.97+771.819C3101.32+771.819+3099.5+772.587+3097.34+774.821C3091.82+781.315+3086.93+783.829+3079.46+783.829C3069.13+783.829+3062.42+776.567+3062.42+765.465L3062.42+764.557L3105.16+764.557C3110.81+764.557+3114.02+761.345+3114.02+755.689C3114.02+735.371+3099.78+720.847+3078.55+720.847C3056.42+720.847+3042.38+736.139+3042.38+760.228C3042.38+784.457+3056.14+798.911+3079.53+798.911ZM3062.63+752.058C3063.33+742.493+3069.83+735.929+3078.76+735.929C3087.7+735.929+3093.98+742.283+3094.4+752.058L3062.63+752.058Z" opacity="1" fill="#ffdfb1"/>
<path d="M3129.94+778.173C3129.94+791.37+3136.86+798.142+3150.47+798.142L3151.17+798.142C3159.76+798.142+3165.62+795.07+3165.62+789.065C3165.62+784.317+3162.9+782.223+3157.87+781.664L3156.55+781.524C3152.15+781.175+3150.33+778.941+3150.33+773.634L3150.33+737.814L3157.52+737.814C3162.34+737.814+3165.34+734.812+3165.34+730.134C3165.34+725.455+3162.34+722.453+3157.52+722.453L3150.33+722.453L3150.33+714.144C3150.33+707.58+3146.49+703.531+3140.14+703.531C3133.78+703.531+3129.94+707.58+3129.94+714.144L3129.94+722.453L3126.03+722.453C3121.22+722.453+3118.14+725.386+3118.14+730.134C3118.14+734.882+3121.22+737.814+3126.03+737.814L3129.94+737.814L3129.94+778.173Z" opacity="1" fill="#ffdfb1"/>
</g>
</g>
</svg>
