<?xml version="1.0" encoding="UTF-8" standalone="no"?> <!-- Created with Vectornator for iOS (http://vectornator.io/) --><!DOCTYPE svg PUBLIC "-//W3C//DTD SVG 1.1//EN" "http://www.w3.org/Graphics/SVG/1.1/DTD/svg11.dtd">
<svg style="fill-rule:evenodd;clip-rule:evenodd;stroke-linecap:round;stroke-linejoin:round;" xmlns:vectornator="http://vectornator.io" xmlns:xlink="http://www.w3.org/1999/xlink" xmlns="http://www.w3.org/2000/svg" xml:space="preserve" version="1.1" viewBox="0 0 1024 1024">
<metadata>
<vectornator:setting key="DisplayWhiteBackground" value="0"/>
<vectornator:setting key="RulersVisible" value="1"/>
<vectornator:setting key="GridSpacing" value="60"/>
<vectornator:setting key="Units" value="Pixels"/>
<vectornator:setting key="DynamicGuides" value="0"/>
<vectornator:setting key="SnapToPoints" value="0"/>
<vectornator:setting key="CMYKEnabledKey" value="0"/>
<vectornator:setting key="SnapToGrid" value="0"/>
<vectornator:setting key="SnapToGuides" value="1"/>
<vectornator:setting key="ShowGrid" value="1"/>
<vectornator:setting key="SnapToEdges" value="0"/>
</metadata>
<defs/>
<g id="Layer 1" vectornator:layerName="Layer 1">
<path stroke="#d7f3ff" stroke-width="15" d="M512+7.5L512+7.5C790.628+7.5+1016.5+233.372+1016.5+512L1016.5+512C1016.5+790.628+790.628+1016.5+512+1016.5L512+1016.5C233.372+1016.5+7.5+790.628+7.5+512L7.5+512C7.5+233.372+233.372+7.5+512+7.5Z" fill="#70d4ff" stroke-linecap="round" opacity="1" stroke-linejoin="round"/>
</g>
<g id="Portal" vectornator:layerName="Portal">
<g opacity="1">
<path stroke="#00b2ff" stroke-opacity="0.180804" stroke-width="15" d="M506.244+123.5L517.756+123.5C729.14+123.5+900.5+297.437+900.5+512L900.5+512C900.5+726.563+729.14+900.5+517.756+900.5L506.244+900.5C294.86+900.5+123.5+726.563+123.5+512L123.5+512C123.5+297.437+294.86+123.5+506.244+123.5Z" fill="none" stroke-linecap="round" opacity="1" stroke-linejoin="round"/>
<path d="M542.769+892.741L630.85+519.234L619.939+880.16L616.309+881.009L612.968+881.768L611.119+882.198L608.746+882.729L605.454+883.436L601.968+884.184L598.476+884.901L580.919+888.401L561.742+890.796L556.151+891.431L549.869+892.071L547.559+892.311L542.769+892.741Z" fill-opacity="0.174494" fill="#00b2ff" opacity="1"/>
<path d="M797.984+765.384L598.247+437.709L844.059+702.214L842.073+705.369L840.228+708.257L839.215+709.861L837.899+711.906L836.053+714.722L834.098+717.704L832.117+720.667L822.082+735.493L810.118+750.67L806.586+755.05L802.565+759.92L801.09+761.713L797.984+765.384Z" fill-opacity="0.174494" fill="#00b2ff" opacity="1"/>
<path d="M837.737+310.225L468.29+414.027L789.361+248.799L791.862+251.564L794.144+254.12L795.415+255.529L797.029+257.348L799.242+259.886L801.584+262.574L803.902+265.282L815.467+278.948L826.848+294.567L830.111+299.151L833.713+304.338L835.041+306.243L837.737+310.225Z" fill-opacity="0.174494" fill="#00b2ff" opacity="1"/>
<path d="M656.694+156.692L422.882+460.991L581.173+136.444L584.831+137.162L588.189+137.843L590.051+138.211L592.433+138.702L595.724+139.411L599.21+140.162L602.688+140.943L620.131+144.968L638.598+150.667L643.956+152.386L649.946+154.385L652.15+155.115L656.694+156.692Z" fill-opacity="0.174494" fill="#00b2ff" opacity="1"/>
<path d="M419.479+139.788L399.016+522.995L345.763+165.853L349.185+164.373L352.339+163.034L354.082+162.283L356.323+161.339L359.438+160.06L362.736+158.706L366.045+157.381L382.703+150.824L401.152+145.067L406.542+143.451L412.611+141.707L414.842+141.061L419.479+139.788Z" fill-opacity="0.174494" fill="#00b2ff" opacity="1"/>
<path d="M228.501+255.513L425.247+584.993L181.852+318.261L183.868+315.125L185.738+312.254L186.766+310.659L188.1+308.626L189.972+305.827L191.954+302.863L193.962+299.918L204.131+285.184L216.233+270.116L219.805+265.769L223.87+260.936L225.362+259.156L228.501+255.513Z" fill-opacity="0.174494" fill="#00b2ff" opacity="1"/>
<path d="M131.349+509.424L496.16+628.498L137.419+587.376L136.876+583.688L136.4+580.295L136.127+578.417L135.796+576.008L135.368+572.668L134.915+569.131L134.493+565.592L132.476+547.804L131.697+528.493L131.533+522.869L131.422+516.555L131.376+514.233L131.349+509.424Z" fill-opacity="0.174494" fill="#00b2ff" opacity="1"/>
<path d="M199.548+732.891L565.689+617.971L249.758+792.827L247.175+790.139L244.817+787.653L243.503+786.283L241.835+784.513L239.547+782.043L237.124+779.428L234.725+776.791L222.754+763.481L210.905+748.213L207.505+743.729L203.748+738.654L202.363+736.79L199.548+732.891Z" fill-opacity="0.174494" fill="#00b2ff" opacity="1"/>
<path d="M345.932+857.674L601.641+571.529L419.746+883.46L416.15+882.473L412.852+881.545L411.023+881.04L408.684+880.374L405.454+879.423L402.034+878.416L398.623+877.379L381.526+872.074L363.532+865.022L358.316+862.911L352.49+860.474L350.346+859.582L345.932+857.674Z" fill-opacity="0.174494" fill="#00b2ff" opacity="1"/>
<path d="M893.563+540.673L532.35+411.092L889.751+462.578L890.187+466.28L890.565+469.686L890.783+471.571L891.044+473.989L891.375+477.34L891.726+480.888L892.045+484.438L893.546+502.277L893.766+521.602L893.768+527.229L893.696+533.543L893.674+535.865L893.563+540.673Z" fill-opacity="0.174494" fill="#00b2ff" opacity="1"/>
</g>
</g>
<g id="Name (Character)" vectornator:layerName="Name (Character)">
<g opacity="1">
<path d="M474.783+490.884L512.571+490.884C554.43+490.884+575.359+472.07+575.359+434.442C575.359+396.814+554.43+377.999+512.571+377.999L474.783+377.999L474.783+490.884ZM474.783+735.868L360.835+735.868L360.835+283.128L542.221+283.128C591.444+283.128+629.135+296.338+655.297+322.758C681.458+349.178+694.539+386.406+694.539+434.442C694.539+482.478+681.458+519.706+655.297+546.126C629.135+572.545+591.444+585.755+542.221+585.755L474.783+585.755L474.783+735.868Z" opacity="1" fill="#ffffff"/>
</g>
</g>
<g id="Name (Full)" vectornator:layerName="Name (Full)" visibility="hidden">
<g opacity="1">
<path d="M224.575+501.799L239.006+501.799C254.99+501.799+262.982+494.879+262.982+481.037C262.982+467.196+254.99+460.275+239.006+460.275L224.575+460.275L224.575+501.799ZM224.575+591.915L181.062+591.915L181.062+425.378L250.328+425.378C269.124+425.378+283.518+430.237+293.508+439.955C303.498+449.674+308.493+463.368+308.493+481.037C308.493+498.707+303.498+512.401+293.508+522.119C283.518+531.838+269.124+536.697+250.328+536.697L224.575+536.697L224.575+591.915Z" opacity="1" fill="#ffffff"/>
<path d="M363.232+534.709C363.232+538.538+363.935+542.035+365.341+545.2C366.747+548.366+368.597+551.127+370.891+553.483C373.185+555.839+375.923+557.68+379.105+559.005C382.287+560.33+385.655+560.993+389.207+560.993C392.759+560.993+396.126+560.33+399.308+559.005C402.49+557.68+405.228+555.839+407.522+553.483C409.816+551.127+411.666+548.366+413.072+545.2C414.478+542.035+415.181+538.611+415.181+534.93C415.181+531.396+414.478+528.046+413.072+524.88C411.666+521.714+409.816+518.954+407.522+516.598C405.228+514.242+402.49+512.401+399.308+511.076C396.126+509.751+392.759+509.088+389.207+509.088C385.655+509.088+382.287+509.751+379.105+511.076C375.923+512.401+373.185+514.242+370.891+516.598C368.597+518.954+366.747+521.678+365.341+524.77C363.935+527.862+363.232+531.175+363.232+534.709ZM320.829+534.267C320.829+525.874+322.531+518.033+325.935+510.745C329.339+503.456+334.075+497.124+340.144+491.75C346.212+486.375+353.427+482.142+361.789+479.049C370.151+475.957+379.29+474.411+389.207+474.411C398.975+474.411+408.04+475.92+416.402+478.939C424.764+481.958+432.017+486.154+438.159+491.529C444.301+496.903+449.074+503.309+452.478+510.745C455.882+518.181+457.584+526.39+457.584+535.372C457.584+544.354+455.845+552.563+452.367+559.999C448.889+567.435+444.116+573.84+438.048+579.215C431.98+584.589+424.69+588.749+416.18+591.694C407.67+594.639+398.457+596.111+388.541+596.111C378.772+596.111+369.744+594.639+361.456+591.694C353.168+588.749+346.027+584.552+340.033+579.104C334.038+573.656+329.339+567.14+325.935+559.557C322.531+551.974+320.829+543.544+320.829+534.267Z" opacity="1" fill="#ffffff"/>
<path d="M481.464+478.608L521.647+478.608L521.647+497.161C525.939+490.388+531.194+485.197+537.41+481.59C543.626+477.982+550.878+476.178+559.166+476.178C560.202+476.178+561.349+476.178+562.607+476.178C563.865+476.178+565.308+476.325+566.936+476.62L566.936+514.831C561.608+512.18+555.836+510.855+549.62+510.855C540.296+510.855+533.303+513.616+528.64+519.138C523.978+524.659+521.647+532.721+521.647+543.323L521.647+591.915L481.464+591.915L481.464+478.608Z" opacity="1" fill="#ffffff"/>
<path d="M634.774+511.959L634.774+591.915L594.591+591.915L594.591+511.959L581.27+511.959L581.27+478.608L594.591+478.608L594.591+444.594L634.774+444.594L634.774+478.608L657.64+478.608L657.64+511.959L634.774+511.959Z" opacity="1" fill="#ffffff"/>
<path d="M713.045+534.93C713.045+538.611+713.711+542.035+715.043+545.2C716.375+548.366+718.188+551.127+720.482+553.483C722.776+555.839+725.514+557.68+728.696+559.005C731.878+560.33+735.32+560.993+739.02+560.993C742.572+560.993+745.939+560.33+749.121+559.005C752.303+557.68+755.041+555.839+757.335+553.483C759.629+551.127+761.479+548.403+762.885+545.311C764.291+542.219+764.994+538.906+764.994+535.372C764.994+531.838+764.291+528.488+762.885+525.322C761.479+522.156+759.629+519.395+757.335+517.039C755.041+514.683+752.303+512.843+749.121+511.518C745.939+510.192+742.572+509.53+739.02+509.53C735.32+509.53+731.878+510.192+728.696+511.518C725.514+512.843+722.776+514.683+720.482+517.039C718.188+519.395+716.375+522.083+715.043+525.101C713.711+528.12+713.045+531.396+713.045+534.93ZM763.662+478.608L804.067+478.608L804.067+591.915L763.662+591.915L763.662+579.325C755.078+590.074+743.46+595.449+728.807+595.449C720.519+595.449+712.897+593.939+705.941+590.921C698.985+587.902+692.917+583.669+687.736+578.221C682.556+572.773+678.523+566.367+675.637+559.005C672.751+551.643+671.308+543.618+671.308+534.93C671.308+526.831+672.714+519.138+675.526+511.849C678.338+504.56+682.26+498.192+687.292+492.744C692.325+487.295+698.319+482.988+705.275+479.823C712.231+476.657+719.927+475.074+728.363+475.074C742.572+475.074+754.338+480.007+763.662+489.872L763.662+478.608Z" opacity="1" fill="#ffffff"/>
<path d="M872.348+408.592L872.348+591.915L832.165+591.915L832.165+408.592L872.348+408.592Z" opacity="1" fill="#ffffff"/>
</g>
</g>
</svg>
