<?xml version="1.0" encoding="UTF-8" standalone="no"?> <!-- Created with Vectornator for iOS (http://vectornator.io/) --><!DOCTYPE svg PUBLIC "-//W3C//DTD SVG 1.1//EN" "http://www.w3.org/Graphics/SVG/1.1/DTD/svg11.dtd">
<svg style="fill-rule:evenodd;clip-rule:evenodd;stroke-linecap:round;stroke-linejoin:round;" xmlns:vectornator="http://vectornator.io" xmlns:xlink="http://www.w3.org/1999/xlink" xmlns="http://www.w3.org/2000/svg" xml:space="preserve" version="1.1" viewBox="0 0 1024 1024">
<metadata>
<vectornator:setting key="DimensionsVisible" value="1"/>
<vectornator:setting key="SnapToGrid" value="0"/>
<vectornator:setting key="SnapToPoints" value="0"/>
<vectornator:setting key="GuidesVisible" value="1"/>
<vectornator:setting key="RulersVisible" value="1"/>
<vectornator:setting key="CMYKEnabledKey" value="0"/>
<vectornator:setting key="SnapToEdges" value="0"/>
<vectornator:setting key="DisplayWhiteBackground" value="0"/>
<vectornator:setting key="SnapToGuides" value="1"/>
<vectornator:setting key="GridSpacing" value="200"/>
<vectornator:setting key="Units" value="Pixels"/>
<vectornator:setting key="DynamicGuides" value="0"/>
<vectornator:setting key="New" value="1"/>
</metadata>
<defs>
<linearGradient y1="156.702" id="LinearGradient" x1="569.268" y2="384.635" x2="1034.12" gradientUnits="userSpaceOnUse" gradientTransform="matrix(1.00182 0 0 1 -298.801 123.337)">
<stop stop-color="#88152c" offset="0"/>
<stop stop-color="#e66971" offset="1"/>
</linearGradient>
<linearGradient y1="156.702" id="LinearGradient_2" x1="569.268" y2="384.635" x2="1034.12" gradientUnits="userSpaceOnUse" gradientTransform="matrix(1.00182 0 0 1 -298.801 123.337)">
<stop stop-color="#88152c" offset="0"/>
<stop stop-color="#e66971" offset="1"/>
</linearGradient>
<linearGradient y1="156.702" id="LinearGradient_3" x1="569.268" y2="384.635" x2="1034.12" gradientUnits="userSpaceOnUse" gradientTransform="matrix(1.00182 0 0 1 -298.801 123.337)">
<stop stop-color="#88152c" offset="0"/>
<stop stop-color="#e66971" offset="1"/>
</linearGradient>
</defs>
<g id="Layer 1" vectornator:layerName="Layer 1">
<path d="M0+0L1024+0L1024+1024L0+1024L0+0Z" opacity="1" fill="#2b2e35"/>
<path d="M-1.43144e-05+188L1024+188L1024+836L-1.43144e-05+836L-1.43144e-05+188Z" opacity="1" fill="#1f2229"/>
<g opacity="1">
<path d="M207.695+684.433C207.695+687.851+206.853+691.55+205.168+695.529C203.483+699.509+200.835+703.415+197.221+707.248C193.608+711.081+188.994+714.194+183.378+716.587C177.763+718.979+171.22+720.175+163.75+720.175C158.086+720.175+152.934+719.638+148.295+718.564C143.657+717.49+139.445+715.818+135.661+713.547C131.877+711.277+128.398+708.286+125.224+704.575C122.392+701.206+119.975+697.434+117.973+693.259C115.971+689.084+114.47+684.629+113.469+679.892C112.468+675.156+111.967+670.127+111.967+664.804C111.967+656.162+113.225+648.423+115.739+641.587C118.254+634.751+121.855+628.903+126.543+624.045C131.23+619.187+136.723+615.488+143.022+612.949C149.321+610.41+156.035+609.14+163.164+609.14C171.855+609.14+179.594+610.874+186.381+614.34C193.169+617.807+198.369+622.092+201.982+627.194C205.595+632.297+207.402+637.119+207.402+641.66C207.402+644.15+206.523+646.347+204.765+648.252C203.007+650.156+200.883+651.108+198.393+651.108C195.61+651.108+193.523+650.449+192.131+649.131C190.739+647.812+189.189+645.542+187.48+642.319C184.648+636.997+181.315+633.017+177.482+630.381C173.649+627.744+168.925+626.425+163.31+626.425C154.375+626.425+147.258+629.819+141.96+636.606C136.662+643.393+134.013+653.037+134.013+665.537C134.013+673.886+135.185+680.832+137.529+686.374C139.873+691.916+143.193+696.054+147.49+698.789C151.787+701.523+156.816+702.89+162.578+702.89C168.828+702.89+174.113+701.34+178.435+698.239C182.756+695.139+186.015+690.586+188.212+684.58C189.14+681.748+190.288+679.441+191.655+677.658C193.022+675.876+195.219+674.985+198.247+674.985C200.835+674.985+203.056+675.888+204.912+677.695C206.767+679.502+207.695+681.748+207.695+684.433Z" opacity="1" fill="#ffffff"/>
<path d="M291.411+627.744L248.564+627.744L248.564+655.21L284.379+655.21C287.7+655.21+290.178+655.954+291.814+657.444C293.449+658.933+294.267+660.923+294.267+663.413C294.267+665.903+293.437+667.881+291.777+669.345C290.117+670.81+287.651+671.543+284.379+671.543L248.564+671.543L248.564+706.919C248.564+711.411+247.551+714.743+245.524+716.916C243.498+719.089+240.898+720.175+237.724+720.175C234.502+720.175+231.877+719.077+229.851+716.88C227.824+714.682+226.811+711.362+226.811+706.919L226.811+624.301C226.811+621.176+227.275+618.625+228.203+616.648C229.13+614.67+230.583+613.23+232.561+612.326C234.538+611.423+237.065+610.971+240.141+610.971L291.411+610.971C294.878+610.971+297.453+611.74+299.138+613.278C300.822+614.817+301.665+616.831+301.665+619.321C301.665+621.86+300.822+623.899+299.138+625.437C297.453+626.975+294.878+627.744+291.411+627.744Z" opacity="1" fill="#ffffff"/>
<path d="M393.877+701.425L376.518+637.046L358.94+701.425C357.573+706.308+356.486+709.812+355.681+711.936C354.875+714.06+353.471+715.964+351.469+717.649C349.467+719.333+346.806+720.175+343.486+720.175C340.8+720.175+338.591+719.675+336.857+718.674C335.124+717.673+333.72+716.257+332.646+714.426C331.572+712.595+330.693+710.422+330.009+707.907C329.326+705.393+328.715+703.061+328.178+700.913L310.307+628.623C309.233+624.424+308.696+621.225+308.696+619.028C308.696+616.245+309.672+613.901+311.626+611.997C313.579+610.092+315.996+609.14+318.877+609.14C322.832+609.14+325.493+610.41+326.86+612.949C328.227+615.488+329.423+619.174+330.449+624.008L344.511+686.704L360.258+628.037C361.43+623.545+362.48+620.127+363.408+617.783C364.336+615.439+365.849+613.413+367.949+611.704C370.048+609.995+372.905+609.14+376.518+609.14C380.18+609.14+383.024+610.031+385.051+611.814C387.077+613.596+388.481+615.537+389.262+617.636C390.044+619.736+391.093+623.203+392.412+628.037L408.305+686.704L422.368+624.008C423.051+620.737+423.698+618.174+424.309+616.318C424.919+614.463+425.969+612.802+427.458+611.338C428.947+609.873+431.108+609.14+433.94+609.14C436.772+609.14+439.177+610.08+441.154+611.96C443.132+613.84+444.121+616.196+444.121+619.028C444.121+621.03+443.584+624.228+442.509+628.623L424.638+700.913C423.418+705.796+422.404+709.372+421.599+711.643C420.793+713.913+419.426+715.903+417.497+717.612C415.568+719.321+412.846+720.175+409.331+720.175C406.01+720.175+403.349+719.345+401.347+717.685C399.345+716.025+397.954+714.157+397.172+712.082C396.391+710.007+395.293+706.455+393.877+701.425Z" opacity="1" fill="#ffffff"/>
<path d="M470.415+720.175C467.387+720.175+464.775+719.199+462.578+717.246C460.38+715.293+459.282+712.558+459.282+709.043C459.282+706.064+460.332+703.501+462.431+701.352C464.531+699.204+467.119+698.13+470.195+698.13C473.271+698.13+475.896+699.192+478.068+701.316C480.241+703.44+481.328+706.015+481.328+709.043C481.328+712.509+480.241+715.232+478.068+717.209C475.896+719.187+473.344+720.175+470.415+720.175Z" opacity="1" fill="#ffffff"/>
<path d="M603.569+674.692L603.569+695.273C603.569+698.007+603.3+700.193+602.763+701.828C602.226+703.464+601.237+704.941+599.797+706.259C598.357+707.578+596.513+708.847+594.267+710.068C587.773+713.584+581.523+716.147+575.517+717.758C569.511+719.37+562.968+720.175+555.888+720.175C547.636+720.175+540.117+718.906+533.33+716.367C526.543+713.828+520.756+710.141+515.971+705.307C511.186+700.473+507.512+694.614+504.948+687.729C502.385+680.844+501.103+673.154+501.103+664.658C501.103+656.308+502.348+648.667+504.838+641.733C507.329+634.799+510.991+628.916+515.825+624.082C520.659+619.248+526.543+615.549+533.476+612.986C540.41+610.422+548.271+609.14+557.06+609.14C564.287+609.14+570.683+610.105+576.25+612.033C581.816+613.962+586.333+616.391+589.799+619.321C593.266+622.251+595.878+625.351+597.636+628.623C599.394+631.894+600.273+634.799+600.273+637.339C600.273+640.073+599.26+642.404+597.233+644.333C595.207+646.262+592.778+647.226+589.946+647.226C588.383+647.226+586.882+646.86+585.441+646.128C584.001+645.395+582.793+644.37+581.816+643.051C579.13+638.852+576.86+635.678+575.004+633.53C573.149+631.382+570.647+629.575+567.497+628.11C564.348+626.645+560.332+625.913+555.449+625.913C550.419+625.913+545.927+626.779+541.972+628.513C538.017+630.246+534.636+632.761+531.828+636.057C529.021+639.353+526.872+643.393+525.383+648.178C523.894+652.964+523.149+658.261+523.149+664.072C523.149+676.67+526.042+686.362+531.828+693.149C537.614+699.936+545.683+703.33+556.035+703.33C561.064+703.33+565.788+702.671+570.207+701.352C574.626+700.034+579.106+698.154+583.647+695.713L583.647+678.281L566.801+678.281C562.749+678.281+559.685+677.671+557.609+676.45C555.534+675.229+554.497+673.154+554.497+670.224C554.497+667.832+555.363+665.854+557.097+664.292C558.83+662.729+561.186+661.948+564.165+661.948L588.847+661.948C591.875+661.948+594.438+662.216+596.538+662.754C598.637+663.291+600.334+664.487+601.628+666.342C602.922+668.198+603.569+670.981+603.569+674.692Z" opacity="1" fill="#ffffff"/>
<path d="M674.834+708.896L674.834+706.333C672.441+709.36+669.926+711.899+667.29+713.95C664.653+716.001+661.772+717.527+658.647+718.528C655.522+719.528+651.958+720.029+647.954+720.029C643.12+720.029+638.786+719.028+634.953+717.026C631.12+715.024+628.154+712.265+626.054+708.75C623.564+704.502+622.319+698.398+622.319+690.439L622.319+650.815C622.319+646.811+623.222+643.82+625.029+641.843C626.836+639.865+629.228+638.877+632.207+638.877C635.234+638.877+637.675+639.878+639.531+641.88C641.386+643.882+642.314+646.86+642.314+650.815L642.314+682.822C642.314+687.461+642.705+691.355+643.486+694.504C644.267+697.653+645.671+700.119+647.697+701.902C649.724+703.684+652.47+704.575+655.937+704.575C659.306+704.575+662.48+703.574+665.459+701.572C668.437+699.57+670.61+696.958+671.977+693.735C673.1+690.903+673.662+684.702+673.662+675.132L673.662+650.815C673.662+646.86+674.589+643.882+676.445+641.88C678.3+639.878+680.717+638.877+683.696+638.877C686.674+638.877+689.067+639.865+690.874+641.843C692.68+643.82+693.584+646.811+693.584+650.815L693.584+708.75C693.584+712.558+692.717+715.415+690.983+717.319C689.25+719.223+687.016+720.175+684.282+720.175C681.547+720.175+679.289+719.187+677.507+717.209C675.725+715.232+674.834+712.461+674.834+708.896Z" opacity="1" fill="#ffffff"/>
<path d="M733.501+650.229L733.501+708.017C733.501+712.021+732.548+715.049+730.644+717.099C728.74+719.15+726.323+720.175+723.393+720.175C720.463+720.175+718.083+719.126+716.252+717.026C714.421+714.926+713.505+711.924+713.505+708.017L713.505+650.815C713.505+646.86+714.421+643.882+716.252+641.88C718.083+639.878+720.463+638.877+723.393+638.877C726.323+638.877+728.74+639.878+730.644+641.88C732.548+643.882+733.501+646.665+733.501+650.229ZM723.613+629.575C720.83+629.575+718.449+628.72+716.472+627.011C714.494+625.302+713.505+622.885+713.505+619.76C713.505+616.928+714.519+614.597+716.545+612.766C718.571+610.935+720.927+610.019+723.613+610.019C726.201+610.019+728.496+610.849+730.498+612.509C732.5+614.17+733.501+616.587+733.501+619.76C733.501+622.837+732.524+625.241+730.571+626.975C728.618+628.708+726.298+629.575+723.613+629.575Z" opacity="1" fill="#ffffff"/>
<path d="M808.94+708.75L808.94+706.772C806.254+709.848+803.606+712.351+800.993+714.279C798.381+716.208+795.549+717.673+792.497+718.674C789.445+719.675+786.113+720.175+782.5+720.175C777.714+720.175+773.283+719.162+769.206+717.136C765.129+715.11+761.601+712.216+758.623+708.457C755.644+704.697+753.386+700.278+751.848+695.2C750.31+690.122+749.541+684.629+749.541+678.72C749.541+666.22+752.592+656.479+758.696+649.497C764.799+642.514+772.832+639.023+782.793+639.023C788.554+639.023+793.413+640.012+797.368+641.989C801.323+643.967+805.18+647.007+808.94+651.108L808.94+621.591C808.94+617.49+809.758+614.389+811.394+612.29C813.029+610.19+815.361+609.14+818.388+609.14C821.416+609.14+823.747+610.105+825.383+612.033C827.019+613.962+827.836+616.806+827.836+620.566L827.836+708.75C827.836+712.558+826.958+715.415+825.2+717.319C823.442+719.223+821.171+720.175+818.388+720.175C815.654+720.175+813.396+719.187+811.613+717.209C809.831+715.232+808.94+712.412+808.94+708.75ZM769.609+679.38C769.609+684.799+770.451+689.414+772.136+693.222C773.82+697.031+776.128+699.9+779.057+701.828C781.987+703.757+785.185+704.721+788.652+704.721C792.168+704.721+795.378+703.806+798.283+701.975C801.189+700.144+803.508+697.336+805.241+693.552C806.975+689.768+807.841+685.044+807.841+679.38C807.841+674.057+806.975+669.48+805.241+665.647C803.508+661.814+801.164+658.884+798.21+656.858C795.256+654.831+792.021+653.818+788.505+653.818C784.843+653.818+781.572+654.856+778.691+656.931C775.81+659.006+773.576+661.985+771.989+665.866C770.402+669.748+769.609+674.253+769.609+679.38Z" opacity="1" fill="#ffffff"/>
<path d="M903.715+684.433L864.604+684.433C864.653+688.974+865.568+692.978+867.351+696.445C869.133+699.912+871.501+702.524+874.455+704.282C877.409+706.04+880.669+706.919+884.233+706.919C886.626+706.919+888.811+706.638+890.788+706.076C892.766+705.515+894.682+704.636+896.538+703.44C898.393+702.243+900.102+700.962+901.665+699.594C903.227+698.227+905.253+696.372+907.744+694.028C908.769+693.149+910.234+692.71+912.138+692.71C914.189+692.71+915.849+693.271+917.119+694.394C918.388+695.517+919.023+697.104+919.023+699.155C919.023+700.962+918.315+703.073+916.899+705.49C915.483+707.907+913.347+710.227+910.49+712.448C907.634+714.67+904.045+716.513+899.724+717.978C895.402+719.443+890.434+720.175+884.819+720.175C871.977+720.175+861.992+716.513+854.863+709.189C847.734+701.865+844.169+691.928+844.169+679.38C844.169+673.471+845.048+667.99+846.806+662.937C848.564+657.883+851.128+653.549+854.497+649.936C857.866+646.323+862.016+643.552+866.948+641.623C871.879+639.694+877.348+638.73+883.354+638.73C891.167+638.73+897.868+640.378+903.459+643.674C909.05+646.97+913.237+651.23+916.02+656.455C918.803+661.679+920.195+667.002+920.195+672.422C920.195+677.451+918.754+680.71+915.874+682.199C912.993+683.689+908.94+684.433+903.715+684.433ZM864.604+673.081L900.859+673.081C900.371+666.245+898.527+661.13+895.329+657.736C892.131+654.343+887.919+652.646+882.695+652.646C877.714+652.646+873.625+654.367+870.427+657.81C867.229+661.252+865.288+666.342+864.604+673.081Z" opacity="1" fill="#ffffff"/>
</g>
<g opacity="1">
<path d="M312.785+369.075L312.785+484.651C312.785+492.659+310.877+498.714+307.062+502.816C303.246+506.917+298.404+508.968+292.533+508.968C286.663+508.968+281.894+506.868+278.225+502.669C274.556+498.47+272.722+492.464+272.722+484.651L272.722+370.247C272.722+362.337+274.556+356.38+278.225+352.376C281.894+348.372+286.663+346.37+292.533+346.37C298.404+346.37+303.246+348.372+307.062+352.376C310.877+356.38+312.785+361.946+312.785+369.075ZM292.974+327.767C287.397+327.767+282.628+326.058+278.665+322.64C274.703+319.222+272.722+314.388+272.722+308.138C272.722+302.474+274.752+297.811+278.812+294.149C282.872+290.486+287.593+288.655+292.974+288.655C298.159+288.655+302.757+290.316+306.768+293.636C310.78+296.956+312.785+301.79+312.785+308.138C312.785+314.29+310.828+319.1+306.915+322.566C303.002+326.033+298.355+327.767+292.974+327.767Z" opacity="1" fill="url(#LinearGradient)"/>
<path d="M451.612+286.898C473.918+286.898+493.069+291.414+509.065+300.447C525.061+309.481+537.168+322.322+545.386+338.973C553.604+355.623+557.713+375.179+557.713+397.64C557.713+414.241+555.463+429.329+550.962+442.903C546.462+456.478+539.712+468.245+530.711+478.206C521.71+488.167+510.655+495.784+497.545+501.058C484.435+506.331+469.418+508.968+452.492+508.968C435.665+508.968+420.598+506.258+407.293+500.838C393.988+495.418+382.883+487.776+373.98+477.913C365.078+468.05+358.351+456.185+353.802+442.317C349.253+428.45+346.978+413.46+346.978+397.347C346.978+380.843+349.351+365.706+354.096+351.937C358.841+338.167+365.713+326.448+374.714+316.78C383.715+307.112+394.672+299.715+407.586+294.588C420.501+289.461+435.176+286.898+451.612+286.898ZM513.541+397.347C513.541+381.624+510.997+368.001+505.91+356.478C500.822+344.954+493.558+336.238+484.117+330.33C474.676+324.422+463.841+321.468+451.612+321.468C442.905+321.468+434.858+323.104+427.471+326.375C420.085+329.647+413.726+334.407+408.394+340.657C403.062+346.907+398.855+354.891+395.773+364.608C392.691+374.324+391.15+385.237+391.15+397.347C391.15+409.554+392.691+420.589+395.773+430.452C398.855+440.316+403.208+448.494+408.834+454.988C414.459+461.483+420.916+466.341+428.205+469.564C435.494+472.786+443.492+474.398+452.199+474.398C463.352+474.398+473.6+471.614+482.943+466.048C492.286+460.482+499.722+451.888+505.249+440.267C510.777+428.646+513.541+414.339+513.541+397.347Z" opacity="1" fill="url(#LinearGradient_2)"/>
<path d="M758.469+440.853C758.469+453.841+755.118+465.511+748.416+475.862C741.715+486.214+731.907+494.319+718.993+500.179C706.079+506.038+690.767+508.968+673.06+508.968C651.829+508.968+634.317+504.964+620.523+496.956C610.739+491.194+602.79+483.504+596.675+473.885C590.561+464.266+587.504+454.915+587.504+445.833C587.504+440.56+589.338+436.043+593.007+432.283C596.675+428.524+601.347+426.644+607.021+426.644C611.62+426.644+615.509+428.108+618.688+431.038C621.868+433.968+624.583+438.314+626.833+444.075C629.572+450.911+632.532+456.624+635.711+461.214C638.891+465.804+643.367+469.588+649.139+472.566C654.911+475.545+662.493+477.034+671.886+477.034C684.8+477.034+695.292+474.031+703.364+468.025C711.435+462.02+715.471+454.525+715.471+445.54C715.471+438.411+713.294+432.625+708.94+428.182C704.587+423.738+698.961+420.345+692.064+418.001C685.166+415.657+675.946+413.167+664.401+410.53C648.943+406.917+636.005+402.693+625.585+397.859C615.166+393.025+606.899+386.434+600.785+378.084C594.67+369.734+591.613+359.358+591.613+346.956C591.613+335.14+594.841+324.642+601.298+315.462C607.755+306.282+617.098+299.227+629.328+294.295C641.557+289.363+655.939+286.898+672.473+286.898C685.68+286.898+697.102+288.533+706.739+291.805C716.376+295.076+724.374+299.422+730.733+304.842C737.092+310.262+741.739+315.95+744.674+321.907C747.609+327.864+749.077+333.675+749.077+339.339C749.077+344.515+747.242+349.178+743.573+353.328C739.905+357.479+735.331+359.554+729.852+359.554C724.863+359.554+721.072+358.309+718.479+355.818C715.886+353.328+713.074+349.251+710.041+343.587C706.127+335.482+701.431+329.158+695.953+324.617C690.474+320.076+681.669+317.806+669.537+317.806C658.287+317.806+649.212+320.272+642.315+325.203C635.418+330.135+631.969+336.067+631.969+343.001C631.969+347.298+633.143+351.009+635.491+354.134C637.839+357.259+641.068+359.944+645.177+362.191C649.286+364.437+653.444+366.194+657.651+367.464C661.857+368.733+668.804+370.589+678.489+373.03C690.621+375.862+701.603+378.987+711.435+382.405C721.267+385.823+729.632+389.974+736.529+394.857C743.427+399.739+748.808+405.916+752.672+413.387C756.537+420.858+758.469+430.013+758.469+440.853Z" opacity="1" fill="url(#LinearGradient_3)"/>
</g>
<path stroke="#ffffff" stroke-width="12.12" d="M512+7.68194L512+7.68194C790.527+7.68194+1016.32+233.473+1016.32+512L1016.32+512C1016.32+790.527+790.527+1016.32+512+1016.32L512+1016.32C233.473+1016.32+7.68194+790.527+7.68194+512L7.68194+512C7.68194+233.473+233.473+7.68194+512+7.68194Z" fill="none" stroke-linecap="round" opacity="0" stroke-linejoin="round"/>
</g>
</svg>
