<?xml version="1.0" encoding="UTF-8" standalone="no"?> <!-- Created with Vectornator for iOS (http://vectornator.io/) --><!DOCTYPE svg PUBLIC "-//W3C//DTD SVG 1.1//EN" "http://www.w3.org/Graphics/SVG/1.1/DTD/svg11.dtd">
<svg style="fill-rule:evenodd;clip-rule:evenodd;stroke-linecap:round;stroke-linejoin:round;" xmlns:vectornator="http://vectornator.io" xmlns:xlink="http://www.w3.org/1999/xlink" xmlns="http://www.w3.org/2000/svg" xml:space="preserve" version="1.1" viewBox="0 0 1024 1024">
<metadata>
<vectornator:setting key="DimensionsVisible" value="1"/>
<vectornator:setting key="SnapToGrid" value="0"/>
<vectornator:setting key="SnapToPoints" value="0"/>
<vectornator:setting key="GuidesVisible" value="1"/>
<vectornator:setting key="RulersVisible" value="1"/>
<vectornator:setting key="CMYKEnabledKey" value="0"/>
<vectornator:setting key="SnapToEdges" value="0"/>
<vectornator:setting key="DisplayWhiteBackground" value="0"/>
<vectornator:setting key="SnapToGuides" value="1"/>
<vectornator:setting key="GridSpacing" value="200"/>
<vectornator:setting key="Units" value="Pixels"/>
<vectornator:setting key="DynamicGuides" value="0"/>
<vectornator:setting key="New" value="1"/>
</metadata>
<defs/>
<g id="Layer 1" vectornator:layerName="Layer 1">
<path stroke="#ffffff" stroke-width="25" d="M512+14.5L512+14.5C786.762+14.5+1009.5+237.238+1009.5+512L1009.5+512C1009.5+786.762+786.762+1009.5+512+1009.5L512+1009.5C237.238+1009.5+14.5+786.762+14.5+512L14.5+512C14.5+237.238+237.238+14.5+512+14.5Z" fill="#000000" stroke-linecap="round" opacity="1" stroke-linejoin="round"/>
<g opacity="1">
<path d="M397.921+517.021C397.921+542.217+393.453+563.335+384.517+580.376C375.582+597.417+362.471+609.892+345.186+617.803L396.749+675.371L338.594+675.371L299.337+627.324L295.967+627.324C263.155+627.324+237.96+617.803+220.382+598.76C202.803+579.717+194.014+552.373+194.014+516.728C194.014+481.084+202.828+453.862+220.455+435.063C238.082+416.265+263.35+406.865+296.26+406.865C329.171+406.865+354.342+416.338+371.773+435.283C389.205+454.228+397.921+481.474+397.921+517.021ZM241.622+517.021C241.622+540.947+246.163+558.965+255.245+571.074C264.327+583.183+277.901+589.238+295.967+589.238C332.198+589.238+350.313+565.166+350.313+517.021C350.313+468.779+332.296+444.658+296.26+444.658C278.194+444.658+264.571+450.737+255.391+462.895C246.212+475.054+241.622+493.096+241.622+517.021Z" opacity="1" fill="#ffffff"/>
<path d="M487.716+505.303L502.364+505.303C516.719+505.303+527.315+502.91+534.151+498.125C540.987+493.34+544.405+485.82+544.405+475.566C544.405+465.41+540.914+458.183+533.931+453.887C526.949+449.59+516.134+447.441+501.485+447.441L487.716+447.441L487.716+505.303ZM487.716+542.217L487.716+624.394L442.305+624.394L442.305+410.234L504.708+410.234C533.809+410.234+555.342+415.532+569.307+426.128C583.272+436.724+590.255+452.812+590.255+474.394C590.255+486.992+586.788+498.198+579.854+508.013C572.921+517.827+563.106+525.517+550.411+531.084C582.637+579.228+603.634+610.332+613.399+624.394L563.009+624.394L511.885+542.217L487.716+542.217Z" opacity="1" fill="#ffffff"/>
<path d="M634.932+418.291C634.932+403.74+643.038+396.465+659.249+396.465C675.46+396.465+683.565+403.74+683.565+418.291C683.565+425.224+681.539+430.62+677.486+434.477C673.433+438.335+667.354+440.264+659.249+440.264C643.038+440.264+634.932+432.939+634.932+418.291ZM681.514+624.394L636.837+624.394L636.837+460.625L681.514+460.625L681.514+624.394Z" opacity="1" fill="#ffffff"/>
<path d="M797.384+591.728C805.196+591.728+814.571+590.019+825.509+586.601L825.509+619.853C814.376+624.834+800.704+627.324+784.493+627.324C766.622+627.324+753.609+622.807+745.455+613.774C737.301+604.741+733.223+591.191+733.223+573.125L733.223+494.17L711.837+494.17L711.837+475.273L736.446+460.332L749.337+425.762L777.901+425.762L777.901+460.625L823.751+460.625L823.751+494.17L777.901+494.17L777.901+573.125C777.901+579.473+779.683+584.16+783.248+587.187C786.812+590.215+791.524+591.728+797.384+591.728Z" opacity="1" fill="#ffffff"/>
</g>
</g>
</svg>
