<?xml version="1.0" encoding="UTF-8" standalone="no"?> <!-- Created with Vectornator for iOS (http://vectornator.io/) --><!DOCTYPE svg PUBLIC "-//W3C//DTD SVG 1.1//EN" "http://www.w3.org/Graphics/SVG/1.1/DTD/svg11.dtd">
<svg style="fill-rule:evenodd;clip-rule:evenodd;stroke-linecap:round;stroke-linejoin:round;" xmlns:vectornator="http://vectornator.io" xmlns:xlink="http://www.w3.org/1999/xlink" xmlns="http://www.w3.org/2000/svg" xml:space="preserve" version="1.1" viewBox="0 0 1024 1024">
<metadata>
<vectornator:setting key="DisplayWhiteBackground" value="0"/>
<vectornator:setting key="RulersVisible" value="1"/>
<vectornator:setting key="SnapToEdges" value="0"/>
<vectornator:setting key="Units" value="Pixels"/>
<vectornator:setting key="DynamicGuides" value="0"/>
<vectornator:setting key="SnapToPoints" value="0"/>
<vectornator:setting key="CMYKEnabledKey" value="0"/>
<vectornator:setting key="SnapToGrid" value="0"/>
<vectornator:setting key="SnapToGuides" value="1"/>
<vectornator:setting key="ShowGrid" value="1"/>
<vectornator:setting key="GridSpacing" value="60"/>
</metadata>
<defs>
<radialGradient cx="512.797" r="456.424" id="RadialGradient" gradientUnits="userSpaceOnUse" gradientTransform="matrix(1 0 0 1 0 0)" cy="1022.45">
<stop stop-color="#ff9600" offset="0"/>
<stop stop-color="#ff4700" offset="0.551308"/>
<stop stop-color="#ff8100" offset="1"/>
</radialGradient>
</defs>
<g id="Layer 1" vectornator:layerName="Layer 1">
<path d="M80+0L944+0C988.183+0+1024+35.8172+1024+80L1024+944C1024+988.183+988.183+1024+944+1024L80+1024C35.8172+1024+0+988.183+0+944L0+80C0+35.8172+35.8172+0+80+0Z" opacity="1" fill="url(#RadialGradient)"/>
<path d="M511.061+703.77L513.939+703.77C685.733+703.77+825+843.037+825+1014.83L825+1017.71C825+1189.5+685.733+1328.77+513.939+1328.77L511.061+1328.77C339.267+1328.77+200+1189.5+200+1017.71L200+1014.83C200+843.037+339.267+703.77+511.061+703.77Z" opacity="1" fill="#ffdfb1"/>
<g opacity="1">
<path d="M510.472+597.65L510.472+597.65C524.768+597.65+536.358+611.221+536.358+627.961L536.358+828.883C536.358+845.624+524.768+859.195+510.472+859.195L510.472+859.195C496.175+859.195+484.585+845.624+484.585+828.883L484.585+627.961C484.585+611.221+496.175+597.65+510.472+597.65Z" opacity="1" fill="#ffdfb1"/>
<path d="M510.901+1186.11L510.901+1186.11C525.197+1186.11+536.787+1199.68+536.787+1216.42L536.787+1417.34C536.787+1434.08+525.197+1447.65+510.901+1447.65L510.901+1447.65C496.604+1447.65+485.014+1434.08+485.014+1417.34L485.014+1216.42C485.014+1199.68+496.604+1186.11+510.901+1186.11Z" opacity="1" fill="#ffdfb1"/>
<path d="M345.089+1019.81L345.089+1019.81C345.089+1034.16+331.568+1045.79+314.888+1045.79L114.701+1045.79C98.0213+1045.79+84.5+1034.16+84.5+1019.81L84.5+1019.81C84.5+1005.46+98.0213+993.831+114.701+993.831L314.888+993.831C331.568+993.831+345.089+1005.46+345.089+1019.81Z" opacity="1" fill="#ffdfb1"/>
<path d="M934.5+1020.5L934.5+1020.5C934.5+1034.84+920.979+1046.48+904.299+1046.48L704.112+1046.48C687.432+1046.48+673.911+1034.84+673.911+1020.5L673.911+1020.5C673.911+1006.15+687.432+994.514+704.112+994.514L904.299+994.514C920.979+994.514+934.5+1006.15+934.5+1020.5Z" opacity="1" fill="#ffdfb1"/>
</g>
<g opacity="1">
<path d="M809.432+733.495L809.432+733.495C819.541+743.641+818.175+761.463+806.381+773.3L664.827+915.373C653.033+927.211+635.277+928.582+625.168+918.435L625.168+918.435C615.058+908.289+616.424+890.468+628.218+878.63L769.772+736.557C781.567+724.72+799.323+723.349+809.432+733.495Z" opacity="1" fill="#ffdfb1"/>
<path d="M395.155+1149.9L395.155+1149.9C405.265+1160.05+403.899+1177.87+392.105+1189.71L250.551+1331.78C238.757+1343.62+221+1344.99+210.891+1334.84L210.891+1334.84C200.782+1324.69+202.148+1306.87+213.942+1295.04L355.496+1152.96C367.29+1141.12+385.046+1139.75+395.155+1149.9Z" opacity="1" fill="#ffdfb1"/>
<path d="M395.066+914.636L395.066+914.636C384.957+924.783+367.201+923.412+355.407+911.574L213.853+769.501C202.059+757.664+200.693+739.842+210.802+729.696L210.802+729.696C220.911+719.55+238.668+720.921+250.462+732.758L392.016+874.831C403.81+886.669+405.175+904.49+395.066+914.636Z" opacity="1" fill="#ffdfb1"/>
<path d="M811.361+1333.43L811.361+1333.43C801.252+1343.57+783.496+1342.2+771.701+1330.36L630.148+1188.29C618.353+1176.45+616.988+1158.63+627.097+1148.49L627.097+1148.49C637.206+1138.34+654.962+1139.71+666.756+1151.55L808.31+1293.62C820.104+1305.46+821.47+1323.28+811.361+1333.43Z" opacity="1" fill="#ffdfb1"/>
</g>
<g opacity="1">
<path d="M901.335+866.295L901.335+866.295C906.792+879.537+898.711+895.479+883.284+901.902L698.136+978.991C682.71+985.413+665.781+979.885+660.324+966.642L660.324+966.642C654.867+953.4+662.949+937.458+678.375+931.035L863.523+853.947C878.949+847.524+895.879+853.052+901.335+866.295Z" opacity="1" fill="#ffdfb1"/>
<path d="M359.243+1092.47L359.243+1092.47C364.7+1105.71+356.618+1121.65+341.191+1128.07L156.044+1205.16C140.617+1211.58+123.688+1206.06+118.231+1192.81L118.231+1192.81C112.774+1179.57+120.856+1163.63+136.282+1157.21L321.43+1080.12C336.857+1073.69+353.786+1079.22+359.243+1092.47Z" opacity="1" fill="#ffdfb1"/>
<path d="M449.192+875.077L449.192+875.077C435.969+880.582+420.089+872.52+413.723+857.071L337.313+671.642C330.947+656.192+336.505+639.205+349.727+633.699L349.727+633.699C362.95+628.194+378.83+636.255+385.196+651.705L461.606+837.134C467.972+852.584+462.414+869.571+449.192+875.077Z" opacity="1" fill="#ffdfb1"/>
<path d="M673.534+1421.3L673.534+1421.3C660.312+1426.8+644.432+1418.74+638.065+1403.29L561.656+1217.86C555.289+1202.41+560.847+1185.42+574.07+1179.92L574.07+1179.92C587.292+1174.41+603.172+1182.48+609.539+1197.92L685.948+1383.35C692.315+1398.8+686.757+1415.79+673.534+1421.3Z" opacity="1" fill="#ffdfb1"/>
</g>
<g opacity="1">
<path d="M672.425+641.475L672.425+641.475C685.648+646.98+691.206+663.968+684.839+679.418L608.43+864.846C602.063+880.296+586.183+888.358+572.961+882.852L572.961+882.852C559.738+877.347+554.18+860.36+560.547+844.91L636.956+659.481C643.323+644.031+659.203+635.97+672.425+641.475Z" opacity="1" fill="#ffdfb1"/>
<path d="M449.035+1184.72L449.035+1184.72C462.257+1190.23+467.815+1207.21+461.449+1222.66L385.039+1408.09C378.673+1423.54+362.793+1431.6+349.57+1426.1L349.57+1426.1C336.348+1420.59+330.79+1403.6+337.156+1388.15L413.566+1202.73C419.932+1187.28+435.812+1179.21+449.035+1184.72Z" opacity="1" fill="#ffdfb1"/>
<path d="M358.921+967.399L358.921+967.399C353.464+980.641+336.535+986.17+321.109+979.747L135.961+902.659C120.534+896.236+112.453+880.294+117.909+867.051L117.909+867.051C123.366+853.808+140.296+848.28+155.722+854.703L340.87+931.791C356.296+938.214+364.378+954.156+358.921+967.399Z" opacity="1" fill="#ffdfb1"/>
<path d="M903.791+1195L903.791+1195C898.334+1208.24+881.405+1213.77+865.978+1207.35L680.831+1130.26C665.404+1123.84+657.322+1107.9+662.779+1094.65L662.779+1094.65C668.236+1081.41+685.165+1075.88+700.592+1082.3L885.74+1159.39C901.166+1165.82+909.248+1181.76+903.791+1195Z" opacity="1" fill="#ffdfb1"/>
</g>
</g>
</svg>
