<?xml version="1.0" encoding="UTF-8" standalone="no"?> <!-- Created with Vectornator for iOS (http://vectornator.io/) --><!DOCTYPE svg PUBLIC "-//W3C//DTD SVG 1.1//EN" "http://www.w3.org/Graphics/SVG/1.1/DTD/svg11.dtd">
<svg style="fill-rule:evenodd;clip-rule:evenodd;stroke-linecap:round;stroke-linejoin:round;" xmlns:vectornator="http://vectornator.io" xmlns:xlink="http://www.w3.org/1999/xlink" xmlns="http://www.w3.org/2000/svg" xml:space="preserve" version="1.1" viewBox="0 0 1024 1024">
<metadata>
<vectornator:setting key="DimensionsVisible" value="1"/>
<vectornator:setting key="New" value="1"/>
<vectornator:setting key="SnapToPoints" value="0"/>
<vectornator:setting key="GuidesVisible" value="1"/>
<vectornator:setting key="RulersVisible" value="1"/>
<vectornator:setting key="CMYKEnabledKey" value="0"/>
<vectornator:setting key="SnapToEdges" value="0"/>
<vectornator:setting key="DisplayWhiteBackground" value="0"/>
<vectornator:setting key="SnapToGuides" value="1"/>
<vectornator:setting key="GridSpacing" value="200"/>
<vectornator:setting key="Units" value="Pixels"/>
<vectornator:setting key="DynamicGuides" value="0"/>
<vectornator:setting key="SnapToGrid" value="0"/>
</metadata>
<defs>
<linearGradient y1="286.396" id="LinearGradient" x1="92.6045" y2="290.53" x2="1052.74" gradientUnits="userSpaceOnUse" gradientTransform="matrix(1.00182 0 0 1 -61.583 166.738)">
<stop stop-color="#00bddd" offset="0"/>
<stop stop-color="#00bddd" offset="0.507282"/>
<stop stop-color="#ff564f" offset="0.524272"/>
</linearGradient>
<linearGradient y1="286.396" id="LinearGradient_2" x1="92.6045" y2="290.53" x2="1052.74" gradientUnits="userSpaceOnUse" gradientTransform="matrix(1.00182 0 0 1 -61.583 166.738)">
<stop stop-color="#00bddd" offset="0"/>
<stop stop-color="#00bddd" offset="0.507282"/>
<stop stop-color="#ff564f" offset="0.524272"/>
</linearGradient>
<linearGradient y1="286.396" id="LinearGradient_3" x1="92.6045" y2="290.53" x2="1052.74" gradientUnits="userSpaceOnUse" gradientTransform="matrix(1.00182 0 0 1 -61.583 166.738)">
<stop stop-color="#00bddd" offset="0"/>
<stop stop-color="#00bddd" offset="0.507282"/>
<stop stop-color="#ff564f" offset="0.524272"/>
</linearGradient>
<linearGradient y1="286.396" id="LinearGradient_4" x1="92.6045" y2="290.53" x2="1052.74" gradientUnits="userSpaceOnUse" gradientTransform="matrix(1.00182 0 0 1 -61.583 166.738)">
<stop stop-color="#00bddd" offset="0"/>
<stop stop-color="#00bddd" offset="0.507282"/>
<stop stop-color="#ff564f" offset="0.524272"/>
</linearGradient>
<linearGradient y1="286.396" id="LinearGradient_5" x1="92.6045" y2="290.53" x2="1052.74" gradientUnits="userSpaceOnUse" gradientTransform="matrix(1.00182 0 0 1 -61.583 166.738)">
<stop stop-color="#00bddd" offset="0"/>
<stop stop-color="#00bddd" offset="0.507282"/>
<stop stop-color="#ff564f" offset="0.524272"/>
</linearGradient>
<linearGradient y1="286.396" id="LinearGradient_6" x1="92.6045" y2="290.53" x2="1052.74" gradientUnits="userSpaceOnUse" gradientTransform="matrix(1.00182 0 0 1 -61.583 166.738)">
<stop stop-color="#00bddd" offset="0"/>
<stop stop-color="#00bddd" offset="0.507282"/>
<stop stop-color="#ff564f" offset="0.524272"/>
</linearGradient>
</defs>
<g id="Layer 1" vectornator:layerName="Layer 1">
<path d="M1.43144e-05+0L1024+0L1024+1024L1.43144e-05+1024L1.43144e-05+0Z" opacity="1" fill="#2b2e35"/>
<path d="M0+188L1024+188L1024+836L0+836L0+188Z" opacity="1" fill="#1f2229"/>
<g opacity="1">
<path d="M207.698+684.032C207.698+687.45+206.856+691.149+205.171+695.128C203.487+699.108+200.838+703.014+197.225+706.847C193.611+710.68+188.997+713.793+183.382+716.186C177.767+718.578+171.224+719.774+163.753+719.774C158.089+719.774+152.938+719.237+148.299+718.163C143.66+717.089+139.449+715.417+135.665+713.146C131.88+710.875+128.401+707.885+125.228+704.174C122.396+700.805+119.979+697.033+117.977+692.858C115.975+688.683+114.473+684.228+113.472+679.491C112.471+674.755+111.971+669.726+111.971+664.403C111.971+655.761+113.228+648.021+115.743+641.186C118.257+634.35+121.858+628.502+126.546+623.644C131.233+618.786+136.727+615.087+143.025+612.548C149.324+610.009+156.038+608.739+163.167+608.739C171.858+608.739+179.598+610.473+186.385+613.939C193.172+617.406+198.372+621.691+201.985+626.793C205.599+631.896+207.405+636.718+207.405+641.259C207.405+643.749+206.526+645.946+204.769+647.851C203.011+649.755+200.887+650.707+198.396+650.707C195.613+650.707+193.526+650.048+192.134+648.729C190.743+647.411+189.192+645.141+187.483+641.918C184.651+636.596+181.319+632.616+177.486+629.979C173.653+627.343+168.929+626.024+163.313+626.024C154.378+626.024+147.261+629.418+141.963+636.205C136.666+642.992+134.017+652.636+134.017+665.136C134.017+673.485+135.188+680.431+137.532+685.973C139.876+691.515+143.196+695.653+147.493+698.388C151.79+701.122+156.819+702.489+162.581+702.489C168.831+702.489+174.117+700.939+178.438+697.838C182.759+694.738+186.019+690.185+188.216+684.179C189.144+681.347+190.291+679.04+191.658+677.257C193.025+675.475+195.223+674.584+198.25+674.584C200.838+674.584+203.06+675.487+204.915+677.294C206.771+679.101+207.698+681.347+207.698+684.032Z" opacity="1" fill="#ffffff"/>
<path d="M291.414+627.343L248.567+627.343L248.567+654.809L284.383+654.809C287.703+654.809+290.181+655.553+291.817+657.042C293.453+658.532+294.271+660.521+294.271+663.012C294.271+665.502+293.44+667.479+291.78+668.944C290.12+670.409+287.654+671.142+284.383+671.142L248.567+671.142L248.567+706.518C248.567+711.01+247.554+714.342+245.528+716.515C243.501+718.688+240.901+719.774+237.728+719.774C234.505+719.774+231.88+718.676+229.854+716.479C227.828+714.281+226.814+710.961+226.814+706.518L226.814+623.9C226.814+620.775+227.278+618.224+228.206+616.247C229.134+614.269+230.586+612.829+232.564+611.925C234.542+611.022+237.068+610.57+240.145+610.57L291.414+610.57C294.881+610.57+297.457+611.339+299.141+612.877C300.826+614.416+301.668+616.43+301.668+618.92C301.668+621.459+300.826+623.498+299.141+625.036C297.457+626.574+294.881+627.343+291.414+627.343Z" opacity="1" fill="#ffffff"/>
<path d="M393.88+701.024L376.521+636.645L358.943+701.024C357.576+705.907+356.49+709.411+355.684+711.535C354.878+713.659+353.475+715.563+351.473+717.248C349.471+718.932+346.81+719.774+343.489+719.774C340.804+719.774+338.594+719.274+336.861+718.273C335.127+717.272+333.724+715.856+332.649+714.025C331.575+712.194+330.696+710.021+330.013+707.506C329.329+704.992+328.719+702.66+328.182+700.512L310.311+628.222C309.236+624.022+308.699+620.824+308.699+618.627C308.699+615.844+309.676+613.5+311.629+611.596C313.582+609.691+315.999+608.739+318.88+608.739C322.835+608.739+325.496+610.009+326.863+612.548C328.23+615.087+329.427+618.773+330.452+623.607L344.515+686.303L360.262+627.636C361.434+623.144+362.483+619.726+363.411+617.382C364.339+615.038+365.853+613.012+367.952+611.303C370.052+609.594+372.908+608.739+376.521+608.739C380.184+608.739+383.028+609.63+385.054+611.413C387.081+613.195+388.484+615.136+389.266+617.235C390.047+619.335+391.097+622.802+392.415+627.636L408.309+686.303L422.371+623.607C423.055+620.336+423.702+617.772+424.312+615.917C424.922+614.062+425.972+612.401+427.461+610.937C428.951+609.472+431.111+608.739+433.943+608.739C436.775+608.739+439.18+609.679+441.158+611.559C443.135+613.439+444.124+615.795+444.124+618.627C444.124+620.629+443.587+623.827+442.513+628.222L424.642+700.512C423.421+705.395+422.408+708.971+421.602+711.242C420.796+713.512+419.429+715.502+417.5+717.211C415.572+718.92+412.85+719.774+409.334+719.774C406.014+719.774+403.353+718.944+401.351+717.284C399.349+715.624+397.957+713.756+397.176+711.681C396.395+709.606+395.296+706.054+393.88+701.024Z" opacity="1" fill="#ffffff"/>
<path d="M470.418+719.774C467.391+719.774+464.778+718.798+462.581+716.845C460.384+714.892+459.285+712.157+459.285+708.642C459.285+705.663+460.335+703.1+462.435+700.951C464.534+698.803+467.122+697.729+470.198+697.729C473.274+697.729+475.899+698.791+478.072+700.915C480.245+703.039+481.331+705.614+481.331+708.642C481.331+712.108+480.245+714.831+478.072+716.808C475.899+718.786+473.348+719.774+470.418+719.774Z" opacity="1" fill="#ffffff"/>
<path d="M603.572+674.291L603.572+694.872C603.572+697.606+603.304+699.792+602.767+701.427C602.229+703.063+601.241+704.54+599.8+705.858C598.36+707.177+596.517+708.446+594.271+709.667C587.776+713.183+581.526+715.746+575.521+717.357C569.515+718.969+562.972+719.774+555.892+719.774C547.64+719.774+540.12+718.505+533.333+715.966C526.546+713.427+520.76+709.74+515.975+704.906C511.189+700.072+507.515+694.213+504.952+687.328C502.388+680.443+501.106+672.753+501.106+664.257C501.106+655.907+502.352+648.266+504.842+641.332C507.332+634.398+510.994+628.515+515.828+623.681C520.662+618.847+526.546+615.148+533.479+612.584C540.413+610.021+548.274+608.739+557.063+608.739C564.29+608.739+570.687+609.704+576.253+611.632C581.819+613.561+586.336+615.99+589.803+618.92C593.27+621.85+595.882+624.95+597.64+628.222C599.397+631.493+600.276+634.398+600.276+636.938C600.276+639.672+599.263+642.003+597.237+643.932C595.21+645.861+592.781+646.825+589.949+646.825C588.387+646.825+586.885+646.459+585.445+645.727C584.004+644.994+582.796+643.969+581.819+642.65C579.134+638.451+576.863+635.277+575.008+633.129C573.152+630.98+570.65+629.174+567.5+627.709C564.351+626.244+560.335+625.512+555.452+625.512C550.423+625.512+545.931+626.378+541.976+628.112C538.021+629.845+534.639+632.36+531.832+635.656C529.024+638.952+526.875+642.992+525.386+647.777C523.897+652.563+523.152+657.86+523.152+663.671C523.152+676.269+526.045+685.961+531.832+692.748C537.618+699.535+545.687+702.929+556.038+702.929C561.067+702.929+565.792+702.27+570.21+700.951C574.629+699.633+579.109+697.753+583.65+695.312L583.65+677.88L566.805+677.88C562.752+677.88+559.688+677.27+557.613+676.049C555.538+674.828+554.5+672.753+554.5+669.823C554.5+667.431+555.367+665.453+557.1+663.891C558.833+662.328+561.189+661.547+564.168+661.547L588.851+661.547C591.878+661.547+594.441+661.815+596.541+662.353C598.641+662.89+600.337+664.086+601.631+665.941C602.925+667.797+603.572+670.58+603.572+674.291Z" opacity="1" fill="#ffffff"/>
<path d="M674.837+708.495L674.837+705.932C672.444+708.959+669.93+711.498+667.293+713.549C664.656+715.6+661.775+717.125+658.65+718.126C655.525+719.127+651.961+719.628+647.957+719.628C643.123+719.628+638.79+718.627+634.957+716.625C631.124+714.623+628.157+711.864+626.058+708.349C623.567+704.101+622.322+697.997+622.322+690.038L622.322+650.414C622.322+646.41+623.226+643.419+625.032+641.442C626.839+639.464+629.231+638.476+632.21+638.476C635.237+638.476+637.679+639.477+639.534+641.479C641.39+643.48+642.317+646.459+642.317+650.414L642.317+682.421C642.317+687.06+642.708+690.954+643.489+694.103C644.271+697.252+645.674+699.718+647.701+701.5C649.727+703.283+652.474+704.174+655.94+704.174C659.31+704.174+662.483+703.173+665.462+701.171C668.44+699.169+670.613+696.557+671.98+693.334C673.104+690.502+673.665+684.301+673.665+674.73L673.665+650.414C673.665+646.459+674.593+643.48+676.448+641.479C678.304+639.477+680.721+638.476+683.699+638.476C686.678+638.476+689.07+639.464+690.877+641.442C692.684+643.419+693.587+646.41+693.587+650.414L693.587+708.349C693.587+712.157+692.72+715.014+690.987+716.918C689.253+718.822+687.02+719.774+684.285+719.774C681.551+719.774+679.292+718.786+677.51+716.808C675.728+714.831+674.837+712.06+674.837+708.495Z" opacity="1" fill="#ffffff"/>
<path d="M733.504+649.828L733.504+707.616C733.504+711.62+732.552+714.647+730.647+716.698C728.743+718.749+726.326+719.774+723.396+719.774C720.467+719.774+718.086+718.725+716.255+716.625C714.424+714.525+713.509+711.522+713.509+707.616L713.509+650.414C713.509+646.459+714.424+643.48+716.255+641.479C718.086+639.477+720.467+638.476+723.396+638.476C726.326+638.476+728.743+639.477+730.647+641.479C732.552+643.48+733.504+646.264+733.504+649.828ZM723.616+629.174C720.833+629.174+718.453+628.319+716.475+626.61C714.498+624.901+713.509+622.484+713.509+619.359C713.509+616.527+714.522+614.196+716.548+612.365C718.575+610.534+720.931+609.618+723.616+609.618C726.204+609.618+728.499+610.448+730.501+612.108C732.503+613.769+733.504+616.186+733.504+619.359C733.504+622.436+732.527+624.84+730.574+626.574C728.621+628.307+726.302+629.174+723.616+629.174Z" opacity="1" fill="#ffffff"/>
<path d="M808.943+708.349L808.943+706.371C806.258+709.447+803.609+711.95+800.997+713.878C798.384+715.807+795.552+717.272+792.5+718.273C789.449+719.274+786.116+719.774+782.503+719.774C777.718+719.774+773.287+718.761+769.209+716.735C765.132+714.708+761.604+711.815+758.626+708.056C755.647+704.296+753.389+699.877+751.851+694.799C750.313+689.721+749.544+684.228+749.544+678.319C749.544+665.819+752.596+656.078+758.699+649.096C764.803+642.113+772.835+638.622+782.796+638.622C788.558+638.622+793.416+639.611+797.371+641.588C801.326+643.566+805.184+646.605+808.943+650.707L808.943+621.19C808.943+617.089+809.761+613.988+811.397+611.889C813.033+609.789+815.364+608.739+818.392+608.739C821.419+608.739+823.75+609.704+825.386+611.632C827.022+613.561+827.84+616.405+827.84+620.165L827.84+708.349C827.84+712.157+826.961+715.014+825.203+716.918C823.445+718.822+821.175+719.774+818.392+719.774C815.657+719.774+813.399+718.786+811.617+716.808C809.834+714.831+808.943+712.011+808.943+708.349ZM769.612+678.979C769.612+684.398+770.455+689.013+772.139+692.821C773.824+696.63+776.131+699.499+779.061+701.427C781.99+703.356+785.188+704.32+788.655+704.32C792.171+704.32+795.381+703.405+798.287+701.574C801.192+699.743+803.511+696.935+805.245+693.151C806.978+689.367+807.845+684.643+807.845+678.979C807.845+673.656+806.978+669.079+805.245+665.246C803.511+661.413+801.167+658.483+798.213+656.457C795.259+654.43+792.024+653.417+788.509+653.417C784.847+653.417+781.575+654.455+778.694+656.53C775.813+658.605+773.58+661.583+771.993+665.465C770.406+669.347+769.612+673.852+769.612+678.979Z" opacity="1" fill="#ffffff"/>
<path d="M903.719+684.032L864.607+684.032C864.656+688.573+865.572+692.577+867.354+696.044C869.136+699.511+871.504+702.123+874.458+703.881C877.413+705.639+880.672+706.518+884.236+706.518C886.629+706.518+888.814+706.237+890.792+705.675C892.769+705.114+894.686+704.235+896.541+703.039C898.396+701.842+900.105+700.561+901.668+699.193C903.23+697.826+905.257+695.971+907.747+693.627C908.772+692.748+910.237+692.309+912.142+692.309C914.192+692.309+915.853+692.87+917.122+693.993C918.392+695.116+919.026+696.703+919.026+698.754C919.026+700.561+918.318+702.672+916.902+705.089C915.486+707.506+913.35+709.826+910.494+712.047C907.637+714.269+904.048+716.112+899.727+717.577C895.406+719.042+890.438+719.774+884.822+719.774C871.98+719.774+861.995+716.112+854.866+708.788C847.737+701.464+844.173+691.527+844.173+678.979C844.173+673.07+845.052+667.589+846.81+662.536C848.567+657.482+851.131+653.148+854.5+649.535C857.869+645.922+862.02+643.151+866.951+641.222C871.883+639.293+877.352+638.329+883.357+638.329C891.17+638.329+897.872+639.977+903.462+643.273C909.053+646.569+913.24+650.829+916.023+656.054C918.807+661.278+920.198+666.601+920.198+672.021C920.198+677.05+918.758+680.309+915.877+681.798C912.996+683.288+908.943+684.032+903.719+684.032ZM864.607+672.68L900.862+672.68C900.374+665.844+898.531+660.729+895.333+657.335C892.134+653.942+887.923+652.245+882.698+652.245C877.718+652.245+873.628+653.966+870.43+657.409C867.232+660.851+865.291+665.941+864.607+672.68Z" opacity="1" fill="#ffffff"/>
</g>
<path stroke="#ffffff" stroke-width="12.12" d="M512+7.68194L512+7.68194C790.527+7.68194+1016.32+233.473+1016.32+512L1016.32+512C1016.32+790.527+790.527+1016.32+512+1016.32L512+1016.32C233.473+1016.32+7.68195+790.527+7.68195+512L7.68195+512C7.68195+233.473+233.473+7.68194+512+7.68194Z" fill="none" stroke-linecap="round" opacity="0" stroke-linejoin="round"/>
<g opacity="1">
<path d="M239.706+457.922C239.706+469.352+236.757+479.621+230.86+488.731C224.962+497.84+216.331+504.973+204.967+510.129C193.603+515.285+180.129+517.864+164.546+517.864C145.863+517.864+130.453+514.34+118.313+507.293C109.704+502.223+102.709+495.455+97.3279+486.99C91.947+478.526+89.2566+470.297+89.2566+462.305C89.2566+457.664+90.8708+453.69+94.0994+450.381C97.3279+447.073+101.439+445.418+106.432+445.418C110.479+445.418+113.901+446.707+116.699+449.285C119.497+451.864+121.886+455.688+123.866+460.758C126.277+466.774+128.881+471.801+131.679+475.84C134.477+479.879+138.416+483.209+143.496+485.83C148.575+488.451+155.248+489.762+163.513+489.762C174.877+489.762+184.111+487.119+191.213+481.834C198.316+476.549+201.868+469.953+201.868+462.047C201.868+455.774+199.952+450.682+196.121+446.772C192.29+442.862+187.339+439.875+181.27+437.813C175.2+435.75+167.086+433.559+156.927+431.239C143.324+428.059+131.938+424.342+122.769+420.088C113.6+415.834+106.325+410.033+100.944+402.686C95.563+395.338+92.8725+386.207+92.8725+375.293C92.8725+364.895+95.7136+355.656+101.396+347.578C107.078+339.5+115.3+333.291+126.062+328.951C136.824+324.612+149.479+322.442+164.029+322.442C175.652+322.442+185.703+323.881+194.184+326.76C202.664+329.639+209.702+333.463+215.298+338.233C220.894+343.002+224.984+348.008+227.567+353.25C230.15+358.492+231.441+363.606+231.441+368.59C231.441+373.145+229.827+377.248+226.598+380.901C223.37+384.553+219.345+386.379+214.523+386.379C210.133+386.379+206.796+385.283+204.515+383.092C202.234+380.901+199.758+377.313+197.089+372.328C193.646+365.196+189.513+359.631+184.692+355.635C179.871+351.639+172.122+349.641+161.446+349.641C151.546+349.641+143.56+351.811+137.491+356.151C131.421+360.49+128.386+365.711+128.386+371.813C128.386+375.594+129.419+378.86+131.486+381.61C133.552+384.36+136.393+386.723+140.009+388.699C143.625+390.676+147.284+392.223+150.986+393.34C154.688+394.457+160.801+396.09+169.324+398.239C180+400.731+189.664+403.481+198.316+406.489C206.969+409.496+214.33+413.149+220.399+417.446C226.469+421.742+231.204+427.178+234.605+433.752C238.006+440.326+239.706+448.383+239.706+457.922Z" opacity="1" fill="url(#LinearGradient)"/>
<path d="M291.75+396.692L314.737+475.324L335.658+402.235C337.896+394.586+339.554+389.365+340.63+386.573C341.706+383.78+343.729+381.115+346.699+378.58C349.67+376.045+353.738+374.778+358.903+374.778C364.155+374.778+368.266+376.045+371.236+378.58C374.206+381.115+376.294+383.865+377.5+386.83C378.705+389.795+380.384+394.93+382.536+402.235L403.457+475.324L426.702+396.692C428.252+391.02+429.5+386.916+430.447+384.381C431.394+381.846+432.987+379.612+435.226+377.678C437.464+375.744+440.693+374.778+444.911+374.778C449.13+374.778+452.789+376.239+455.888+379.16C458.988+382.082+460.537+385.52+460.537+389.473C460.537+393.082+459.203+398.539+456.534+405.844L427.735+490.149C425.239+497.281+423.302+502.438+421.924+505.617C420.547+508.797+418.373+511.633+415.402+514.125C412.432+516.617+408.364+517.864+403.199+517.864C397.861+517.864+393.664+516.531+390.607+513.867C387.551+511.203+385.291+507.938+383.827+504.071C382.364+500.203+380.771+495.176+379.049+488.989L358.903+420.41L339.403+488.989C336.82+498.528+334.022+505.725+331.009+510.58C327.995+515.436+322.701+517.864+315.124+517.864C311.25+517.864+307.957+517.112+305.245+515.608C302.533+514.104+300.273+511.955+298.465+509.162C296.657+506.369+295.064+503.061+293.687+499.237C292.309+495.412+291.233+492.383+290.458+490.149L261.918+405.844C259.077+397.938+257.657+392.481+257.657+389.473C257.657+385.692+259.163+382.297+262.177+379.289C265.19+376.281+268.892+374.778+273.283+374.778C279.137+374.778+283.097+376.432+285.164+379.74C287.23+383.049+289.425+388.699+291.75+396.692Z" opacity="1" fill="url(#LinearGradient_2)"/>
<path d="M520.071+394.758L520.071+496.465C520.071+503.512+518.392+508.84+515.035+512.449C511.677+516.059+507.415+517.864+502.25+517.864C497.084+517.864+492.887+516.016+489.659+512.321C486.43+508.625+484.816+503.34+484.816+496.465L484.816+395.789C484.816+388.828+486.43+383.586+489.659+380.063C492.887+376.539+497.084+374.778+502.25+374.778C507.415+374.778+511.677+376.539+515.035+380.063C518.392+383.586+520.071+388.485+520.071+394.758ZM502.637+358.406C497.73+358.406+493.533+356.903+490.046+353.895C486.559+350.887+484.816+346.633+484.816+341.133C484.816+336.149+486.602+332.045+490.175+328.823C493.748+325.6+497.902+323.989+502.637+323.989C507.2+323.989+511.247+325.449+514.777+328.371C518.306+331.293+520.071+335.547+520.071+341.133C520.071+346.547+518.349+350.78+514.906+353.83C511.462+356.881+507.372+358.406+502.637+358.406Z" opacity="1" fill="url(#LinearGradient_3)"/>
<path d="M558.426+377.871L562.3+377.871L562.3+356.731C562.3+351.059+562.451+346.612+562.752+343.389C563.054+340.166+563.893+337.395+565.271+335.074C566.648+332.668+568.628+330.713+571.211+329.209C573.794+327.705+576.678+326.953+579.864+326.953C584.341+326.953+588.387+328.629+592.003+331.981C594.414+334.215+595.942+336.944+596.587+340.166C597.233+343.389+597.556+347.965+597.556+353.895L597.556+377.871L610.47+377.871C615.464+377.871+619.273+379.053+621.899+381.416C624.525+383.78+625.838+386.809+625.838+390.504C625.838+395.231+623.965+398.539+620.22+400.43C616.475+402.321+611.116+403.266+604.142+403.266L597.556+403.266L597.556+467.977C597.556+473.477+597.75+477.709+598.137+480.674C598.525+483.639+599.558+486.045+601.237+487.893C602.915+489.74+605.649+490.664+609.437+490.664C611.503+490.664+614.301+490.299+617.831+489.569C621.361+488.838+624.116+488.473+626.096+488.473C628.937+488.473+631.499+489.612+633.78+491.889C636.062+494.166+637.202+496.981+637.202+500.332C637.202+506.004+634.103+510.344+627.904+513.352C621.705+516.36+612.795+517.864+601.172+517.864C590.152+517.864+581.801+516.016+576.119+512.321C570.436+508.625+566.713+503.512+564.948+496.981C563.183+490.449+562.3+481.727+562.3+470.813L562.3+403.266L557.651+403.266C552.572+403.266+548.698+402.063+546.029+399.656C543.36+397.25+542.025+394.199+542.025+390.504C542.025+386.809+543.424+383.78+546.222+381.416C549.02+379.053+553.088+377.871+558.426+377.871Z" opacity="1" fill="url(#LinearGradient_4)"/>
<path d="M776.546+474.293C776.546+478.676+775.233+483.36+772.607+488.344C769.981+493.328+765.978+498.076+760.597+502.588C755.216+507.1+748.436+510.731+740.257+513.481C732.078+516.231+722.866+517.606+712.621+517.606C690.839+517.606+673.835+511.268+661.61+498.592C649.385+485.916+643.272+468.922+643.272+447.61C643.272+433.172+646.07+420.41+651.666+409.324C657.262+398.239+665.355+389.666+675.945+383.608C686.534+377.549+699.19+374.52+713.912+374.52C723.038+374.52+731.411+375.852+739.03+378.516C746.649+381.18+753.106+384.617+758.401+388.828C763.696+393.039+767.742+397.53+770.541+402.299C773.339+407.069+774.738+411.516+774.738+415.641C774.738+419.852+773.166+423.418+770.024+426.34C766.882+429.262+763.072+430.723+758.595+430.723C755.668+430.723+753.236+429.971+751.298+428.467C749.361+426.963+747.187+424.535+744.777+421.184C740.472+414.653+735.974+409.754+731.282+406.489C726.589+403.223+720.627+401.59+713.396+401.59C702.978+401.59+694.584+405.651+688.213+413.772C681.842+421.893+678.657+433+678.657+447.094C678.657+453.711+679.474+459.791+681.11+465.334C682.746+470.877+685.114+475.604+688.213+479.514C691.312+483.424+695.058+486.389+699.448+488.408C703.839+490.428+708.66+491.438+713.912+491.438C720.972+491.438+727.02+489.805+732.056+486.539C737.093+483.274+741.548+478.289+745.423+471.586C747.575+467.633+749.899+464.539+752.396+462.305C754.893+460.071+757.949+458.953+761.565+458.953C765.87+458.953+769.443+460.586+772.284+463.852C775.125+467.117+776.546+470.598+776.546+474.293Z" opacity="1" fill="url(#LinearGradient_5)"/>
<path d="M841.762+343.84L841.762+396.047C846.239+390.891+850.608+386.809+854.87+383.801C859.131+380.793+863.845+378.537+869.011+377.033C874.176+375.53+879.729+374.778+885.67+374.778C894.624+374.778+902.566+376.668+909.496+380.449C916.427+384.231+921.872+389.731+925.833+396.949C928.329+401.16+930.008+405.865+930.869+411.065C931.73+416.264+932.161+422.258+932.161+429.047L932.161+496.465C932.161+503.512+930.546+508.84+927.318+512.449C924.089+516.059+919.806+517.864+914.468+517.864C902.846+517.864+897.034+510.731+897.034+496.465L897.034+437.039C897.034+425.781+895.355+417.123+891.998+411.065C888.64+405.006+882.269+401.977+872.885+401.977C866.6+401.977+860.939+403.76+855.903+407.326C850.866+410.893+847.1+415.77+844.603+421.957C842.709+427.199+841.762+436.524+841.762+449.93L841.762+496.465C841.762+503.426+840.191+508.733+837.048+512.385C833.906+516.037+829.536+517.864+823.94+517.864C812.318+517.864+806.506+510.731+806.506+496.465L806.506+343.84C806.506+336.707+808.034+331.358+811.091+327.791C814.147+324.225+818.43+322.442+823.94+322.442C829.536+322.442+833.906+324.246+837.048+327.856C840.191+331.465+841.762+336.793+841.762+343.84Z" opacity="1" fill="url(#LinearGradient_6)"/>
</g>
</g>
</svg>
