<?xml version="1.0" encoding="UTF-8" standalone="no"?> <!-- Created with Vectornator for iOS (http://vectornator.io/) --><!DOCTYPE svg PUBLIC "-//W3C//DTD SVG 1.1//EN" "http://www.w3.org/Graphics/SVG/1.1/DTD/svg11.dtd">
<svg style="fill-rule:evenodd;clip-rule:evenodd;stroke-linecap:round;stroke-linejoin:round;" xmlns:vectornator="http://vectornator.io" xmlns:xlink="http://www.w3.org/1999/xlink" xmlns="http://www.w3.org/2000/svg" xml:space="preserve" version="1.1" viewBox="0 0 1536 1536">
<metadata>
<vectornator:setting key="DisplayWhiteBackground" value="0"/>
<vectornator:setting key="RulersVisible" value="1"/>
<vectornator:setting key="SnapToEdges" value="0"/>
<vectornator:setting key="Units" value="Pixels"/>
<vectornator:setting key="DynamicGuides" value="0"/>
<vectornator:setting key="SnapToPoints" value="0"/>
<vectornator:setting key="CMYKEnabledKey" value="0"/>
<vectornator:setting key="SnapToGrid" value="0"/>
<vectornator:setting key="SnapToGuides" value="1"/>
<vectornator:setting key="ShowGrid" value="1"/>
<vectornator:setting key="GridSpacing" value="32"/>
</metadata>
<defs/>
<g id="Background" vectornator:layerName="Background">
<path d="M75+0L1461+0C1502.42+0+1536+33.5786+1536+75L1536+1461C1536+1502.42+1502.42+1536+1461+1536L75+1536C33.5786+1536+0+1502.42+0+1461L0+75C0+33.5786+33.5786+0+75+0Z" opacity="1" fill="#00b1ff"/>
</g>
<g id="Boat" vectornator:layerName="Boat">
<path d="M513.071+1357.4L1030.92+1357.4C1044.54+1357.4+1055.58+1369.37+1055.58+1384.13L1055.58+1384.13C1055.58+1398.9+1044.54+1410.87+1030.92+1410.87L513.071+1410.87C499.452+1410.87+488.412+1398.9+488.412+1384.13L488.412+1384.13C488.412+1369.37+499.452+1357.4+513.071+1357.4Z" opacity="1" fill="#ffffff"/>
<path d="M1012.27+1366.62L1367.87+1002.6C1377.22+993.022+1392.97+993.461+1403.05+1003.58L1403.05+1003.58C1413.13+1013.69+1413.72+1029.65+1404.37+1039.23L1122.3+1327.99L1048.78+1403.25C1039.43+1412.83+1023.67+1412.39+1013.59+1402.27L1013.59+1402.27C1003.51+1392.16+1002.92+1376.2+1012.27+1366.62Z" opacity="1" fill="#ffffff"/>
<path d="M531.121+1366.62L175.528+1002.59C166.176+993.02+150.423+993.459+140.342+1003.57L140.342+1003.57C130.261+1013.69+129.669+1029.65+139.021+1039.22L421.098+1327.99L494.614+1403.25C503.966+1412.83+519.72+1412.39+529.801+1402.27L529.801+1402.27C539.882+1392.16+540.473+1376.2+531.121+1366.62Z" opacity="1" fill="#ffffff"/>
<path d="M780.046+1100.73L170.842+993.071C154.821+990.24+139.465+1001.27+136.545+1017.71L136.545+1017.71C133.625+1034.15+144.246+1049.77+160.268+1052.6L643.523+1138.01L769.471+1160.27C785.492+1163.1+800.848+1152.07+803.768+1135.63L803.768+1135.63C806.688+1119.19+796.067+1103.57+780.046+1100.73Z" opacity="1" fill="#ffffff"/>
<path d="M765.447+1099.59L1374.65+991.928C1390.67+989.097+1406.03+1000.13+1408.95+1016.57L1408.95+1016.57C1411.87+1033.01+1401.25+1048.63+1385.23+1051.46L901.97+1136.87L776.022+1159.12C760+1161.95+744.645+1150.92+741.725+1134.48L741.725+1134.48C738.805+1118.04+749.426+1102.42+765.447+1099.59Z" opacity="1" fill="#ffffff"/>
<path d="M752.056+563.265L353.801+1036.67C343.327+1049.12+345.187+1067.94+357.954+1078.7L357.954+1078.7C370.722+1089.46+389.563+1088.09+400.037+1075.64L715.956+700.103L798.292+602.23C808.766+589.78+806.906+570.964+794.139+560.204L794.139+560.204C781.371+549.445+762.53+550.815+752.056+563.265Z" opacity="1" fill="#ffffff"/>
<path d="M795.868+563.265L1194.12+1036.67C1204.6+1049.12+1202.74+1067.94+1189.97+1078.7L1189.97+1078.7C1177.2+1089.46+1158.36+1088.09+1147.89+1075.64L831.969+700.103L749.633+602.23C739.159+589.78+741.019+570.964+753.786+560.204L753.786+560.204C766.554+549.445+785.394+550.815+795.868+563.265Z" opacity="1" fill="#ffffff"/>
</g>
<g id="Title" vectornator:layerName="Title">
<g opacity="1">
<path d="M246.972+362.407C257.78+362.407+264.151+355.809+264.151+344.545L264.151+308.48L294.869+308.48C329.455+308.48+353.46+285.954+353.46+252.278C353.46+218.489+330.251+196.076+296.575+196.076L246.972+196.076C236.164+196.076+229.793+202.675+229.793+213.938L229.793+344.545C229.793+355.809+236.164+362.407+246.972+362.407ZM264.151+281.631L264.151+223.267L287.474+223.267C307.156+223.267+318.533+233.734+318.533+252.392C318.533+271.164+307.042+281.631+287.36+281.631L264.151+281.631Z" opacity="1" fill="#ffffff"/>
<path d="M398.968+362.18C414.213+362.18+429.458+354.557+436.284+341.587L436.967+341.587L436.967+347.845C437.649+357.629+443.907+362.635+452.895+362.635C462.337+362.635+469.05+356.946+469.05+345.911L469.05+276.397C469.05+251.823+448.685+235.668+417.398+235.668C392.142+235.668+372.573+244.656+366.885+259.218C365.747+261.721+365.178+264.11+365.178+266.727C365.178+274.236+370.981+279.469+379.058+279.469C384.405+279.469+388.615+277.421+392.255+273.326C399.65+263.769+405.794+260.47+415.919+260.47C428.434+260.47+436.398+267.068+436.398+278.445L436.398+286.523L405.68+288.343C375.19+290.163+358.125+303.019+358.125+325.204C358.125+347.162+375.759+362.18+398.968+362.18ZM409.89+338.174C398.74+338.174+391.231+332.486+391.231+323.384C391.231+314.738+398.285+309.163+410.686+308.253L436.398+306.66L436.398+315.534C436.398+328.731+424.452+338.174+409.89+338.174Z" opacity="1" fill="#ffffff"/>
<path d="M507.049+403.705C516.833+403.705+523.659+397.789+523.659+386.413L523.659+339.767L524.342+339.767C530.827+353.533+544.479+362.18+562.227+362.18C592.717+362.18+611.603+338.516+611.603+299.265C611.603+259.901+592.604+236.35+561.658+236.35C544.024+236.35+530.485+245.225+523.887+259.559L523.204+259.559L523.204+252.961C523.204+241.698+516.378+235.782+506.821+235.782C497.265+235.782+490.439+241.698+490.439+252.847L490.439+386.413C490.439+397.789+497.378+403.705+507.049+403.705ZM550.509+335.444C534.24+335.444+523.545+321.336+523.545+299.265C523.545+277.421+534.24+262.973+550.509+262.973C567.119+262.973+577.586+277.194+577.586+299.265C577.586+321.45+567.119+335.444+550.509+335.444Z" opacity="1" fill="#ffffff"/>
<path d="M684.757+362.862C708.307+362.862+727.193+353.988+735.271+338.971C736.75+336.24+737.546+333.51+737.546+330.893C737.546+323.27+731.744+318.72+724.576+318.72C720.253+318.72+717.295+319.971+713.768+323.612C704.78+334.192+696.816+338.288+684.643+338.288C667.805+338.288+656.883+326.456+656.883+308.367L656.883+306.888L726.51+306.888C735.726+306.888+740.959+301.654+740.959+292.439C740.959+259.332+717.75+235.668+683.164+235.668C647.099+235.668+624.231+260.583+624.231+299.834C624.231+339.312+646.644+362.862+684.757+362.862ZM657.225+286.523C658.362+270.936+668.943+260.242+683.505+260.242C698.068+260.242+708.307+270.595+708.99+286.523L657.225+286.523Z" opacity="1" fill="#ffffff"/>
<path d="M774.635+362.635C784.76+362.635+791.245+356.377+791.245+345.342L791.245+291.187C791.245+276.739+796.592+268.206+811.724+267.978C818.209+267.865+822.987+266.386+826.172+263.655C829.358+260.925+830.951+256.943+830.951+251.709C830.951+246.021+829.358+241.925+826.172+239.422C823.783+237.374+820.256+236.35+815.819+236.35C803.646+236.35+793.634+245.338+790.449+260.47L789.766+260.47L789.766+252.506C789.766+241.925+783.395+235.782+774.066+235.782C764.509+235.782+758.024+241.925+758.024+252.506L758.024+345.342C758.024+356.377+764.623+362.635+774.635+362.635Z" opacity="1" fill="#ffffff"/>
<path d="M862.806+360.246L918.326+360.246C953.367+360.246+975.097+342.156+975.097+313.259C975.097+291.529+958.714+275.26+936.415+273.553L936.415+272.643C953.822+270.026+967.247+255.009+967.247+237.033C967.247+211.89+947.906+196.076+917.074+196.076L862.806+196.076C851.998+196.076+845.627+202.675+845.627+213.938L845.627+342.27C845.627+353.647+851.998+360.246+862.806+360.246ZM879.985+264.338L879.985+221.674L908.2+221.674C924.242+221.674+933.457+229.183+933.457+242.38C933.457+256.26+922.99+264.338+904.673+264.338L879.985+264.338ZM879.985+334.647L879.985+286.978L908.769+286.978C929.02+286.978+940.056+295.169+940.056+310.528C940.056+326.228+929.361+334.647+909.565+334.647L879.985+334.647Z" opacity="1" fill="#ffffff"/>
<path d="M1047.8+362.862C1084.66+362.862+1108.21+339.312+1108.21+299.151C1108.21+259.559+1084.32+235.668+1047.8+235.668C1011.28+235.668+987.384+259.673+987.384+299.151C987.384+339.198+1010.93+362.862+1047.8+362.862ZM1047.8+337.492C1031.41+337.492+1021.06+323.725+1021.06+299.265C1021.06+275.032+1031.64+261.038+1047.8+261.038C1063.95+261.038+1074.42+275.032+1074.42+299.265C1074.42+323.725+1064.06+337.492+1047.8+337.492Z" opacity="1" fill="#ffffff"/>
<path d="M1161.34+362.18C1176.58+362.18+1191.83+354.557+1198.65+341.587L1199.34+341.587L1199.34+347.845C1200.02+357.629+1206.28+362.635+1215.26+362.635C1224.71+362.635+1231.42+356.946+1231.42+345.911L1231.42+276.397C1231.42+251.823+1211.05+235.668+1179.77+235.668C1154.51+235.668+1134.94+244.656+1129.25+259.218C1128.12+261.721+1127.55+264.11+1127.55+266.727C1127.55+274.236+1133.35+279.469+1141.43+279.469C1146.77+279.469+1150.98+277.421+1154.63+273.326C1162.02+263.769+1168.16+260.47+1178.29+260.47C1190.8+260.47+1198.77+267.068+1198.77+278.445L1198.77+286.523L1168.05+288.343C1137.56+290.163+1120.49+303.019+1120.49+325.204C1120.49+347.162+1138.13+362.18+1161.34+362.18ZM1172.26+338.174C1161.11+338.174+1153.6+332.486+1153.6+323.384C1153.6+314.738+1160.65+309.163+1173.06+308.253L1198.77+306.66L1198.77+315.534C1198.77+328.731+1186.82+338.174+1172.26+338.174Z" opacity="1" fill="#ffffff"/>
<path d="M1261.68+329.073C1261.68+350.575+1272.95+361.611+1295.13+361.611L1296.27+361.611C1310.26+361.611+1319.82+356.605+1319.82+346.821C1319.82+339.084+1315.38+335.671+1307.19+334.761L1305.03+334.534C1297.86+333.965+1294.9+330.324+1294.9+321.678L1294.9+263.314L1306.62+263.314C1314.47+263.314+1319.36+258.422+1319.36+250.799C1319.36+243.177+1314.47+238.285+1306.62+238.285L1294.9+238.285L1294.9+224.746C1294.9+214.052+1288.65+207.453+1278.29+207.453C1267.94+207.453+1261.68+214.052+1261.68+224.746L1261.68+238.285L1255.31+238.285C1247.46+238.285+1242.46+243.063+1242.46+250.799C1242.46+258.536+1247.46+263.314+1255.31+263.314L1261.68+263.314L1261.68+329.073Z" opacity="1" fill="#ffffff"/>
</g>
<g opacity="1">
<path d="M869.866+418.485L881.542+418.485C888.911+418.485+893.481+414.681+893.481+408.604C893.481+404.034+890.035+400.613+885.346+400.254L885.346+400.063C889.007+399.512+891.83+396.354+891.83+392.574C891.83+387.286+887.763+383.961+881.279+383.961L869.866+383.961C867.593+383.961+866.253+385.348+866.253+387.717L866.253+414.705C866.253+417.098+867.593+418.485+869.866+418.485ZM873.479+398.316L873.479+389.344L879.412+389.344C882.786+389.344+884.724+390.923+884.724+393.698C884.724+396.617+882.523+398.316+878.671+398.316L873.479+398.316ZM873.479+413.102L873.479+403.077L879.532+403.077C883.791+403.077+886.112+404.8+886.112+408.03C886.112+411.332+883.863+413.102+879.7+413.102L873.479+413.102Z" opacity="1" fill="#ffffff"/>
<path d="M901.352+427.984C906.975+427.984+909.942+425.544+912.334+418.916L920.206+397.526C920.445+396.857+920.589+396.043+920.589+395.469C920.589+393.627+919.201+392.311+917.191+392.311C915.397+392.311+914.392+393.148+913.818+395.086L908.243+412.887L908.123+412.887L902.549+395.134C901.974+393.1+901.017+392.311+899.175+392.311C897.117+392.311+895.562+393.674+895.562+395.565C895.562+396.139+895.706+396.904+895.969+397.622L904.152+419.203L903.793+420.112C902.955+421.907+901.639+422.433+900.419+422.433C899.941+422.433+899.678+422.409+899.199+422.409C897.62+422.409+896.639+423.295+896.639+424.706C896.639+426.812+898.29+427.984+901.352+427.984Z" opacity="1" fill="#ffffff"/>
<path d="M946.524+419.06C955.138+419.06+960.425+414.801+960.425+408.054C960.425+402.814+957.267+399.871+949.946+398.412L946.309+397.67C942.218+396.857+940.567+395.541+940.567+393.411C940.567+390.875+942.935+389.2+946.5+389.2C949.467+389.2+951.692+390.277+952.841+392.885C953.654+394.368+954.659+395.014+956.286+395.014C958.128+395.014+959.372+393.842+959.372+392.119C959.372+391.497+959.277+390.995+959.109+390.516C957.578+386.018+952.817+383.362+946.5+383.362C938.82+383.362+933.317+387.549+933.317+393.866C933.317+399.01+936.691+402.312+943.581+403.675L947.242+404.393C951.573+405.278+953.2+406.57+953.2+408.843C953.2+411.379+950.568+413.246+946.692+413.246C943.39+413.246+940.686+412.049+939.562+409.418C938.701+407.886+937.72+407.312+936.236+407.312C934.37+407.312+933.054+408.58+933.054+410.494C933.054+411.14+933.198+411.81+933.437+412.432C934.825+416.212+939.394+419.06+946.524+419.06Z" opacity="1" fill="#ffffff"/>
<path d="M967.89+418.988C969.948+418.988+971.383+417.744+971.383+415.351L971.383+410.159L973.608+408.102L980.188+416.811C981.288+418.462+982.126+418.988+983.609+418.988C985.571+418.988+986.935+417.696+986.935+415.83C986.935+414.921+986.72+414.298+985.954+413.27L978.8+404.154L985.332+397.981C986.337+397.048+986.648+396.402+986.648+395.349C986.648+393.627+985.332+392.311+983.537+392.311C982.485+392.311+981.695+392.717+980.762+393.698L971.479+403.005L971.383+403.005L971.383+387.095C971.383+384.702+969.948+383.434+967.89+383.434C965.856+383.434+964.397+384.702+964.397+387.095L964.397+415.351C964.397+417.744+965.856+418.988+967.89+418.988Z" opacity="1" fill="#ffffff"/>
<path d="M994.95+427.984C1000.57+427.984+1003.54+425.544+1005.93+418.916L1013.8+397.526C1014.04+396.857+1014.19+396.043+1014.19+395.469C1014.19+393.627+1012.8+392.311+1010.79+392.311C1008.99+392.311+1007.99+393.148+1007.42+395.086L1001.84+412.887L1001.72+412.887L996.146+395.134C995.572+393.1+994.615+392.311+992.773+392.311C990.715+392.311+989.16+393.674+989.16+395.565C989.16+396.139+989.304+396.904+989.567+397.622L997.749+419.203L997.39+420.112C996.553+421.907+995.237+422.433+994.017+422.433C993.538+422.433+993.275+422.409+992.797+422.409C991.218+422.409+990.237+423.295+990.237+424.706C990.237+426.812+991.888+427.984+994.95+427.984Z" opacity="1" fill="#ffffff"/>
<path d="M1020.86+418.988C1022.92+418.988+1024.35+417.744+1024.35+415.351L1024.35+387.095C1024.35+384.702+1022.92+383.434+1020.86+383.434C1018.83+383.434+1017.37+384.702+1017.37+387.095L1017.37+415.351C1017.37+417.744+1018.83+418.988+1020.86+418.988Z" opacity="1" fill="#ffffff"/>
<path d="M1036.65+418.892C1039.86+418.892+1043.06+417.289+1044.5+414.562L1044.64+414.562L1044.64+415.878C1044.79+417.935+1046.1+418.988+1047.99+418.988C1049.98+418.988+1051.39+417.792+1051.39+415.471L1051.39+400.852C1051.39+395.684+1047.11+392.287+1040.53+392.287C1035.22+392.287+1031.1+394.177+1029.91+397.239C1029.67+397.766+1029.55+398.268+1029.55+398.818C1029.55+400.398+1030.77+401.498+1032.47+401.498C1033.59+401.498+1034.48+401.067+1035.24+400.206C1036.8+398.196+1038.09+397.503+1040.22+397.503C1042.85+397.503+1044.52+398.89+1044.52+401.283L1044.52+402.982L1038.06+403.364C1031.65+403.747+1028.06+406.451+1028.06+411.116C1028.06+415.734+1031.77+418.892+1036.65+418.892ZM1038.95+413.844C1036.6+413.844+1035.03+412.648+1035.03+410.733C1035.03+408.915+1036.51+407.743+1039.12+407.551L1044.52+407.216L1044.52+409.083C1044.52+411.858+1042.01+413.844+1038.95+413.844Z" opacity="1" fill="#ffffff"/>
<path d="M1059.38+418.988C1061.51+418.988+1062.88+417.672+1062.88+415.351L1062.88+403.962C1062.88+400.924+1064+399.129+1067.18+399.082C1068.55+399.058+1069.55+398.747+1070.22+398.172C1070.89+397.598+1071.23+396.761+1071.23+395.66C1071.23+394.464+1070.89+393.603+1070.22+393.076C1069.72+392.646+1068.98+392.43+1068.04+392.43C1065.48+392.43+1063.38+394.32+1062.71+397.503L1062.56+397.503L1062.56+395.828C1062.56+393.603+1061.22+392.311+1059.26+392.311C1057.25+392.311+1055.89+393.603+1055.89+395.828L1055.89+415.351C1055.89+417.672+1057.28+418.988+1059.38+418.988Z" opacity="1" fill="#ffffff"/>
<path d="M1087.23+418.94C1089.27+418.94+1090.44+417.696+1090.44+415.566L1090.44+395.182L1090.63+395.182L1099.17+416.093C1099.77+417.576+1100.77+418.27+1102.3+418.27C1103.81+418.27+1104.77+417.6+1105.39+416.069L1113.93+395.182L1114.12+395.182L1114.12+415.566C1114.12+417.696+1115.3+418.94+1117.33+418.94C1119.36+418.94+1120.56+417.696+1120.56+415.566L1120.56+388.148C1120.56+385.205+1118.84+383.482+1115.92+383.482C1113.38+383.482+1111.97+384.559+1110.92+387.214L1102.38+408.437L1102.19+408.437L1093.62+387.214C1092.57+384.535+1091.18+383.482+1088.67+383.482C1085.72+383.482+1084+385.229+1084+388.148L1084+415.566C1084+417.696+1085.2+418.94+1087.23+418.94Z" opacity="1" fill="#ffffff"/>
<path d="M1137.4+419.036C1142.31+419.036+1146.69+416.595+1148.22+413.102C1148.53+412.408+1148.67+411.834+1148.67+411.284C1148.67+409.561+1147.36+408.484+1145.73+408.484C1144.25+408.484+1143.48+409.083+1142.55+410.542C1141.47+412.36+1139.96+413.557+1137.52+413.557C1134.03+413.557+1131.85+410.686+1131.85+405.637C1131.85+400.685+1134.03+397.766+1137.57+397.766C1139.8+397.766+1141.35+398.795+1142.62+401.044C1143.34+402.312+1144.18+402.862+1145.56+402.862C1147.21+402.862+1148.55+401.857+1148.55+400.134C1148.55+399.632+1148.41+399.01+1148.17+398.412C1146.78+394.775+1142.5+392.287+1137.36+392.287C1129.65+392.287+1124.77+397.455+1124.77+405.661C1124.77+413.963+1129.68+419.036+1137.4+419.036Z" opacity="1" fill="#ffffff"/>
<path d="M1168.39+419.06C1174.92+419.06+1180.06+416.117+1182.22+411.332C1182.58+410.494+1182.77+409.729+1182.77+408.915C1182.77+407.001+1181.43+405.709+1179.39+405.709C1177.86+405.709+1176.95+406.355+1176.21+407.982C1174.66+411.451+1171.93+413.102+1168.29+413.102C1162.77+413.102+1159.3+408.556+1159.3+401.187C1159.3+393.914+1162.81+389.344+1168.27+389.344C1171.71+389.344+1174.54+391.114+1176.12+394.631C1176.91+396.306+1177.93+397.024+1179.56+397.024C1181.48+397.024+1182.74+395.804+1182.74+393.914C1182.74+393.052+1182.5+392.119+1182.03+391.21C1179.66+386.233+1174.66+383.362+1168.2+383.362C1158.27+383.362+1151.93+390.086+1151.93+401.211C1151.93+412.36+1158.15+419.06+1168.39+419.06Z" opacity="1" fill="#ffffff"/>
<path d="M1194.78+418.892C1197.98+418.892+1201.19+417.289+1202.63+414.562L1202.77+414.562L1202.77+415.878C1202.91+417.935+1204.23+418.988+1206.12+418.988C1208.1+418.988+1209.52+417.792+1209.52+415.471L1209.52+400.852C1209.52+395.684+1205.23+392.287+1198.65+392.287C1193.34+392.287+1189.23+394.177+1188.03+397.239C1187.79+397.766+1187.67+398.268+1187.67+398.818C1187.67+400.398+1188.89+401.498+1190.59+401.498C1191.72+401.498+1192.6+401.067+1193.37+400.206C1194.92+398.196+1196.21+397.503+1198.34+397.503C1200.97+397.503+1202.65+398.89+1202.65+401.283L1202.65+402.982L1196.19+403.364C1189.78+403.747+1186.19+406.451+1186.19+411.116C1186.19+415.734+1189.9+418.892+1194.78+418.892ZM1197.08+413.844C1194.73+413.844+1193.15+412.648+1193.15+410.733C1193.15+408.915+1194.63+407.743+1197.24+407.551L1202.65+407.216L1202.65+409.083C1202.65+411.858+1200.14+413.844+1197.08+413.844Z" opacity="1" fill="#ffffff"/>
<path d="M1223.13+418.964C1227.01+418.964+1229.54+417.098+1230.81+413.868L1230.95+413.868L1230.95+415.447C1230.95+417.768+1232.32+418.988+1234.33+418.988C1236.34+418.988+1237.7+417.768+1237.7+415.447L1237.7+395.971C1237.7+393.579+1236.27+392.311+1234.21+392.311C1232.17+392.311+1230.71+393.579+1230.71+395.971L1230.71+407.527C1230.71+410.925+1228.78+413.15+1225.67+413.15C1222.58+413.15+1220.88+411.332+1220.88+407.91L1220.88+395.971C1220.88+393.579+1219.45+392.311+1217.39+392.311C1215.35+392.311+1213.89+393.579+1213.89+395.971L1213.89+409.37C1213.89+415.351+1217.58+418.964+1223.13+418.964Z" opacity="1" fill="#ffffff"/>
<path d="M1245.91+418.988C1247.97+418.988+1249.4+417.744+1249.4+415.351L1249.4+387.095C1249.4+384.702+1247.97+383.434+1245.91+383.434C1243.87+383.434+1242.41+384.702+1242.41+387.095L1242.41+415.351C1242.41+417.744+1243.87+418.988+1245.91+418.988Z" opacity="1" fill="#ffffff"/>
<path d="M1265.91+419.036C1270.86+419.036+1274.83+417.17+1276.53+414.011C1276.84+413.437+1277.01+412.863+1277.01+412.313C1277.01+410.71+1275.79+409.753+1274.28+409.753C1273.37+409.753+1272.75+410.016+1272.01+410.781C1270.12+413.006+1268.45+413.868+1265.89+413.868C1262.34+413.868+1260.05+411.379+1260.05+407.575L1260.05+407.264L1274.69+407.264C1276.63+407.264+1277.73+406.164+1277.73+404.226C1277.73+397.263+1272.85+392.287+1265.57+392.287C1257.99+392.287+1253.18+397.526+1253.18+405.781C1253.18+414.083+1257.89+419.036+1265.91+419.036ZM1260.12+402.982C1260.36+399.704+1262.58+397.455+1265.65+397.455C1268.71+397.455+1270.86+399.632+1271.01+402.982L1260.12+402.982Z" opacity="1" fill="#ffffff"/>
<path d="M1285.31+427.984C1290.94+427.984+1293.9+425.544+1296.3+418.916L1304.17+397.526C1304.41+396.857+1304.55+396.043+1304.55+395.469C1304.55+393.627+1303.16+392.311+1301.15+392.311C1299.36+392.311+1298.35+393.148+1297.78+395.086L1292.2+412.887L1292.08+412.887L1286.51+395.134C1285.94+393.1+1284.98+392.311+1283.14+392.311C1281.08+392.311+1279.52+393.674+1279.52+395.565C1279.52+396.139+1279.67+396.904+1279.93+397.622L1288.11+419.203L1287.75+420.112C1286.92+421.907+1285.6+422.433+1284.38+422.433C1283.9+422.433+1283.64+422.409+1283.16+422.409C1281.58+422.409+1280.6+423.295+1280.6+424.706C1280.6+426.812+1282.25+427.984+1285.31+427.984Z" opacity="1" fill="#ffffff"/>
</g>
</g>
</svg>
