<?xml version="1.0" encoding="UTF-8" standalone="no"?> <!-- Created with Vectornator for iOS (http://vectornator.io/) --><!DOCTYPE svg PUBLIC "-//W3C//DTD SVG 1.1//EN" "http://www.w3.org/Graphics/SVG/1.1/DTD/svg11.dtd">
<svg style="fill-rule:evenodd;clip-rule:evenodd;stroke-linecap:round;stroke-linejoin:round;" xmlns:vectornator="http://vectornator.io" xmlns:xlink="http://www.w3.org/1999/xlink" xmlns="http://www.w3.org/2000/svg" xml:space="preserve" version="1.1" viewBox="0 0 1536 1536">
<metadata>
<vectornator:setting key="DisplayWhiteBackground" value="0"/>
<vectornator:setting key="RulersVisible" value="1"/>
<vectornator:setting key="SnapToEdges" value="0"/>
<vectornator:setting key="Units" value="Pixels"/>
<vectornator:setting key="DynamicGuides" value="0"/>
<vectornator:setting key="SnapToPoints" value="0"/>
<vectornator:setting key="CMYKEnabledKey" value="0"/>
<vectornator:setting key="SnapToGrid" value="0"/>
<vectornator:setting key="SnapToGuides" value="1"/>
<vectornator:setting key="ShowGrid" value="1"/>
<vectornator:setting key="GridSpacing" value="32"/>
</metadata>
<defs/>
<g id="Background" vectornator:layerName="Background">
<path d="M75+0L1461+0C1502.42+0+1536+33.5786+1536+75L1536+1461C1536+1502.42+1502.42+1536+1461+1536L75+1536C33.5786+1536+0+1502.42+0+1461L0+75C0+33.5786+33.5786+0+75+0Z" opacity="1" fill="#00b1ff"/>
</g>
<g id="Boat" vectornator:layerName="Boat">
<g opacity="1">
<path d="M510.075+1379.45L1027.92+1379.45C1041.54+1379.45+1052.58+1391.42+1052.58+1406.18L1052.58+1406.18C1052.58+1420.95+1041.54+1432.91+1027.92+1432.91L510.075+1432.91C496.456+1432.91+485.415+1420.95+485.415+1406.18L485.415+1406.18C485.415+1391.42+496.456+1379.45+510.075+1379.45Z" opacity="1" fill="#ffffff"/>
<path d="M1009.28+1388.67L1364.87+1024.64C1374.22+1015.07+1389.97+1015.51+1400.06+1025.62L1400.06+1025.62C1410.14+1035.74+1410.73+1051.7+1401.38+1061.27L1119.3+1350.04L1045.78+1425.3C1036.43+1434.88+1020.68+1434.44+1010.6+1424.32L1010.6+1424.32C1000.52+1414.21+999.924+1398.25+1009.28+1388.67Z" opacity="1" fill="#ffffff"/>
<path d="M528.125+1388.67L172.532+1024.64C163.18+1015.07+147.426+1015.51+137.345+1025.62L137.345+1025.62C127.264+1035.74+126.673+1051.7+136.025+1061.27L418.102+1350.04L491.618+1425.3C500.97+1434.87+516.723+1434.44+526.804+1424.32L526.804+1424.32C536.885+1414.21+537.477+1398.24+528.125+1388.67Z" opacity="1" fill="#ffffff"/>
<path d="M777.049+1122.78L167.846+1015.12C151.824+1012.29+136.469+1023.32+133.549+1039.76L133.549+1039.76C130.629+1056.2+141.25+1071.82+157.271+1074.65L640.527+1160.06L766.474+1182.31C782.496+1185.15+797.851+1174.11+800.771+1157.68L800.771+1157.68C803.692+1141.24+793.071+1125.61+777.049+1122.78Z" opacity="1" fill="#ffffff"/>
<path d="M762.451+1121.64L1371.65+1013.98C1387.68+1011.14+1403.03+1022.18+1405.95+1038.62L1405.95+1038.62C1408.87+1055.06+1398.25+1070.68+1382.23+1073.51L898.973+1158.91L773.026+1181.17C757.004+1184+741.649+1172.97+738.729+1156.53L738.729+1156.53C735.808+1140.09+746.429+1124.47+762.451+1121.64Z" opacity="1" fill="#ffffff"/>
<path d="M749.06+585.313L350.805+1058.72C340.331+1071.17+342.19+1089.98+354.958+1100.74L354.958+1100.74C367.725+1111.5+386.566+1110.13+397.04+1097.68L712.959+722.151L795.295+624.278C805.769+611.828+803.91+593.012+791.142+582.253L791.142+582.253C778.375+571.493+759.534+572.863+749.06+585.313Z" opacity="1" fill="#ffffff"/>
<path d="M792.872+585.313L1191.13+1058.72C1201.6+1071.17+1199.74+1089.98+1186.97+1100.74L1186.97+1100.74C1174.21+1111.5+1155.37+1110.13+1144.89+1097.68L828.973+722.151L746.637+624.278C736.163+611.828+738.022+593.012+750.79+582.253L750.79+582.253C763.557+571.493+782.398+572.863+792.872+585.313Z" opacity="1" fill="#ffffff"/>
</g>
<g opacity="1">
<path d="M283.693+282.003C305.842+282.003+319.438+271.052+319.438+253.703C319.438+240.229+311.317+232.662+292.491+228.909L283.14+227.001C272.619+224.91+268.374+221.526+268.374+216.05C268.374+209.529+274.465+205.222+283.632+205.222C291.261+205.222+296.982+207.991+299.935+214.697C302.027+218.511+304.611+220.172+308.795+220.172C313.532+220.172+316.731+217.158+316.731+212.728C316.731+211.128+316.485+209.836+316.055+208.606C312.117+197.039+299.874+190.21+283.632+190.21C263.883+190.21+249.732+200.977+249.732+217.219C249.732+230.447+258.407+238.937+276.126+242.444L285.539+244.289C296.675+246.566+300.858+249.888+300.858+255.733C300.858+262.254+294.091+267.053+284.124+267.053C275.634+267.053+268.682+263.977+265.79+257.209C263.575+253.272+261.053+251.795+257.238+251.795C252.439+251.795+249.056+255.056+249.056+259.978C249.056+261.639+249.425+263.362+250.04+264.961C253.608+274.682+265.359+282.003+283.693+282.003Z" opacity="1" fill="#ffffff"/>
<path d="M359.49+281.942C379.424+281.942+392.159+269.206+392.159+247.489C392.159+226.079+379.239+213.159+359.49+213.159C339.741+213.159+326.821+226.14+326.821+247.489C326.821+269.145+339.557+281.942+359.49+281.942ZM359.49+268.222C350.631+268.222+345.032+260.778+345.032+247.55C345.032+234.446+350.754+226.878+359.49+226.878C368.226+226.878+373.887+234.446+373.887+247.55C373.887+260.778+368.288+268.222+359.49+268.222Z" opacity="1" fill="#ffffff"/>
<path d="M410.37+281.819C415.661+281.819+419.352+278.558+419.352+272.467L419.352+240.721C419.352+233.338+423.967+228.17+430.796+228.17C437.44+228.17+441.439+232.354+441.439+239.429L441.439+272.467C441.439+278.558+444.762+281.819+450.053+281.819C455.405+281.819+458.727+278.558+458.727+272.467L458.727+240.475C458.727+233.154+463.219+228.17+470.048+228.17C477+228.17+480.814+232.354+480.814+239.983L480.814+272.467C480.814+278.558+484.444+281.819+489.735+281.819C495.088+281.819+498.779+278.558+498.779+272.467L498.779+235.492C498.779+222.203+490.104+213.343+477.184+213.343C467.525+213.343+459.65+218.573+456.697+226.878L456.328+226.878C454.113+218.265+447.469+213.343+437.933+213.343C428.95+213.343+421.875+218.573+419.106+226.509L418.737+226.509L418.737+222.387C418.737+216.358+415.169+213.22+410.062+213.22C404.956+213.22+401.388+216.358+401.388+222.387L401.388+272.467C401.388+278.558+405.017+281.819+410.37+281.819Z" opacity="1" fill="#ffffff"/>
<path d="M540.492+281.942C553.227+281.942+563.44+277.143+567.809+269.022C568.608+267.545+569.039+266.069+569.039+264.654C569.039+260.532+565.901+258.071+562.025+258.071C559.687+258.071+558.088+258.747+556.181+260.716C551.32+266.438+547.014+268.653+540.431+268.653C531.325+268.653+525.419+262.254+525.419+252.472L525.419+251.672L563.071+251.672C568.055+251.672+570.885+248.842+570.885+243.859C570.885+225.955+558.334+213.159+539.631+213.159C520.128+213.159+507.762+226.632+507.762+247.858C507.762+269.206+519.882+281.942+540.492+281.942ZM525.603+240.66C526.219+232.231+531.94+226.448+539.815+226.448C547.69+226.448+553.227+232.046+553.597+240.66L525.603+240.66Z" opacity="1" fill="#ffffff"/>
<path d="M610.383+281.942C630.316+281.942+643.052+269.206+643.052+247.489C643.052+226.079+630.132+213.159+610.383+213.159C590.634+213.159+577.714+226.14+577.714+247.489C577.714+269.145+590.449+281.942+610.383+281.942ZM610.383+268.222C601.523+268.222+595.925+260.778+595.925+247.55C595.925+234.446+601.646+226.878+610.383+226.878C619.119+226.878+624.779+234.446+624.779+247.55C624.779+260.778+619.181+268.222+610.383+268.222Z" opacity="1" fill="#ffffff"/>
<path d="M661.263+281.819C666.554+281.819+670.245+278.62+670.245+272.467L670.245+242.69C670.245+234.138+675.351+228.232+683.411+228.232C691.471+228.232+695.531+233.154+695.531+241.767L695.531+272.467C695.531+278.62+699.223+281.819+704.514+281.819C709.743+281.819+713.496+278.62+713.496+272.467L713.496+238.014C713.496+222.572+705.252+213.343+690.609+213.343C680.458+213.343+673.813+217.834+670.307+226.017L669.937+226.017L669.937+222.326C669.937+216.665+666.369+213.22+660.955+213.22C655.541+213.22+652.28+216.665+652.28+222.264L652.28+272.467C652.28+278.62+656.033+281.819+661.263+281.819Z" opacity="1" fill="#ffffff"/>
<path d="M755.209+281.942C767.944+281.942+778.157+277.143+782.525+269.022C783.325+267.545+783.756+266.069+783.756+264.654C783.756+260.532+780.618+258.071+776.742+258.071C774.404+258.071+772.805+258.747+770.897+260.716C766.037+266.438+761.73+268.653+755.147+268.653C746.042+268.653+740.136+262.254+740.136+252.472L740.136+251.672L777.788+251.672C782.771+251.672+785.601+248.842+785.601+243.859C785.601+225.955+773.051+213.159+754.348+213.159C734.845+213.159+722.478+226.632+722.478+247.858C722.478+269.206+734.599+281.942+755.209+281.942ZM740.32+240.66C740.935+232.231+746.657+226.448+754.532+226.448C762.407+226.448+767.944+232.046+768.313+240.66L740.32+240.66Z" opacity="1" fill="#ffffff"/>
<path d="M829.16+281.819C834.451+281.819+838.142+278.62+838.142+272.467L838.142+242.874C838.142+234.2+843.126+228.232+851.616+228.232C859.799+228.232+863.982+233.4+863.982+241.89L863.982+272.467C863.982+278.62+867.735+281.819+872.965+281.819C878.256+281.819+881.947+278.62+881.947+272.467L881.947+238.076C881.947+222.818+873.58+213.343+858.937+213.343C848.909+213.343+841.711+218.019+838.204+226.325L837.835+226.325L837.835+199.623C837.835+193.84+834.574+190.395+829.037+190.395C823.5+190.395+820.178+193.84+820.178+199.623L820.178+272.467C820.178+278.62+823.931+281.819+829.16+281.819Z" opacity="1" fill="#ffffff"/>
<path d="M912.893+281.573C921.138+281.573+929.382+277.451+933.073+270.437L933.442+270.437L933.442+273.821C933.811+279.112+937.195+281.819+942.056+281.819C947.162+281.819+950.792+278.743+950.792+272.775L950.792+235.184C950.792+221.895+939.779+213.159+922.86+213.159C909.202+213.159+898.62+218.019+895.544+225.894C894.929+227.247+894.621+228.539+894.621+229.954C894.621+234.015+897.759+236.845+902.127+236.845C905.018+236.845+907.295+235.738+909.264+233.523C913.263+228.355+916.585+226.571+922.06+226.571C928.828+226.571+933.135+230.139+933.135+236.291L933.135+240.66L916.523+241.644C900.035+242.628+890.807+249.58+890.807+261.578C890.807+273.452+900.343+281.573+912.893+281.573ZM918.8+268.591C912.77+268.591+908.71+265.515+908.71+260.593C908.71+255.917+912.524+252.903+919.23+252.411L933.135+251.549L933.135+256.348C933.135+263.485+926.675+268.591+918.8+268.591Z" opacity="1" fill="#ffffff"/>
<path d="M989.244+281.942C1006.66+281.942+1018.41+273.452+1018.41+260.347C1018.41+250.503+1012.62+245.335+998.596+242.382L987.706+240.044C981.123+238.629+978.539+236.353+978.539+232.908C978.539+228.662+982.784+225.771+988.875+225.771C995.335+225.771+998.903+228.847+1002.04+232.846C1003.64+234.753+1006.22+235.615+1008.56+235.615C1013.18+235.615+1015.45+233.092+1015.45+229.462C1015.45+228.601+1015.27+227.74+1015.02+226.817C1012.87+219.372+1002.84+213.159+989.183+213.159C972.079+213.159+961.189+221.28+961.189+233.892C961.189+243.674+967.711+250.257+980.631+253.026L991.705+255.364C998.165+256.779+1000.44+258.686+1000.44+262.254C1000.44+266.622+996.196+269.329+989.675+269.329C982.846+269.329+978.785+267.238+975.278+262.623C972.817+259.855+970.356+258.563+967.465+258.563C963.281+258.563+960.205+261.331+960.205+265.454C960.205+266.438+960.451+267.607+960.882+268.776C964.019+276.528+974.109+281.942+989.244+281.942Z" opacity="1" fill="#ffffff"/>
<path d="M1079.07+281.942C1096.48+281.942+1108.23+273.452+1108.23+260.347C1108.23+250.503+1102.45+245.335+1088.42+242.382L1077.53+240.044C1070.95+238.629+1068.36+236.353+1068.36+232.908C1068.36+228.662+1072.61+225.771+1078.7+225.771C1085.16+225.771+1088.73+228.847+1091.87+232.846C1093.46+234.753+1096.05+235.615+1098.39+235.615C1103+235.615+1105.28+233.092+1105.28+229.462C1105.28+228.601+1105.09+227.74+1104.85+226.817C1102.69+219.372+1092.66+213.159+1079.01+213.159C1061.9+213.159+1051.01+221.28+1051.01+233.892C1051.01+243.674+1057.54+250.257+1070.45+253.026L1081.53+255.364C1087.99+256.779+1090.27+258.686+1090.27+262.254C1090.27+266.622+1086.02+269.329+1079.5+269.329C1072.67+269.329+1068.61+267.238+1065.1+262.623C1062.64+259.855+1060.18+258.563+1057.29+258.563C1053.11+258.563+1050.03+261.331+1050.03+265.454C1050.03+266.438+1050.28+267.607+1050.71+268.776C1053.84+276.528+1063.93+281.942+1079.07+281.942Z" opacity="1" fill="#ffffff"/>
<path d="M1147.42+281.942C1160.16+281.942+1170.37+277.143+1174.74+269.022C1175.54+267.545+1175.97+266.069+1175.97+264.654C1175.97+260.532+1172.83+258.071+1168.95+258.071C1166.62+258.071+1165.02+258.747+1163.11+260.716C1158.25+266.438+1153.94+268.653+1147.36+268.653C1138.25+268.653+1132.35+262.254+1132.35+252.472L1132.35+251.672L1170+251.672C1174.98+251.672+1177.81+248.842+1177.81+243.859C1177.81+225.955+1165.26+213.159+1146.56+213.159C1127.06+213.159+1114.69+226.632+1114.69+247.858C1114.69+269.206+1126.81+281.942+1147.42+281.942ZM1132.53+240.66C1133.15+232.231+1138.87+226.448+1146.74+226.448C1154.62+226.448+1160.16+232.046+1160.53+240.66L1132.53+240.66Z" opacity="1" fill="#ffffff"/>
<path d="M1196.02+281.819C1201.32+281.819+1205.01+278.62+1205.01+272.467L1205.01+242.69C1205.01+234.138+1210.11+228.232+1218.17+228.232C1226.23+228.232+1230.29+233.154+1230.29+241.767L1230.29+272.467C1230.29+278.62+1233.98+281.819+1239.28+281.819C1244.5+281.819+1248.26+278.62+1248.26+272.467L1248.26+238.014C1248.26+222.572+1240.01+213.343+1225.37+213.343C1215.22+213.343+1208.58+217.834+1205.07+226.017L1204.7+226.017L1204.7+222.326C1204.7+216.665+1201.13+213.22+1195.72+213.22C1190.3+213.22+1187.04+216.665+1187.04+222.264L1187.04+272.467C1187.04+278.62+1190.79+281.819+1196.02+281.819Z" opacity="1" fill="#ffffff"/>
<path d="M1264.44+263.669C1264.44+275.297+1270.53+281.265+1282.53+281.265L1283.14+281.265C1290.71+281.265+1295.88+278.558+1295.88+273.267C1295.88+269.083+1293.48+267.238+1289.05+266.745L1287.88+266.622C1284+266.315+1282.4+264.346+1282.4+259.67L1282.4+228.109L1288.74+228.109C1292.99+228.109+1295.63+225.463+1295.63+221.341C1295.63+217.219+1292.99+214.574+1288.74+214.574L1282.4+214.574L1282.4+207.252C1282.4+201.469+1279.02+197.901+1273.42+197.901C1267.82+197.901+1264.44+201.469+1264.44+207.252L1264.44+214.574L1260.99+214.574C1256.75+214.574+1254.04+217.158+1254.04+221.341C1254.04+225.525+1256.75+228.109+1260.99+228.109L1264.44+228.109L1264.44+263.669Z" opacity="1" fill="#ffffff"/>
<path d="M308.057+455.315C322.515+455.315+330.143+449.039+336.296+431.997L356.537+376.995C357.152+375.273+357.521+373.181+357.521+371.704C357.521+366.967+353.953+363.583+348.785+363.583C344.171+363.583+341.587+365.737+340.11+370.72L325.775+416.494L325.468+416.494L311.133+370.843C309.656+365.614+307.195+363.583+302.458+363.583C297.167+363.583+293.168+367.09+293.168+371.951C293.168+373.427+293.537+375.396+294.214+377.242L315.255+432.736L314.332+435.074C312.179+439.688+308.795+441.041+305.657+441.041C304.427+441.041+303.75+440.98+302.519+440.98C298.459+440.98+295.936+443.256+295.936+446.886C295.936+452.3+300.182+455.315+308.057+455.315Z" opacity="1" fill="#ffffff"/>
<path d="M393.697+432.305C413.631+432.305+426.366+419.57+426.366+397.852C426.366+376.442+413.446+363.522+393.697+363.522C373.948+363.522+361.028+376.503+361.028+397.852C361.028+419.508+373.764+432.305+393.697+432.305ZM393.697+418.585C384.838+418.585+379.239+411.141+379.239+397.913C379.239+384.809+384.961+377.242+393.697+377.242C402.434+377.242+408.094+384.809+408.094+397.913C408.094+411.141+402.495+418.585+393.697+418.585Z" opacity="1" fill="#ffffff"/>
<path d="M459.035+432.12C469.002+432.12+475.523+427.322+478.784+419.016L479.153+419.016L479.153+423.077C479.153+429.044+482.66+432.182+487.828+432.182C492.996+432.182+496.503+429.044+496.503+423.077L496.503+372.996C496.503+366.844+492.811+363.583+487.52+363.583C482.291+363.583+478.538+366.844+478.538+372.996L478.538+402.712C478.538+411.449+473.555+417.17+465.557+417.17C457.62+417.17+453.252+412.495+453.252+403.697L453.252+372.996C453.252+366.844+449.56+363.583+444.269+363.583C439.04+363.583+435.287+366.844+435.287+372.996L435.287+407.45C435.287+422.83+444.762+432.12+459.035+432.12Z" opacity="1" fill="#ffffff"/>
<path d="M552.612+431.936C560.856+431.936+569.1+427.814+572.792+420.8L573.161+420.8L573.161+424.184C573.53+429.475+576.914+432.182+581.774+432.182C586.881+432.182+590.511+429.106+590.511+423.138L590.511+385.547C590.511+372.258+579.498+363.522+562.579+363.522C548.921+363.522+538.339+368.382+535.263+376.257C534.647+377.611+534.34+378.903+534.34+380.318C534.34+384.378+537.477+387.208+541.846+387.208C544.737+387.208+547.014+386.101+548.982+383.886C552.981+378.718+556.304+376.934+561.779+376.934C568.547+376.934+572.853+380.502+572.853+386.655L572.853+391.023L556.242+392.007C539.754+392.992+530.525+399.944+530.525+411.941C530.525+423.815+540.061+431.936+552.612+431.936ZM558.518+418.954C552.489+418.954+548.429+415.878+548.429+410.956C548.429+406.281+552.243+403.266+558.949+402.774L572.853+401.912L572.853+406.711C572.853+413.848+566.393+418.954+558.518+418.954Z" opacity="1" fill="#ffffff"/>
<path d="M635.976+432.182C641.267+432.182+644.959+428.921+644.959+422.83L644.959+391.084C644.959+383.702+649.573+378.534+656.402+378.534C663.047+378.534+667.046+382.717+667.046+389.792L667.046+422.83C667.046+428.921+670.368+432.182+675.659+432.182C681.012+432.182+684.334+428.921+684.334+422.83L684.334+390.838C684.334+383.517+688.825+378.534+695.654+378.534C702.606+378.534+706.421+382.717+706.421+390.346L706.421+422.83C706.421+428.921+710.051+432.182+715.342+432.182C720.694+432.182+724.386+428.921+724.386+422.83L724.386+385.855C724.386+372.566+715.711+363.706+702.791+363.706C693.132+363.706+685.257+368.936+682.304+377.242L681.934+377.242C679.72+368.628+673.075+363.706+663.539+363.706C654.557+363.706+647.481+368.936+644.713+376.872L644.344+376.872L644.344+372.75C644.344+366.721+640.775+363.583+635.669+363.583C630.562+363.583+626.994+366.721+626.994+372.75L626.994+422.83C626.994+428.921+630.624+432.182+635.976+432.182Z" opacity="1" fill="#ffffff"/>
<path d="M766.099+432.305C778.834+432.305+789.047+427.506+793.415+419.385C794.215+417.909+794.645+416.432+794.645+415.017C794.645+410.895+791.508+408.434+787.632+408.434C785.294+408.434+783.694+409.111+781.787+411.079C776.927+416.801+772.62+419.016+766.037+419.016C756.932+419.016+751.025+412.618+751.025+402.835L751.025+402.036L788.678+402.036C793.661+402.036+796.491+399.205+796.491+394.222C796.491+376.319+783.94+363.522+765.237+363.522C745.734+363.522+733.368+376.995+733.368+398.221C733.368+419.57+745.488+432.305+766.099+432.305ZM751.21+391.023C751.825+382.594+757.547+376.811+765.422+376.811C773.297+376.811+778.834+382.41+779.203+391.023L751.21+391.023Z" opacity="1" fill="#ffffff"/>
<path d="M832.605+432.305C850.017+432.305+861.767+423.815+861.767+410.71C861.767+400.867+855.984+395.699+841.957+392.745L831.067+390.408C824.484+388.993+821.9+386.716+821.9+383.271C821.9+379.026+826.145+376.134+832.236+376.134C838.696+376.134+842.265+379.21+845.402+383.209C847.002+385.117+849.586+385.978+851.924+385.978C856.538+385.978+858.814+383.455+858.814+379.826C858.814+378.964+858.63+378.103+858.384+377.18C856.23+369.736+846.202+363.522+832.544+363.522C815.44+363.522+804.551+371.643+804.551+384.255C804.551+394.037+811.072+400.62+823.992+403.389L835.066+405.727C841.526+407.142+843.803+409.049+843.803+412.618C843.803+416.986+839.558+419.693+833.036+419.693C826.207+419.693+822.146+417.601+818.64+412.987C816.179+410.218+813.718+408.926+810.826+408.926C806.642+408.926+803.566+411.695+803.566+415.817C803.566+416.801+803.812+417.97+804.243+419.139C807.381+426.891+817.471+432.305+832.605+432.305Z" opacity="1" fill="#ffffff"/>
<path d="M897.513+432.305C914.924+432.305+926.675+423.815+926.675+410.71C926.675+400.867+920.892+395.699+906.864+392.745L895.975+390.408C889.392+388.993+886.808+386.716+886.808+383.271C886.808+379.026+891.053+376.134+897.143+376.134C903.603+376.134+907.172+379.21+910.309+383.209C911.909+385.117+914.493+385.978+916.831+385.978C921.445+385.978+923.722+383.455+923.722+379.826C923.722+378.964+923.537+378.103+923.291+377.18C921.138+369.736+911.109+363.522+897.451+363.522C880.348+363.522+869.458+371.643+869.458+384.255C869.458+394.037+875.979+400.62+888.899+403.389L899.974+405.727C906.434+407.142+908.71+409.049+908.71+412.618C908.71+416.986+904.465+419.693+897.943+419.693C891.114+419.693+887.054+417.601+883.547+412.987C881.086+410.218+878.625+408.926+875.733+408.926C871.55+408.926+868.474+411.695+868.474+415.817C868.474+416.801+868.72+417.97+869.15+419.139C872.288+426.891+882.378+432.305+897.513+432.305Z" opacity="1" fill="#ffffff"/>
<path d="M955.037+431.936C963.281+431.936+971.525+427.814+975.217+420.8L975.586+420.8L975.586+424.184C975.955+429.475+979.339+432.182+984.199+432.182C989.306+432.182+992.935+429.106+992.935+423.138L992.935+385.547C992.935+372.258+981.923+363.522+965.004+363.522C951.346+363.522+940.764+368.382+937.687+376.257C937.072+377.611+936.765+378.903+936.765+380.318C936.765+384.378+939.902+387.208+944.27+387.208C947.162+387.208+949.438+386.101+951.407+383.886C955.406+378.718+958.728+376.934+964.204+376.934C970.972+376.934+975.278+380.502+975.278+386.655L975.278+391.023L958.667+392.007C942.179+392.992+932.95+399.944+932.95+411.941C932.95+423.815+942.486+431.936+955.037+431.936ZM960.943+418.954C954.914+418.954+950.853+415.878+950.853+410.956C950.853+406.281+954.668+403.266+961.374+402.774L975.278+401.912L975.278+406.711C975.278+413.848+968.818+418.954+960.943+418.954Z" opacity="1" fill="#ffffff"/>
<path d="M1033.97+455.684C1055.2+455.807+1067.62+445.471+1067.62+428.306L1067.62+372.689C1067.62+366.598+1063.87+363.583+1058.7+363.583C1053.54+363.583+1049.66+366.598+1049.66+372.689L1049.66+376.319L1049.29+376.319C1045.85+368.874+1038.65+363.891+1029.17+363.891C1012.19+363.891+1002.1+376.134+1002.1+396.806C1002.1+416.924+1012.44+429.475+1028.87+429.475C1038.4+429.475+1046.09+424.738+1049.17+417.662L1049.54+417.662L1049.54+428.183C1049.54+436.427+1043.75+441.841+1033.91+441.78C1027.94+441.718+1023.27+439.196+1018.41+434.581C1016.38+432.736+1014.53+431.997+1012.19+431.997C1007.7+431.997+1004.87+434.828+1004.87+438.58C1004.87+440.242+1005.24+441.903+1006.22+443.564C1010.47+450.516+1020.5+455.622+1033.97+455.684ZM1034.96+416.124C1026.04+416.124+1020.5+409.049+1020.5+396.991C1020.5+385.055+1026.1+377.549+1034.96+377.549C1043.94+377.549+1049.72+385.178+1049.72+397.052C1049.72+408.988+1043.94+416.124+1034.96+416.124Z" opacity="1" fill="#ffffff"/>
<path d="M1109.58+432.305C1122.32+432.305+1132.53+427.506+1136.9+419.385C1137.7+417.909+1138.13+416.432+1138.13+415.017C1138.13+410.895+1134.99+408.434+1131.12+408.434C1128.78+408.434+1127.18+409.111+1125.27+411.079C1120.41+416.801+1116.11+419.016+1109.52+419.016C1100.42+419.016+1094.51+412.618+1094.51+402.835L1094.51+402.036L1132.16+402.036C1137.15+402.036+1139.98+399.205+1139.98+394.222C1139.98+376.319+1127.43+363.522+1108.72+363.522C1089.22+363.522+1076.85+376.995+1076.85+398.221C1076.85+419.57+1088.97+432.305+1109.58+432.305ZM1094.7+391.023C1095.31+382.594+1101.03+376.811+1108.91+376.811C1116.78+376.811+1122.32+382.41+1122.69+391.023L1094.7+391.023Z" opacity="1" fill="#ffffff"/>
<path d="M1185.81+387.639C1191.29+387.639+1195.72+383.209+1195.72+377.734C1195.72+372.197+1191.29+367.829+1185.81+367.829C1180.27+367.829+1175.91+372.197+1175.91+377.734C1175.91+383.209+1180.27+387.639+1185.81+387.639ZM1185.81+431.628C1191.29+431.628+1195.72+427.199+1195.72+421.723C1195.72+416.186+1191.29+411.818+1185.81+411.818C1180.27+411.818+1175.91+416.186+1175.91+421.723C1175.91+427.199+1180.27+431.628+1185.81+431.628Z" opacity="1" fill="#ffffff"/>
<path d="M1215.1+451.623C1218.91+451.623+1221.99+449.716+1225.56+445.102C1235.58+431.259+1240.2+416.124+1240.2+396.006C1240.2+375.827+1235.15+359.646+1225.68+347.218C1222.11+342.604+1219.16+340.758+1215.4+340.758C1212.02+340.758+1209.37+342.912+1209.37+345.742C1209.37+347.157+1209.81+348.326+1210.73+350.356C1218.11+365.06+1221.68+379.703+1221.68+395.945C1221.68+412.556+1217.43+428.306+1210.48+442.026C1209.5+444.056+1209.13+445.225+1209.13+446.763C1209.13+449.409+1211.65+451.623+1215.1+451.623Z" opacity="1" fill="#ffffff"/>
</g>
</g>
</svg>
